<svg xmlns="http://www.w3.org/2000/svg" width="1600" height="850" viewBox="0 0 1600 850" font-family="Inter, 'Helvetica Neue', Arial, sans-serif"><rect width="1600" height="850" fill="#ffffff"/><defs><marker id="ah-pdata" viewBox="0 0 10 10" refX="9" refY="5" markerWidth="7" markerHeight="7" orient="auto-start-reverse" markerUnits="userSpaceOnUse"><path d="M0,0 L10,5 L0,10 z" fill="context-stroke"/></marker><marker id="ah-ctrl" viewBox="0 0 10 10" refX="9" refY="5" markerWidth="6" markerHeight="6" orient="auto-start-reverse" markerUnits="userSpaceOnUse"><path d="M0,1 L10,5 L0,9" fill="none" stroke="context-stroke" stroke-width="1.4"/></marker></defs><rect x="80" y="60" width="1440" height="2" fill="#4f7a8a"/><text x="80" y="42" font-size="34" font-weight="600" fill="#1f2933">OpenTelemetry Arrow Dataflow Engine</text><text x="1520" y="42" font-size="20" font-family="'JetBrains Mono', Menlo, Consolas, monospace" fill="#52606d" text-anchor="end">ControllerRuntime + N × RuntimePipeline</text><text x="80" y="90" font-size="20" font-style="italic" fill="#52606d">One controller, one engine group per CPU, one thread per pipeline.</text><g><rect x="80" y="130" width="580" height="440" rx="14" ry="14" fill="white" stroke="#52606d" stroke-width="1.6"/><rect x="80" y="130" width="580" height="6" rx="3" ry="3" fill="#52606d"/><text x="102" y="164" font-size="26" font-weight="700" fill="#1f2933">Controller process</text><text x="644" y="158" text-anchor="end" font-size="18" font-family="'JetBrains Mono', Menlo, Consolas, monospace" fill="#52606d">ControllerRuntime</text></g><text x="102" y="210" font-size="18" font-weight="700" fill="#1f2933">thread-local accessory tasks</text><rect x="102" y="224" width="536" height="32" rx="14" ry="14" fill="#f4f6f8" stroke="#9aa5b1" stroke-width="1.0"/><text x="114" y="245.0" font-size="18" font-family="'JetBrains Mono', Menlo, Consolas, monospace" font-weight="600" fill="#1f2933">process-memory-limiter</text><rect x="102" y="264" width="536" height="32" rx="14" ry="14" fill="#f4f6f8" stroke="#9aa5b1" stroke-width="1.0"/><text x="114" y="285.0" font-size="18" font-family="'JetBrains Mono', Menlo, Consolas, monospace" font-weight="600" fill="#1f2933">metrics-aggregator</text><rect x="102" y="304" width="536" height="32" rx="14" ry="14" fill="#f4f6f8" stroke="#9aa5b1" stroke-width="1.0"/><text x="114" y="325.0" font-size="18" font-family="'JetBrains Mono', Menlo, Consolas, monospace" font-weight="600" fill="#1f2933">metrics-dispatcher</text><rect x="102" y="344" width="536" height="32" rx="14" ry="14" fill="#f4f6f8" stroke="#9aa5b1" stroke-width="1.0"/><text x="114" y="365.0" font-size="18" font-family="'JetBrains Mono', Menlo, Consolas, monospace" font-weight="600" fill="#1f2933">observed-state-store</text><rect x="102" y="384" width="536" height="32" rx="14" ry="14" fill="#f4f6f8" stroke="#9aa5b1" stroke-width="1.0"/><text x="114" y="405.0" font-size="18" font-family="'JetBrains Mono', Menlo, Consolas, monospace" font-weight="600" fill="#1f2933">engine-metrics</text><text x="102" y="438" font-size="18" font-weight="700" fill="#1f2933">shared resources</text><rect x="102" y="452" width="536" height="32" rx="14" ry="14" fill="#f4f6f8" stroke="#b15a4f" stroke-width="1.4"/><text x="114" y="473.0" font-size="18" font-family="'JetBrains Mono', Menlo, Consolas, monospace" font-weight="600" fill="#1f2933">TopicBroker</text><rect x="102" y="492" width="536" height="32" rx="14" ry="14" fill="#f4f6f8" stroke="#b15a4f" stroke-width="1.4"/><text x="114" y="513.0" font-size="18" font-family="'JetBrains Mono', Menlo, Consolas, monospace" font-weight="600" fill="#1f2933">memory_pressure</text><g><rect x="80" y="620" width="580" height="64" rx="14" ry="14" fill="white" stroke="#52606d" stroke-width="1.6"/><rect x="80" y="620" width="580" height="6" rx="3" ry="3" fill="#c9b458"/><text x="102" y="654" font-size="26" font-weight="700" fill="#1f2933">http-admin</text><text x="644" y="648" text-anchor="end" font-size="18" font-family="'JetBrains Mono', Menlo, Consolas, monospace" fill="#52606d">otap_df_admin::run</text></g><line x1="399.0" y1="570" x2="399.0" y2="620" stroke="#52606d" stroke-width="1.4" marker-end="url(#ah-ctrl)"/><text x="407.0" y="599.0" font-size="16" font-family="'JetBrains Mono', Menlo, Consolas, monospace" fill="#1f2933">Arc&lt;dyn ControlPlane&gt;</text><rect x="940" y="98" width="580" height="24" rx="4" ry="4" fill="#4f7a8a" fill-opacity="0.10" stroke="#4f7a8a" stroke-width="1"/><text x="1230.0" y="115.0" text-anchor="middle" font-size="18" font-weight="700" fill="#4f7a8a">one single-threaded runtime per pipeline</text><rect x="940" y="130" width="580" height="140" rx="10" ry="10" fill="white" stroke="#52606d" stroke-width="1.6"/><rect x="940" y="130" width="580" height="6" rx="3" ry="3" fill="#4f7a8a"/><text x="962" y="162" font-size="20" font-weight="700" fill="#1f2933">Engine Group 0</text><text x="1502" y="162" text-anchor="end" font-size="16" font-style="italic" fill="#52606d">one OS thread per pipeline</text><line x1="992.0" y1="194" x2="1141.0" y2="194" stroke="#4f7a8a" stroke-width="1.4" marker-end="url(#ah-pdata)"/><line x1="1155.0" y1="194" x2="1304.0" y2="194" stroke="#4f7a8a" stroke-width="1.4" marker-end="url(#ah-pdata)"/><line x1="1318.0" y1="194" x2="1467.0" y2="194" stroke="#4f7a8a" stroke-width="1.4" marker-end="url(#ah-pdata)"/><circle cx="985.5" cy="194" r="5.5" fill="#4f7a8a"/><circle cx="1148.5" cy="194" r="4.5" fill="#4f7a8a"/><circle cx="1311.5" cy="194" r="4.5" fill="#4f7a8a"/><circle cx="1474.5" cy="194" r="5.5" fill="#4f7a8a"/><line x1="992.0" y1="238" x2="1100.25" y2="238" stroke="#4f7a8a" stroke-width="1.4" marker-end="url(#ah-pdata)"/><line x1="1114.25" y1="238" x2="1222.5" y2="238" stroke="#4f7a8a" stroke-width="1.4" marker-end="url(#ah-pdata)"/><line x1="1236.5" y1="238" x2="1344.75" y2="238" stroke="#4f7a8a" stroke-width="1.4" marker-end="url(#ah-pdata)"/><line x1="1358.75" y1="238" x2="1467.0" y2="238" stroke="#4f7a8a" stroke-width="1.4" marker-end="url(#ah-pdata)"/><circle cx="985.5" cy="238" r="5.5" fill="#4f7a8a"/><circle cx="1107.75" cy="238" r="4.5" fill="#4f7a8a"/><circle cx="1230.0" cy="238" r="4.5" fill="#4f7a8a"/><circle cx="1352.25" cy="238" r="4.5" fill="#4f7a8a"/><circle cx="1474.5" cy="238" r="5.5" fill="#4f7a8a"/><path d="M1474.5,200 C1474.5,216.0 985.5,216.0 985.5,232" fill="none" stroke="#9aa5b1" stroke-width="1" stroke-dasharray="3,3"/><rect x="940" y="288" width="580" height="140" rx="10" ry="10" fill="white" stroke="#52606d" stroke-width="1.6"/><rect x="940" y="288" width="580" height="6" rx="3" ry="3" fill="#4f7a8a"/><text x="962" y="320" font-size="20" font-weight="700" fill="#1f2933">Engine Group 1</text><text x="1502" y="320" text-anchor="end" font-size="16" font-style="italic" fill="#52606d">one OS thread per pipeline</text><line x1="992.0" y1="352" x2="1141.0" y2="352" stroke="#4f7a8a" stroke-width="1.4" marker-end="url(#ah-pdata)"/><line x1="1155.0" y1="352" x2="1304.0" y2="352" stroke="#4f7a8a" stroke-width="1.4" marker-end="url(#ah-pdata)"/><line x1="1318.0" y1="352" x2="1467.0" y2="352" stroke="#4f7a8a" stroke-width="1.4" marker-end="url(#ah-pdata)"/><circle cx="985.5" cy="352" r="5.5" fill="#4f7a8a"/><circle cx="1148.5" cy="352" r="4.5" fill="#4f7a8a"/><circle cx="1311.5" cy="352" r="4.5" fill="#4f7a8a"/><circle cx="1474.5" cy="352" r="5.5" fill="#4f7a8a"/><line x1="992.0" y1="396" x2="1100.25" y2="396" stroke="#4f7a8a" stroke-width="1.4" marker-end="url(#ah-pdata)"/><line x1="1114.25" y1="396" x2="1222.5" y2="396" stroke="#4f7a8a" stroke-width="1.4" marker-end="url(#ah-pdata)"/><line x1="1236.5" y1="396" x2="1344.75" y2="396" stroke="#4f7a8a" stroke-width="1.4" marker-end="url(#ah-pdata)"/><line x1="1358.75" y1="396" x2="1467.0" y2="396" stroke="#4f7a8a" stroke-width="1.4" marker-end="url(#ah-pdata)"/><circle cx="985.5" cy="396" r="5.5" fill="#4f7a8a"/><circle cx="1107.75" cy="396" r="4.5" fill="#4f7a8a"/><circle cx="1230.0" cy="396" r="4.5" fill="#4f7a8a"/><circle cx="1352.25" cy="396" r="4.5" fill="#4f7a8a"/><circle cx="1474.5" cy="396" r="5.5" fill="#4f7a8a"/><path d="M1474.5,358 C1474.5,374.0 985.5,374.0 985.5,390" fill="none" stroke="#9aa5b1" stroke-width="1" stroke-dasharray="3,3"/><text x="1230.0" y="472.0" text-anchor="middle" font-size="26" fill="#52606d">⋮</text><rect x="940" y="482" width="580" height="140" rx="10" ry="10" fill="white" stroke="#52606d" stroke-width="1.6"/><rect x="940" y="482" width="580" height="6" rx="3" ry="3" fill="#4f7a8a"/><text x="962" y="514" font-size="20" font-weight="700" fill="#1f2933">Engine Group N</text><text x="1502" y="514" text-anchor="end" font-size="16" font-style="italic" fill="#52606d">one OS thread per pipeline</text><line x1="992.0" y1="546" x2="1141.0" y2="546" stroke="#4f7a8a" stroke-width="1.4" marker-end="url(#ah-pdata)"/><line x1="1155.0" y1="546" x2="1304.0" y2="546" stroke="#4f7a8a" stroke-width="1.4" marker-end="url(#ah-pdata)"/><line x1="1318.0" y1="546" x2="1467.0" y2="546" stroke="#4f7a8a" stroke-width="1.4" marker-end="url(#ah-pdata)"/><circle cx="985.5" cy="546" r="5.5" fill="#4f7a8a"/><circle cx="1148.5" cy="546" r="4.5" fill="#4f7a8a"/><circle cx="1311.5" cy="546" r="4.5" fill="#4f7a8a"/><circle cx="1474.5" cy="546" r="5.5" fill="#4f7a8a"/><line x1="992.0" y1="590" x2="1100.25" y2="590" stroke="#4f7a8a" stroke-width="1.4" marker-end="url(#ah-pdata)"/><line x1="1114.25" y1="590" x2="1222.5" y2="590" stroke="#4f7a8a" stroke-width="1.4" marker-end="url(#ah-pdata)"/><line x1="1236.5" y1="590" x2="1344.75" y2="590" stroke="#4f7a8a" stroke-width="1.4" marker-end="url(#ah-pdata)"/><line x1="1358.75" y1="590" x2="1467.0" y2="590" stroke="#4f7a8a" stroke-width="1.4" marker-end="url(#ah-pdata)"/><circle cx="985.5" cy="590" r="5.5" fill="#4f7a8a"/><circle cx="1107.75" cy="590" r="4.5" fill="#4f7a8a"/><circle cx="1230.0" cy="590" r="4.5" fill="#4f7a8a"/><circle cx="1352.25" cy="590" r="4.5" fill="#4f7a8a"/><circle cx="1474.5" cy="590" r="5.5" fill="#4f7a8a"/><path d="M1474.5,552 C1474.5,568.0 985.5,568.0 985.5,584" fill="none" stroke="#9aa5b1" stroke-width="1" stroke-dasharray="3,3"/><line x1="660" y1="148.0" x2="940" y2="148.0" stroke="#52606d" stroke-width="1.4" marker-end="url(#ah-ctrl)"/><text x="690" y="142.0" font-size="16" font-family="'JetBrains Mono', Menlo, Consolas, monospace" fill="#1f2933">RuntimeCtrlMsgSender</text><line x1="660" y1="174.0" x2="940" y2="174.0" stroke="#52606d" stroke-width="1.4" marker-start="url(#ah-ctrl)"/><text x="690" y="168.0" font-size="16" font-family="'JetBrains Mono', Menlo, Consolas, monospace" fill="#1f2933">CompletionMsgSender</text><line x1="660" y1="200.0" x2="940" y2="200.0" stroke="#52606d" stroke-width="1.4" stroke-dasharray="4,3" marker-end="url(#ah-ctrl)"/><text x="690" y="194.0" font-size="16" font-family="'JetBrains Mono', Menlo, Consolas, monospace" fill="#1f2933">memory_pressure signal</text><line x1="660" y1="226.0" x2="940" y2="226.0" stroke="#52606d" stroke-width="1.4" stroke-dasharray="4,3" marker-start="url(#ah-ctrl)"/><text x="690" y="220.0" font-size="16" font-family="'JetBrains Mono', Menlo, Consolas, monospace" fill="#1f2933">note_instance_exit</text><line x1="660" y1="250.0" x2="940" y2="250.0" stroke="#52606d" stroke-width="1.4" stroke-dasharray="4,3" marker-end="url(#ah-ctrl)"/><line x1="660" y1="254.0" x2="940" y2="254.0" stroke="#52606d" stroke-width="1.4" stroke-dasharray="4,3" marker-start="url(#ah-ctrl)"/><text x="690" y="244.0" font-size="16" font-family="'JetBrains Mono', Menlo, Consolas, monospace" fill="#1f2933">topics</text><line x1="880" y1="306.0" x2="940" y2="306.0" stroke="#52606d" stroke-width="1.4" marker-end="url(#ah-ctrl)"/><line x1="880" y1="332.0" x2="940" y2="332.0" stroke="#52606d" stroke-width="1.4" marker-start="url(#ah-ctrl)"/><line x1="880" y1="358.0" x2="940" y2="358.0" stroke="#52606d" stroke-width="1.4" stroke-dasharray="4,3" marker-end="url(#ah-ctrl)"/><line x1="880" y1="384.0" x2="940" y2="384.0" stroke="#52606d" stroke-width="1.4" stroke-dasharray="4,3" marker-start="url(#ah-ctrl)"/><line x1="880" y1="410.0" x2="940" y2="410.0" stroke="#52606d" stroke-width="1.4" stroke-dasharray="4,3" marker-end="url(#ah-ctrl)"/><line x1="880" y1="500.0" x2="940" y2="500.0" stroke="#52606d" stroke-width="1.4" marker-end="url(#ah-ctrl)"/><line x1="880" y1="526.0" x2="940" y2="526.0" stroke="#52606d" stroke-width="1.4" marker-start="url(#ah-ctrl)"/><line x1="880" y1="552.0" x2="940" y2="552.0" stroke="#52606d" stroke-width="1.4" stroke-dasharray="4,3" marker-end="url(#ah-ctrl)"/><line x1="880" y1="578.0" x2="940" y2="578.0" stroke="#52606d" stroke-width="1.4" stroke-dasharray="4,3" marker-start="url(#ah-ctrl)"/><line x1="880" y1="604.0" x2="940" y2="604.0" stroke="#52606d" stroke-width="1.4" stroke-dasharray="4,3" marker-end="url(#ah-ctrl)"/></svg>