<svg xmlns="http://www.w3.org/2000/svg" width="1600" height="678" viewBox="0 0 1600 678">
<rect width="100%" height="100%" fill="#ffffff"/>
<g font-family="Inter, 'Helvetica Neue', Arial, sans-serif" fill="#1f2933">
<text x="60" y="50" font-size="26" font-weight="700">OTLP Logs in protocol buffer bytes</text>
<text x="60" y="78" font-size="14" fill="#52606d">LogsData → ResourceLogs → ScopeLogs → LogRecord (with attributes nested at each level). Each box is one wire byte.</text>
</g>
<g font-family="Inter, 'Helvetica Neue', Arial, sans-serif" fill="#1f2933">
<text x="60" y="256" font-size="20" font-weight="700">Batch A</text>
<text x="60" y="276" font-size="11" fill="#52606d">65 bytes on the wire</text>
</g>
<rect x="260.0" y="252.0" width="16" height="22" fill="#e4e7eb" stroke="#9aa5b1" stroke-width="0.8" rx="2" ry="2"/>
<text x="268.0" y="266.0" text-anchor="middle" font-family="'JetBrains Mono', Menlo, Consolas, monospace" font-size="9" fill="#1f2933">0a</text>
<rect x="277.0" y="252.0" width="16" height="22" fill="#e4e7eb" stroke="#9aa5b1" stroke-width="0.8" rx="2" ry="2"/>
<text x="285.0" y="266.0" text-anchor="middle" font-family="'JetBrains Mono', Menlo, Consolas, monospace" font-size="9" fill="#1f2933">3f</text>
<rect x="294.0" y="252.0" width="16" height="22" fill="#e4e7eb" stroke="#9aa5b1" stroke-width="0.8" rx="2" ry="2"/>
<text x="302.0" y="266.0" text-anchor="middle" font-family="'JetBrains Mono', Menlo, Consolas, monospace" font-size="9" fill="#1f2933">0a</text>
<rect x="311.0" y="252.0" width="16" height="22" fill="#e4e7eb" stroke="#9aa5b1" stroke-width="0.8" rx="2" ry="2"/>
<text x="319.0" y="266.0" text-anchor="middle" font-family="'JetBrains Mono', Menlo, Consolas, monospace" font-size="9" fill="#1f2933">0c</text>
<rect x="328.0" y="252.0" width="16" height="22" fill="#cfe8d4" stroke="#5fa572" stroke-width="0.8" rx="2" ry="2"/>
<text x="336.0" y="266.0" text-anchor="middle" font-family="'JetBrains Mono', Menlo, Consolas, monospace" font-size="9" fill="#1f2933">0a</text>
<rect x="345.0" y="252.0" width="16" height="22" fill="#cfe8d4" stroke="#5fa572" stroke-width="0.8" rx="2" ry="2"/>
<text x="353.0" y="266.0" text-anchor="middle" font-family="'JetBrains Mono', Menlo, Consolas, monospace" font-size="9" fill="#1f2933">0a</text>
<rect x="362.0" y="252.0" width="16" height="22" fill="#cfe8d4" stroke="#5fa572" stroke-width="0.8" rx="2" ry="2"/>
<text x="370.0" y="266.0" text-anchor="middle" font-family="'JetBrains Mono', Menlo, Consolas, monospace" font-size="9" fill="#1f2933">0a</text>
<rect x="379.0" y="252.0" width="16" height="22" fill="#cfe8d4" stroke="#5fa572" stroke-width="0.8" rx="2" ry="2"/>
<text x="387.0" y="266.0" text-anchor="middle" font-family="'JetBrains Mono', Menlo, Consolas, monospace" font-size="9" fill="#1f2933">03</text>
<rect x="396.0" y="252.0" width="16" height="22" fill="#cfe8d4" stroke="#5fa572" stroke-width="0.8" rx="2" ry="2"/>
<text x="404.0" y="266.0" text-anchor="middle" font-family="'JetBrains Mono', Menlo, Consolas, monospace" font-size="9" fill="#1f2933">73</text>
<rect x="413.0" y="252.0" width="16" height="22" fill="#cfe8d4" stroke="#5fa572" stroke-width="0.8" rx="2" ry="2"/>
<text x="421.0" y="266.0" text-anchor="middle" font-family="'JetBrains Mono', Menlo, Consolas, monospace" font-size="9" fill="#1f2933">76</text>
<rect x="430.0" y="252.0" width="16" height="22" fill="#cfe8d4" stroke="#5fa572" stroke-width="0.8" rx="2" ry="2"/>
<text x="438.0" y="266.0" text-anchor="middle" font-family="'JetBrains Mono', Menlo, Consolas, monospace" font-size="9" fill="#1f2933">63</text>
<rect x="447.0" y="252.0" width="16" height="22" fill="#cfe8d4" stroke="#5fa572" stroke-width="0.8" rx="2" ry="2"/>
<text x="455.0" y="266.0" text-anchor="middle" font-family="'JetBrains Mono', Menlo, Consolas, monospace" font-size="9" fill="#1f2933">12</text>
<rect x="464.0" y="252.0" width="16" height="22" fill="#cfe8d4" stroke="#5fa572" stroke-width="0.8" rx="2" ry="2"/>
<text x="472.0" y="266.0" text-anchor="middle" font-family="'JetBrains Mono', Menlo, Consolas, monospace" font-size="9" fill="#1f2933">03</text>
<rect x="481.0" y="252.0" width="16" height="22" fill="#cfe8d4" stroke="#5fa572" stroke-width="0.8" rx="2" ry="2"/>
<text x="489.0" y="266.0" text-anchor="middle" font-family="'JetBrains Mono', Menlo, Consolas, monospace" font-size="9" fill="#1f2933">0a</text>
<rect x="498.0" y="252.0" width="16" height="22" fill="#cfe8d4" stroke="#5fa572" stroke-width="0.8" rx="2" ry="2"/>
<text x="506.0" y="266.0" text-anchor="middle" font-family="'JetBrains Mono', Menlo, Consolas, monospace" font-size="9" fill="#1f2933">01</text>
<rect x="515.0" y="252.0" width="16" height="22" fill="#cfe8d4" stroke="#5fa572" stroke-width="0.8" rx="2" ry="2"/>
<text x="523.0" y="266.0" text-anchor="middle" font-family="'JetBrains Mono', Menlo, Consolas, monospace" font-size="9" fill="#1f2933">41</text>
<rect x="532.0" y="252.0" width="16" height="22" fill="#e4e7eb" stroke="#9aa5b1" stroke-width="0.8" rx="2" ry="2"/>
<text x="540.0" y="266.0" text-anchor="middle" font-family="'JetBrains Mono', Menlo, Consolas, monospace" font-size="9" fill="#1f2933">12</text>
<rect x="549.0" y="252.0" width="16" height="22" fill="#e4e7eb" stroke="#9aa5b1" stroke-width="0.8" rx="2" ry="2"/>
<text x="557.0" y="266.0" text-anchor="middle" font-family="'JetBrains Mono', Menlo, Consolas, monospace" font-size="9" fill="#1f2933">2f</text>
<rect x="566.0" y="252.0" width="16" height="22" fill="#e4e7eb" stroke="#9aa5b1" stroke-width="0.8" rx="2" ry="2"/>
<text x="574.0" y="266.0" text-anchor="middle" font-family="'JetBrains Mono', Menlo, Consolas, monospace" font-size="9" fill="#1f2933">0a</text>
<rect x="583.0" y="252.0" width="16" height="22" fill="#e4e7eb" stroke="#9aa5b1" stroke-width="0.8" rx="2" ry="2"/>
<text x="591.0" y="266.0" text-anchor="middle" font-family="'JetBrains Mono', Menlo, Consolas, monospace" font-size="9" fill="#1f2933">03</text>
<rect x="600.0" y="252.0" width="16" height="22" fill="#dfd3ea" stroke="#9a6fb0" stroke-width="0.8" rx="2" ry="2"/>
<text x="608.0" y="266.0" text-anchor="middle" font-family="'JetBrains Mono', Menlo, Consolas, monospace" font-size="9" fill="#1f2933">0a</text>
<rect x="617.0" y="252.0" width="16" height="22" fill="#dfd3ea" stroke="#9a6fb0" stroke-width="0.8" rx="2" ry="2"/>
<text x="625.0" y="266.0" text-anchor="middle" font-family="'JetBrains Mono', Menlo, Consolas, monospace" font-size="9" fill="#1f2933">01</text>
<rect x="634.0" y="252.0" width="16" height="22" fill="#dfd3ea" stroke="#9a6fb0" stroke-width="0.8" rx="2" ry="2"/>
<text x="642.0" y="266.0" text-anchor="middle" font-family="'JetBrains Mono', Menlo, Consolas, monospace" font-size="9" fill="#1f2933">73</text>
<rect x="651.0" y="252.0" width="16" height="22" fill="#e4e7eb" stroke="#9aa5b1" stroke-width="0.8" rx="2" ry="2"/>
<text x="659.0" y="266.0" text-anchor="middle" font-family="'JetBrains Mono', Menlo, Consolas, monospace" font-size="9" fill="#1f2933">12</text>
<rect x="668.0" y="252.0" width="16" height="22" fill="#e4e7eb" stroke="#9aa5b1" stroke-width="0.8" rx="2" ry="2"/>
<text x="676.0" y="266.0" text-anchor="middle" font-family="'JetBrains Mono', Menlo, Consolas, monospace" font-size="9" fill="#1f2933">12</text>
<rect x="685.0" y="252.0" width="16" height="22" fill="#cfe0f7" stroke="#3f7ad6" stroke-width="0.8" rx="2" ry="2"/>
<text x="693.0" y="266.0" text-anchor="middle" font-family="'JetBrains Mono', Menlo, Consolas, monospace" font-size="9" fill="#1f2933">10</text>
<rect x="702.0" y="252.0" width="16" height="22" fill="#cfe0f7" stroke="#3f7ad6" stroke-width="0.8" rx="2" ry="2"/>
<text x="710.0" y="266.0" text-anchor="middle" font-family="'JetBrains Mono', Menlo, Consolas, monospace" font-size="9" fill="#1f2933">09</text>
<rect x="719.0" y="252.0" width="16" height="22" fill="#cfe0f7" stroke="#3f7ad6" stroke-width="0.8" rx="2" ry="2"/>
<text x="727.0" y="266.0" text-anchor="middle" font-family="'JetBrains Mono', Menlo, Consolas, monospace" font-size="9" fill="#1f2933">2a</text>
<rect x="736.0" y="252.0" width="16" height="22" fill="#cfe0f7" stroke="#3f7ad6" stroke-width="0.8" rx="2" ry="2"/>
<text x="744.0" y="266.0" text-anchor="middle" font-family="'JetBrains Mono', Menlo, Consolas, monospace" font-size="9" fill="#1f2933">04</text>
<rect x="753.0" y="252.0" width="16" height="22" fill="#cfe0f7" stroke="#3f7ad6" stroke-width="0.8" rx="2" ry="2"/>
<text x="761.0" y="266.0" text-anchor="middle" font-family="'JetBrains Mono', Menlo, Consolas, monospace" font-size="9" fill="#1f2933">0a</text>
<rect x="770.0" y="252.0" width="16" height="22" fill="#cfe0f7" stroke="#3f7ad6" stroke-width="0.8" rx="2" ry="2"/>
<text x="778.0" y="266.0" text-anchor="middle" font-family="'JetBrains Mono', Menlo, Consolas, monospace" font-size="9" fill="#1f2933">02</text>
<rect x="787.0" y="252.0" width="16" height="22" fill="#cfe0f7" stroke="#3f7ad6" stroke-width="0.8" rx="2" ry="2"/>
<text x="795.0" y="266.0" text-anchor="middle" font-family="'JetBrains Mono', Menlo, Consolas, monospace" font-size="9" fill="#1f2933">68</text>
<rect x="804.0" y="252.0" width="16" height="22" fill="#cfe0f7" stroke="#3f7ad6" stroke-width="0.8" rx="2" ry="2"/>
<text x="812.0" y="266.0" text-anchor="middle" font-family="'JetBrains Mono', Menlo, Consolas, monospace" font-size="9" fill="#1f2933">69</text>
<rect x="821.0" y="252.0" width="16" height="22" fill="#fbd9b3" stroke="#d97706" stroke-width="0.8" rx="2" ry="2"/>
<text x="829.0" y="266.0" text-anchor="middle" font-family="'JetBrains Mono', Menlo, Consolas, monospace" font-size="9" fill="#1f2933">32</text>
<rect x="838.0" y="252.0" width="16" height="22" fill="#fbd9b3" stroke="#d97706" stroke-width="0.8" rx="2" ry="2"/>
<text x="846.0" y="266.0" text-anchor="middle" font-family="'JetBrains Mono', Menlo, Consolas, monospace" font-size="9" fill="#1f2933">08</text>
<rect x="855.0" y="252.0" width="16" height="22" fill="#fbd9b3" stroke="#d97706" stroke-width="0.8" rx="2" ry="2"/>
<text x="863.0" y="266.0" text-anchor="middle" font-family="'JetBrains Mono', Menlo, Consolas, monospace" font-size="9" fill="#1f2933">0a</text>
<rect x="872.0" y="252.0" width="16" height="22" fill="#fbd9b3" stroke="#d97706" stroke-width="0.8" rx="2" ry="2"/>
<text x="880.0" y="266.0" text-anchor="middle" font-family="'JetBrains Mono', Menlo, Consolas, monospace" font-size="9" fill="#1f2933">01</text>
<rect x="889.0" y="252.0" width="16" height="22" fill="#fbd9b3" stroke="#d97706" stroke-width="0.8" rx="2" ry="2"/>
<text x="897.0" y="266.0" text-anchor="middle" font-family="'JetBrains Mono', Menlo, Consolas, monospace" font-size="9" fill="#1f2933">6b</text>
<rect x="906.0" y="252.0" width="16" height="22" fill="#fbd9b3" stroke="#d97706" stroke-width="0.8" rx="2" ry="2"/>
<text x="914.0" y="266.0" text-anchor="middle" font-family="'JetBrains Mono', Menlo, Consolas, monospace" font-size="9" fill="#1f2933">12</text>
<rect x="923.0" y="252.0" width="16" height="22" fill="#fbd9b3" stroke="#d97706" stroke-width="0.8" rx="2" ry="2"/>
<text x="931.0" y="266.0" text-anchor="middle" font-family="'JetBrains Mono', Menlo, Consolas, monospace" font-size="9" fill="#1f2933">03</text>
<rect x="940.0" y="252.0" width="16" height="22" fill="#fbd9b3" stroke="#d97706" stroke-width="0.8" rx="2" ry="2"/>
<text x="948.0" y="266.0" text-anchor="middle" font-family="'JetBrains Mono', Menlo, Consolas, monospace" font-size="9" fill="#1f2933">0a</text>
<rect x="957.0" y="252.0" width="16" height="22" fill="#fbd9b3" stroke="#d97706" stroke-width="0.8" rx="2" ry="2"/>
<text x="965.0" y="266.0" text-anchor="middle" font-family="'JetBrains Mono', Menlo, Consolas, monospace" font-size="9" fill="#1f2933">01</text>
<rect x="974.0" y="252.0" width="16" height="22" fill="#fbd9b3" stroke="#d97706" stroke-width="0.8" rx="2" ry="2"/>
<text x="982.0" y="266.0" text-anchor="middle" font-family="'JetBrains Mono', Menlo, Consolas, monospace" font-size="9" fill="#1f2933">76</text>
<rect x="991.0" y="252.0" width="16" height="22" fill="#e4e7eb" stroke="#9aa5b1" stroke-width="0.8" rx="2" ry="2"/>
<text x="999.0" y="266.0" text-anchor="middle" font-family="'JetBrains Mono', Menlo, Consolas, monospace" font-size="9" fill="#1f2933">12</text>
<rect x="1008.0" y="252.0" width="16" height="22" fill="#e4e7eb" stroke="#9aa5b1" stroke-width="0.8" rx="2" ry="2"/>
<text x="1016.0" y="266.0" text-anchor="middle" font-family="'JetBrains Mono', Menlo, Consolas, monospace" font-size="9" fill="#1f2933">14</text>
<rect x="1025.0" y="252.0" width="16" height="22" fill="#cfe0f7" stroke="#3f7ad6" stroke-width="0.8" rx="2" ry="2"/>
<text x="1033.0" y="266.0" text-anchor="middle" font-family="'JetBrains Mono', Menlo, Consolas, monospace" font-size="9" fill="#1f2933">10</text>
<rect x="1042.0" y="252.0" width="16" height="22" fill="#cfe0f7" stroke="#3f7ad6" stroke-width="0.8" rx="2" ry="2"/>
<text x="1050.0" y="266.0" text-anchor="middle" font-family="'JetBrains Mono', Menlo, Consolas, monospace" font-size="9" fill="#1f2933">0d</text>
<rect x="1059.0" y="252.0" width="16" height="22" fill="#cfe0f7" stroke="#3f7ad6" stroke-width="0.8" rx="2" ry="2"/>
<text x="1067.0" y="266.0" text-anchor="middle" font-family="'JetBrains Mono', Menlo, Consolas, monospace" font-size="9" fill="#1f2933">2a</text>
<rect x="1076.0" y="252.0" width="16" height="22" fill="#cfe0f7" stroke="#3f7ad6" stroke-width="0.8" rx="2" ry="2"/>
<text x="1084.0" y="266.0" text-anchor="middle" font-family="'JetBrains Mono', Menlo, Consolas, monospace" font-size="9" fill="#1f2933">06</text>
<rect x="1093.0" y="252.0" width="16" height="22" fill="#cfe0f7" stroke="#3f7ad6" stroke-width="0.8" rx="2" ry="2"/>
<text x="1101.0" y="266.0" text-anchor="middle" font-family="'JetBrains Mono', Menlo, Consolas, monospace" font-size="9" fill="#1f2933">0a</text>
<rect x="1110.0" y="252.0" width="16" height="22" fill="#cfe0f7" stroke="#3f7ad6" stroke-width="0.8" rx="2" ry="2"/>
<text x="1118.0" y="266.0" text-anchor="middle" font-family="'JetBrains Mono', Menlo, Consolas, monospace" font-size="9" fill="#1f2933">04</text>
<rect x="1127.0" y="252.0" width="16" height="22" fill="#cfe0f7" stroke="#3f7ad6" stroke-width="0.8" rx="2" ry="2"/>
<text x="1135.0" y="266.0" text-anchor="middle" font-family="'JetBrains Mono', Menlo, Consolas, monospace" font-size="9" fill="#1f2933">6f</text>
<rect x="1144.0" y="252.0" width="16" height="22" fill="#cfe0f7" stroke="#3f7ad6" stroke-width="0.8" rx="2" ry="2"/>
<text x="1152.0" y="266.0" text-anchor="middle" font-family="'JetBrains Mono', Menlo, Consolas, monospace" font-size="9" fill="#1f2933">6f</text>
<rect x="1161.0" y="252.0" width="16" height="22" fill="#cfe0f7" stroke="#3f7ad6" stroke-width="0.8" rx="2" ry="2"/>
<text x="1169.0" y="266.0" text-anchor="middle" font-family="'JetBrains Mono', Menlo, Consolas, monospace" font-size="9" fill="#1f2933">70</text>
<rect x="1178.0" y="252.0" width="16" height="22" fill="#cfe0f7" stroke="#3f7ad6" stroke-width="0.8" rx="2" ry="2"/>
<text x="1186.0" y="266.0" text-anchor="middle" font-family="'JetBrains Mono', Menlo, Consolas, monospace" font-size="9" fill="#1f2933">73</text>
<rect x="1195.0" y="252.0" width="16" height="22" fill="#fbd9b3" stroke="#d97706" stroke-width="0.8" rx="2" ry="2"/>
<text x="1203.0" y="266.0" text-anchor="middle" font-family="'JetBrains Mono', Menlo, Consolas, monospace" font-size="9" fill="#1f2933">32</text>
<rect x="1212.0" y="252.0" width="16" height="22" fill="#fbd9b3" stroke="#d97706" stroke-width="0.8" rx="2" ry="2"/>
<text x="1220.0" y="266.0" text-anchor="middle" font-family="'JetBrains Mono', Menlo, Consolas, monospace" font-size="9" fill="#1f2933">08</text>
<rect x="1229.0" y="252.0" width="16" height="22" fill="#fbd9b3" stroke="#d97706" stroke-width="0.8" rx="2" ry="2"/>
<text x="1237.0" y="266.0" text-anchor="middle" font-family="'JetBrains Mono', Menlo, Consolas, monospace" font-size="9" fill="#1f2933">0a</text>
<rect x="1246.0" y="252.0" width="16" height="22" fill="#fbd9b3" stroke="#d97706" stroke-width="0.8" rx="2" ry="2"/>
<text x="1254.0" y="266.0" text-anchor="middle" font-family="'JetBrains Mono', Menlo, Consolas, monospace" font-size="9" fill="#1f2933">01</text>
<rect x="1263.0" y="252.0" width="16" height="22" fill="#fbd9b3" stroke="#d97706" stroke-width="0.8" rx="2" ry="2"/>
<text x="1271.0" y="266.0" text-anchor="middle" font-family="'JetBrains Mono', Menlo, Consolas, monospace" font-size="9" fill="#1f2933">6e</text>
<rect x="1280.0" y="252.0" width="16" height="22" fill="#fbd9b3" stroke="#d97706" stroke-width="0.8" rx="2" ry="2"/>
<text x="1288.0" y="266.0" text-anchor="middle" font-family="'JetBrains Mono', Menlo, Consolas, monospace" font-size="9" fill="#1f2933">12</text>
<rect x="1297.0" y="252.0" width="16" height="22" fill="#fbd9b3" stroke="#d97706" stroke-width="0.8" rx="2" ry="2"/>
<text x="1305.0" y="266.0" text-anchor="middle" font-family="'JetBrains Mono', Menlo, Consolas, monospace" font-size="9" fill="#1f2933">03</text>
<rect x="1314.0" y="252.0" width="16" height="22" fill="#fbd9b3" stroke="#d97706" stroke-width="0.8" rx="2" ry="2"/>
<text x="1322.0" y="266.0" text-anchor="middle" font-family="'JetBrains Mono', Menlo, Consolas, monospace" font-size="9" fill="#1f2933">0a</text>
<rect x="1331.0" y="252.0" width="16" height="22" fill="#fbd9b3" stroke="#d97706" stroke-width="0.8" rx="2" ry="2"/>
<text x="1339.0" y="266.0" text-anchor="middle" font-family="'JetBrains Mono', Menlo, Consolas, monospace" font-size="9" fill="#1f2933">01</text>
<rect x="1348.0" y="252.0" width="16" height="22" fill="#fbd9b3" stroke="#d97706" stroke-width="0.8" rx="2" ry="2"/>
<text x="1356.0" y="266.0" text-anchor="middle" font-family="'JetBrains Mono', Menlo, Consolas, monospace" font-size="9" fill="#1f2933">32</text>
<path d="M329.0 242.0 L329.0 238.0 L530.0 238.0 L530.0 242.0" fill="none" stroke="#3e4c59" stroke-width="1.2" stroke-linecap="round"/>
<text x="429.5" y="232.0" text-anchor="middle" font-family="Inter, 'Helvetica Neue', Arial, sans-serif" font-size="10" fill="#3e4c59">resource attrs</text>
<path d="M295.0 206.0 L295.0 200.0 L530.0 200.0 L530.0 206.0" fill="none" stroke="#3e4c59" stroke-width="1.4" stroke-linecap="round"/>
<text x="412.5" y="194.0" text-anchor="middle" font-family="Inter, 'Helvetica Neue', Arial, sans-serif" font-size="11" fill="#3e4c59">Resource</text>
<path d="M601.0 242.0 L601.0 238.0 L649.0 238.0 L649.0 242.0" fill="none" stroke="#3e4c59" stroke-width="1.2" stroke-linecap="round"/>
<text x="625.0" y="232.0" text-anchor="middle" font-family="Inter, 'Helvetica Neue', Arial, sans-serif" font-size="10" fill="#3e4c59">scope name</text>
<path d="M567.0 206.0 L567.0 200.0 L649.0 200.0 L649.0 206.0" fill="none" stroke="#3e4c59" stroke-width="1.4" stroke-linecap="round"/>
<text x="608.0" y="194.0" text-anchor="middle" font-family="Inter, 'Helvetica Neue', Arial, sans-serif" font-size="11" fill="#3e4c59">Scope</text>
<path d="M686.0 242.0 L686.0 238.0 L819.0 238.0 L819.0 242.0" fill="none" stroke="#3e4c59" stroke-width="1.2" stroke-linecap="round"/>
<text x="752.5" y="232.0" text-anchor="middle" font-family="Inter, 'Helvetica Neue', Arial, sans-serif" font-size="10" fill="#3e4c59">log fields</text>
<path d="M822.0 242.0 L822.0 238.0 L989.0 238.0 L989.0 242.0" fill="none" stroke="#3e4c59" stroke-width="1.2" stroke-linecap="round"/>
<text x="905.5" y="232.0" text-anchor="middle" font-family="Inter, 'Helvetica Neue', Arial, sans-serif" font-size="10" fill="#3e4c59">log attrs</text>
<path d="M652.0 206.0 L652.0 200.0 L989.0 200.0 L989.0 206.0" fill="none" stroke="#3e4c59" stroke-width="1.4" stroke-linecap="round"/>
<text x="820.5" y="194.0" text-anchor="middle" font-family="Inter, 'Helvetica Neue', Arial, sans-serif" font-size="11" fill="#3e4c59">LogRecord</text>
<path d="M1026.0 242.0 L1026.0 238.0 L1193.0 238.0 L1193.0 242.0" fill="none" stroke="#3e4c59" stroke-width="1.2" stroke-linecap="round"/>
<text x="1109.5" y="232.0" text-anchor="middle" font-family="Inter, 'Helvetica Neue', Arial, sans-serif" font-size="10" fill="#3e4c59">log fields</text>
<path d="M1196.0 242.0 L1196.0 238.0 L1363.0 238.0 L1363.0 242.0" fill="none" stroke="#3e4c59" stroke-width="1.2" stroke-linecap="round"/>
<text x="1279.5" y="232.0" text-anchor="middle" font-family="Inter, 'Helvetica Neue', Arial, sans-serif" font-size="10" fill="#3e4c59">log attrs</text>
<path d="M992.0 206.0 L992.0 200.0 L1363.0 200.0 L1363.0 206.0" fill="none" stroke="#3e4c59" stroke-width="1.4" stroke-linecap="round"/>
<text x="1177.5" y="194.0" text-anchor="middle" font-family="Inter, 'Helvetica Neue', Arial, sans-serif" font-size="11" fill="#3e4c59">LogRecord</text>
<path d="M533.0 175.0 L533.0 168.0 L1363.0 168.0 L1363.0 175.0" fill="none" stroke="#3e4c59" stroke-width="1.5" stroke-linecap="round"/>
<text x="948.0" y="162.0" text-anchor="middle" font-family="Inter, 'Helvetica Neue', Arial, sans-serif" font-size="12" fill="#3e4c59">ScopeLogs</text>
<path d="M261.0 144.0 L261.0 136.0 L1363.0 136.0 L1363.0 144.0" fill="none" stroke="#3e4c59" stroke-width="1.5999999999999999" stroke-linecap="round"/>
<text x="812.0" y="130.0" text-anchor="middle" font-family="Inter, 'Helvetica Neue', Arial, sans-serif" font-size="13" fill="#3e4c59">ResourceLogs</text>
<g font-family="Inter, 'Helvetica Neue', Arial, sans-serif" fill="#1f2933">
<text x="60" y="520" font-size="20" font-weight="700">Batch B</text>
<text x="60" y="540" font-size="11" fill="#52606d">74 bytes on the wire</text>
</g>
<rect x="260.0" y="516.0" width="16" height="22" fill="#e4e7eb" stroke="#9aa5b1" stroke-width="0.8" rx="2" ry="2"/>
<text x="268.0" y="530.0" text-anchor="middle" font-family="'JetBrains Mono', Menlo, Consolas, monospace" font-size="9" fill="#1f2933">0a</text>
<rect x="277.0" y="516.0" width="16" height="22" fill="#e4e7eb" stroke="#9aa5b1" stroke-width="0.8" rx="2" ry="2"/>
<text x="285.0" y="530.0" text-anchor="middle" font-family="'JetBrains Mono', Menlo, Consolas, monospace" font-size="9" fill="#1f2933">48</text>
<rect x="294.0" y="516.0" width="16" height="22" fill="#e4e7eb" stroke="#9aa5b1" stroke-width="0.8" rx="2" ry="2"/>
<text x="302.0" y="530.0" text-anchor="middle" font-family="'JetBrains Mono', Menlo, Consolas, monospace" font-size="9" fill="#1f2933">0a</text>
<rect x="311.0" y="516.0" width="16" height="22" fill="#e4e7eb" stroke="#9aa5b1" stroke-width="0.8" rx="2" ry="2"/>
<text x="319.0" y="530.0" text-anchor="middle" font-family="'JetBrains Mono', Menlo, Consolas, monospace" font-size="9" fill="#1f2933">0c</text>
<rect x="328.0" y="516.0" width="16" height="22" fill="#cfe8d4" stroke="#5fa572" stroke-width="0.8" rx="2" ry="2"/>
<text x="336.0" y="530.0" text-anchor="middle" font-family="'JetBrains Mono', Menlo, Consolas, monospace" font-size="9" fill="#1f2933">0a</text>
<rect x="345.0" y="516.0" width="16" height="22" fill="#cfe8d4" stroke="#5fa572" stroke-width="0.8" rx="2" ry="2"/>
<text x="353.0" y="530.0" text-anchor="middle" font-family="'JetBrains Mono', Menlo, Consolas, monospace" font-size="9" fill="#1f2933">0a</text>
<rect x="362.0" y="516.0" width="16" height="22" fill="#cfe8d4" stroke="#5fa572" stroke-width="0.8" rx="2" ry="2"/>
<text x="370.0" y="530.0" text-anchor="middle" font-family="'JetBrains Mono', Menlo, Consolas, monospace" font-size="9" fill="#1f2933">0a</text>
<rect x="379.0" y="516.0" width="16" height="22" fill="#cfe8d4" stroke="#5fa572" stroke-width="0.8" rx="2" ry="2"/>
<text x="387.0" y="530.0" text-anchor="middle" font-family="'JetBrains Mono', Menlo, Consolas, monospace" font-size="9" fill="#1f2933">03</text>
<rect x="396.0" y="516.0" width="16" height="22" fill="#cfe8d4" stroke="#5fa572" stroke-width="0.8" rx="2" ry="2"/>
<text x="404.0" y="530.0" text-anchor="middle" font-family="'JetBrains Mono', Menlo, Consolas, monospace" font-size="9" fill="#1f2933">73</text>
<rect x="413.0" y="516.0" width="16" height="22" fill="#cfe8d4" stroke="#5fa572" stroke-width="0.8" rx="2" ry="2"/>
<text x="421.0" y="530.0" text-anchor="middle" font-family="'JetBrains Mono', Menlo, Consolas, monospace" font-size="9" fill="#1f2933">76</text>
<rect x="430.0" y="516.0" width="16" height="22" fill="#cfe8d4" stroke="#5fa572" stroke-width="0.8" rx="2" ry="2"/>
<text x="438.0" y="530.0" text-anchor="middle" font-family="'JetBrains Mono', Menlo, Consolas, monospace" font-size="9" fill="#1f2933">63</text>
<rect x="447.0" y="516.0" width="16" height="22" fill="#cfe8d4" stroke="#5fa572" stroke-width="0.8" rx="2" ry="2"/>
<text x="455.0" y="530.0" text-anchor="middle" font-family="'JetBrains Mono', Menlo, Consolas, monospace" font-size="9" fill="#1f2933">12</text>
<rect x="464.0" y="516.0" width="16" height="22" fill="#cfe8d4" stroke="#5fa572" stroke-width="0.8" rx="2" ry="2"/>
<text x="472.0" y="530.0" text-anchor="middle" font-family="'JetBrains Mono', Menlo, Consolas, monospace" font-size="9" fill="#1f2933">03</text>
<rect x="481.0" y="516.0" width="16" height="22" fill="#cfe8d4" stroke="#5fa572" stroke-width="0.8" rx="2" ry="2"/>
<text x="489.0" y="530.0" text-anchor="middle" font-family="'JetBrains Mono', Menlo, Consolas, monospace" font-size="9" fill="#1f2933">0a</text>
<rect x="498.0" y="516.0" width="16" height="22" fill="#cfe8d4" stroke="#5fa572" stroke-width="0.8" rx="2" ry="2"/>
<text x="506.0" y="530.0" text-anchor="middle" font-family="'JetBrains Mono', Menlo, Consolas, monospace" font-size="9" fill="#1f2933">01</text>
<rect x="515.0" y="516.0" width="16" height="22" fill="#cfe8d4" stroke="#5fa572" stroke-width="0.8" rx="2" ry="2"/>
<text x="523.0" y="530.0" text-anchor="middle" font-family="'JetBrains Mono', Menlo, Consolas, monospace" font-size="9" fill="#1f2933">42</text>
<rect x="532.0" y="516.0" width="16" height="22" fill="#e4e7eb" stroke="#9aa5b1" stroke-width="0.8" rx="2" ry="2"/>
<text x="540.0" y="530.0" text-anchor="middle" font-family="'JetBrains Mono', Menlo, Consolas, monospace" font-size="9" fill="#1f2933">12</text>
<rect x="549.0" y="516.0" width="16" height="22" fill="#e4e7eb" stroke="#9aa5b1" stroke-width="0.8" rx="2" ry="2"/>
<text x="557.0" y="530.0" text-anchor="middle" font-family="'JetBrains Mono', Menlo, Consolas, monospace" font-size="9" fill="#1f2933">38</text>
<rect x="566.0" y="516.0" width="16" height="22" fill="#e4e7eb" stroke="#9aa5b1" stroke-width="0.8" rx="2" ry="2"/>
<text x="574.0" y="530.0" text-anchor="middle" font-family="'JetBrains Mono', Menlo, Consolas, monospace" font-size="9" fill="#1f2933">0a</text>
<rect x="583.0" y="516.0" width="16" height="22" fill="#e4e7eb" stroke="#9aa5b1" stroke-width="0.8" rx="2" ry="2"/>
<text x="591.0" y="530.0" text-anchor="middle" font-family="'JetBrains Mono', Menlo, Consolas, monospace" font-size="9" fill="#1f2933">0d</text>
<rect x="600.0" y="516.0" width="16" height="22" fill="#dfd3ea" stroke="#9a6fb0" stroke-width="0.8" rx="2" ry="2"/>
<text x="608.0" y="530.0" text-anchor="middle" font-family="'JetBrains Mono', Menlo, Consolas, monospace" font-size="9" fill="#1f2933">0a</text>
<rect x="617.0" y="516.0" width="16" height="22" fill="#dfd3ea" stroke="#9a6fb0" stroke-width="0.8" rx="2" ry="2"/>
<text x="625.0" y="530.0" text-anchor="middle" font-family="'JetBrains Mono', Menlo, Consolas, monospace" font-size="9" fill="#1f2933">01</text>
<rect x="634.0" y="516.0" width="16" height="22" fill="#dfd3ea" stroke="#9a6fb0" stroke-width="0.8" rx="2" ry="2"/>
<text x="642.0" y="530.0" text-anchor="middle" font-family="'JetBrains Mono', Menlo, Consolas, monospace" font-size="9" fill="#1f2933">73</text>
<rect x="651.0" y="516.0" width="16" height="22" fill="#c9b6dd" stroke="#7d4fa0" stroke-width="0.8" rx="2" ry="2"/>
<text x="659.0" y="530.0" text-anchor="middle" font-family="'JetBrains Mono', Menlo, Consolas, monospace" font-size="9" fill="#1f2933">1a</text>
<rect x="668.0" y="516.0" width="16" height="22" fill="#c9b6dd" stroke="#7d4fa0" stroke-width="0.8" rx="2" ry="2"/>
<text x="676.0" y="530.0" text-anchor="middle" font-family="'JetBrains Mono', Menlo, Consolas, monospace" font-size="9" fill="#1f2933">08</text>
<rect x="685.0" y="516.0" width="16" height="22" fill="#c9b6dd" stroke="#7d4fa0" stroke-width="0.8" rx="2" ry="2"/>
<text x="693.0" y="530.0" text-anchor="middle" font-family="'JetBrains Mono', Menlo, Consolas, monospace" font-size="9" fill="#1f2933">0a</text>
<rect x="702.0" y="516.0" width="16" height="22" fill="#c9b6dd" stroke="#7d4fa0" stroke-width="0.8" rx="2" ry="2"/>
<text x="710.0" y="530.0" text-anchor="middle" font-family="'JetBrains Mono', Menlo, Consolas, monospace" font-size="9" fill="#1f2933">01</text>
<rect x="719.0" y="516.0" width="16" height="22" fill="#c9b6dd" stroke="#7d4fa0" stroke-width="0.8" rx="2" ry="2"/>
<text x="727.0" y="530.0" text-anchor="middle" font-family="'JetBrains Mono', Menlo, Consolas, monospace" font-size="9" fill="#1f2933">76</text>
<rect x="736.0" y="516.0" width="16" height="22" fill="#c9b6dd" stroke="#7d4fa0" stroke-width="0.8" rx="2" ry="2"/>
<text x="744.0" y="530.0" text-anchor="middle" font-family="'JetBrains Mono', Menlo, Consolas, monospace" font-size="9" fill="#1f2933">12</text>
<rect x="753.0" y="516.0" width="16" height="22" fill="#c9b6dd" stroke="#7d4fa0" stroke-width="0.8" rx="2" ry="2"/>
<text x="761.0" y="530.0" text-anchor="middle" font-family="'JetBrains Mono', Menlo, Consolas, monospace" font-size="9" fill="#1f2933">03</text>
<rect x="770.0" y="516.0" width="16" height="22" fill="#c9b6dd" stroke="#7d4fa0" stroke-width="0.8" rx="2" ry="2"/>
<text x="778.0" y="530.0" text-anchor="middle" font-family="'JetBrains Mono', Menlo, Consolas, monospace" font-size="9" fill="#1f2933">0a</text>
<rect x="787.0" y="516.0" width="16" height="22" fill="#c9b6dd" stroke="#7d4fa0" stroke-width="0.8" rx="2" ry="2"/>
<text x="795.0" y="530.0" text-anchor="middle" font-family="'JetBrains Mono', Menlo, Consolas, monospace" font-size="9" fill="#1f2933">01</text>
<rect x="804.0" y="516.0" width="16" height="22" fill="#c9b6dd" stroke="#7d4fa0" stroke-width="0.8" rx="2" ry="2"/>
<text x="812.0" y="530.0" text-anchor="middle" font-family="'JetBrains Mono', Menlo, Consolas, monospace" font-size="9" fill="#1f2933">31</text>
<rect x="821.0" y="516.0" width="16" height="22" fill="#e4e7eb" stroke="#9aa5b1" stroke-width="0.8" rx="2" ry="2"/>
<text x="829.0" y="530.0" text-anchor="middle" font-family="'JetBrains Mono', Menlo, Consolas, monospace" font-size="9" fill="#1f2933">12</text>
<rect x="838.0" y="516.0" width="16" height="22" fill="#e4e7eb" stroke="#9aa5b1" stroke-width="0.8" rx="2" ry="2"/>
<text x="846.0" y="530.0" text-anchor="middle" font-family="'JetBrains Mono', Menlo, Consolas, monospace" font-size="9" fill="#1f2933">27</text>
<rect x="855.0" y="516.0" width="16" height="22" fill="#cfe0f7" stroke="#3f7ad6" stroke-width="0.8" rx="2" ry="2"/>
<text x="863.0" y="530.0" text-anchor="middle" font-family="'JetBrains Mono', Menlo, Consolas, monospace" font-size="9" fill="#1f2933">10</text>
<rect x="872.0" y="516.0" width="16" height="22" fill="#cfe0f7" stroke="#3f7ad6" stroke-width="0.8" rx="2" ry="2"/>
<text x="880.0" y="530.0" text-anchor="middle" font-family="'JetBrains Mono', Menlo, Consolas, monospace" font-size="9" fill="#1f2933">11</text>
<rect x="889.0" y="516.0" width="16" height="22" fill="#cfe0f7" stroke="#3f7ad6" stroke-width="0.8" rx="2" ry="2"/>
<text x="897.0" y="530.0" text-anchor="middle" font-family="'JetBrains Mono', Menlo, Consolas, monospace" font-size="9" fill="#1f2933">2a</text>
<rect x="906.0" y="516.0" width="16" height="22" fill="#cfe0f7" stroke="#3f7ad6" stroke-width="0.8" rx="2" ry="2"/>
<text x="914.0" y="530.0" text-anchor="middle" font-family="'JetBrains Mono', Menlo, Consolas, monospace" font-size="9" fill="#1f2933">07</text>
<rect x="923.0" y="516.0" width="16" height="22" fill="#cfe0f7" stroke="#3f7ad6" stroke-width="0.8" rx="2" ry="2"/>
<text x="931.0" y="530.0" text-anchor="middle" font-family="'JetBrains Mono', Menlo, Consolas, monospace" font-size="9" fill="#1f2933">0a</text>
<rect x="940.0" y="516.0" width="16" height="22" fill="#cfe0f7" stroke="#3f7ad6" stroke-width="0.8" rx="2" ry="2"/>
<text x="948.0" y="530.0" text-anchor="middle" font-family="'JetBrains Mono', Menlo, Consolas, monospace" font-size="9" fill="#1f2933">05</text>
<rect x="957.0" y="516.0" width="16" height="22" fill="#cfe0f7" stroke="#3f7ad6" stroke-width="0.8" rx="2" ry="2"/>
<text x="965.0" y="530.0" text-anchor="middle" font-family="'JetBrains Mono', Menlo, Consolas, monospace" font-size="9" fill="#1f2933">6f</text>
<rect x="974.0" y="516.0" width="16" height="22" fill="#cfe0f7" stroke="#3f7ad6" stroke-width="0.8" rx="2" ry="2"/>
<text x="982.0" y="530.0" text-anchor="middle" font-family="'JetBrains Mono', Menlo, Consolas, monospace" font-size="9" fill="#1f2933">68</text>
<rect x="991.0" y="516.0" width="16" height="22" fill="#cfe0f7" stroke="#3f7ad6" stroke-width="0.8" rx="2" ry="2"/>
<text x="999.0" y="530.0" text-anchor="middle" font-family="'JetBrains Mono', Menlo, Consolas, monospace" font-size="9" fill="#1f2933">20</text>
<rect x="1008.0" y="516.0" width="16" height="22" fill="#cfe0f7" stroke="#3f7ad6" stroke-width="0.8" rx="2" ry="2"/>
<text x="1016.0" y="530.0" text-anchor="middle" font-family="'JetBrains Mono', Menlo, Consolas, monospace" font-size="9" fill="#1f2933">6e</text>
<rect x="1025.0" y="516.0" width="16" height="22" fill="#cfe0f7" stroke="#3f7ad6" stroke-width="0.8" rx="2" ry="2"/>
<text x="1033.0" y="530.0" text-anchor="middle" font-family="'JetBrains Mono', Menlo, Consolas, monospace" font-size="9" fill="#1f2933">6f</text>
<rect x="1042.0" y="516.0" width="16" height="22" fill="#fbd9b3" stroke="#d97706" stroke-width="0.8" rx="2" ry="2"/>
<text x="1050.0" y="530.0" text-anchor="middle" font-family="'JetBrains Mono', Menlo, Consolas, monospace" font-size="9" fill="#1f2933">32</text>
<rect x="1059.0" y="516.0" width="16" height="22" fill="#fbd9b3" stroke="#d97706" stroke-width="0.8" rx="2" ry="2"/>
<text x="1067.0" y="530.0" text-anchor="middle" font-family="'JetBrains Mono', Menlo, Consolas, monospace" font-size="9" fill="#1f2933">0d</text>
<rect x="1076.0" y="516.0" width="16" height="22" fill="#fbd9b3" stroke="#d97706" stroke-width="0.8" rx="2" ry="2"/>
<text x="1084.0" y="530.0" text-anchor="middle" font-family="'JetBrains Mono', Menlo, Consolas, monospace" font-size="9" fill="#1f2933">0a</text>
<rect x="1093.0" y="516.0" width="16" height="22" fill="#fbd9b3" stroke="#d97706" stroke-width="0.8" rx="2" ry="2"/>
<text x="1101.0" y="530.0" text-anchor="middle" font-family="'JetBrains Mono', Menlo, Consolas, monospace" font-size="9" fill="#1f2933">04</text>
<rect x="1110.0" y="516.0" width="16" height="22" fill="#fbd9b3" stroke="#d97706" stroke-width="0.8" rx="2" ry="2"/>
<text x="1118.0" y="530.0" text-anchor="middle" font-family="'JetBrains Mono', Menlo, Consolas, monospace" font-size="9" fill="#1f2933">75</text>
<rect x="1127.0" y="516.0" width="16" height="22" fill="#fbd9b3" stroke="#d97706" stroke-width="0.8" rx="2" ry="2"/>
<text x="1135.0" y="530.0" text-anchor="middle" font-family="'JetBrains Mono', Menlo, Consolas, monospace" font-size="9" fill="#1f2933">73</text>
<rect x="1144.0" y="516.0" width="16" height="22" fill="#fbd9b3" stroke="#d97706" stroke-width="0.8" rx="2" ry="2"/>
<text x="1152.0" y="530.0" text-anchor="middle" font-family="'JetBrains Mono', Menlo, Consolas, monospace" font-size="9" fill="#1f2933">65</text>
<rect x="1161.0" y="516.0" width="16" height="22" fill="#fbd9b3" stroke="#d97706" stroke-width="0.8" rx="2" ry="2"/>
<text x="1169.0" y="530.0" text-anchor="middle" font-family="'JetBrains Mono', Menlo, Consolas, monospace" font-size="9" fill="#1f2933">72</text>
<rect x="1178.0" y="516.0" width="16" height="22" fill="#fbd9b3" stroke="#d97706" stroke-width="0.8" rx="2" ry="2"/>
<text x="1186.0" y="530.0" text-anchor="middle" font-family="'JetBrains Mono', Menlo, Consolas, monospace" font-size="9" fill="#1f2933">12</text>
<rect x="1195.0" y="516.0" width="16" height="22" fill="#fbd9b3" stroke="#d97706" stroke-width="0.8" rx="2" ry="2"/>
<text x="1203.0" y="530.0" text-anchor="middle" font-family="'JetBrains Mono', Menlo, Consolas, monospace" font-size="9" fill="#1f2933">05</text>
<rect x="1212.0" y="516.0" width="16" height="22" fill="#fbd9b3" stroke="#d97706" stroke-width="0.8" rx="2" ry="2"/>
<text x="1220.0" y="530.0" text-anchor="middle" font-family="'JetBrains Mono', Menlo, Consolas, monospace" font-size="9" fill="#1f2933">0a</text>
<rect x="1229.0" y="516.0" width="16" height="22" fill="#fbd9b3" stroke="#d97706" stroke-width="0.8" rx="2" ry="2"/>
<text x="1237.0" y="530.0" text-anchor="middle" font-family="'JetBrains Mono', Menlo, Consolas, monospace" font-size="9" fill="#1f2933">03</text>
<rect x="1246.0" y="516.0" width="16" height="22" fill="#fbd9b3" stroke="#d97706" stroke-width="0.8" rx="2" ry="2"/>
<text x="1254.0" y="530.0" text-anchor="middle" font-family="'JetBrains Mono', Menlo, Consolas, monospace" font-size="9" fill="#1f2933">62</text>
<rect x="1263.0" y="516.0" width="16" height="22" fill="#fbd9b3" stroke="#d97706" stroke-width="0.8" rx="2" ry="2"/>
<text x="1271.0" y="530.0" text-anchor="middle" font-family="'JetBrains Mono', Menlo, Consolas, monospace" font-size="9" fill="#1f2933">6f</text>
<rect x="1280.0" y="516.0" width="16" height="22" fill="#fbd9b3" stroke="#d97706" stroke-width="0.8" rx="2" ry="2"/>
<text x="1288.0" y="530.0" text-anchor="middle" font-family="'JetBrains Mono', Menlo, Consolas, monospace" font-size="9" fill="#1f2933">62</text>
<rect x="1297.0" y="516.0" width="16" height="22" fill="#fbd9b3" stroke="#d97706" stroke-width="0.8" rx="2" ry="2"/>
<text x="1305.0" y="530.0" text-anchor="middle" font-family="'JetBrains Mono', Menlo, Consolas, monospace" font-size="9" fill="#1f2933">32</text>
<rect x="1314.0" y="516.0" width="16" height="22" fill="#fbd9b3" stroke="#d97706" stroke-width="0.8" rx="2" ry="2"/>
<text x="1322.0" y="530.0" text-anchor="middle" font-family="'JetBrains Mono', Menlo, Consolas, monospace" font-size="9" fill="#1f2933">0b</text>
<rect x="1331.0" y="516.0" width="16" height="22" fill="#fbd9b3" stroke="#d97706" stroke-width="0.8" rx="2" ry="2"/>
<text x="1339.0" y="530.0" text-anchor="middle" font-family="'JetBrains Mono', Menlo, Consolas, monospace" font-size="9" fill="#1f2933">0a</text>
<rect x="1348.0" y="516.0" width="16" height="22" fill="#fbd9b3" stroke="#d97706" stroke-width="0.8" rx="2" ry="2"/>
<text x="1356.0" y="530.0" text-anchor="middle" font-family="'JetBrains Mono', Menlo, Consolas, monospace" font-size="9" fill="#1f2933">03</text>
<rect x="1365.0" y="516.0" width="16" height="22" fill="#fbd9b3" stroke="#d97706" stroke-width="0.8" rx="2" ry="2"/>
<text x="1373.0" y="530.0" text-anchor="middle" font-family="'JetBrains Mono', Menlo, Consolas, monospace" font-size="9" fill="#1f2933">65</text>
<rect x="1382.0" y="516.0" width="16" height="22" fill="#fbd9b3" stroke="#d97706" stroke-width="0.8" rx="2" ry="2"/>
<text x="1390.0" y="530.0" text-anchor="middle" font-family="'JetBrains Mono', Menlo, Consolas, monospace" font-size="9" fill="#1f2933">72</text>
<rect x="1399.0" y="516.0" width="16" height="22" fill="#fbd9b3" stroke="#d97706" stroke-width="0.8" rx="2" ry="2"/>
<text x="1407.0" y="530.0" text-anchor="middle" font-family="'JetBrains Mono', Menlo, Consolas, monospace" font-size="9" fill="#1f2933">72</text>
<rect x="1416.0" y="516.0" width="16" height="22" fill="#fbd9b3" stroke="#d97706" stroke-width="0.8" rx="2" ry="2"/>
<text x="1424.0" y="530.0" text-anchor="middle" font-family="'JetBrains Mono', Menlo, Consolas, monospace" font-size="9" fill="#1f2933">12</text>
<rect x="1433.0" y="516.0" width="16" height="22" fill="#fbd9b3" stroke="#d97706" stroke-width="0.8" rx="2" ry="2"/>
<text x="1441.0" y="530.0" text-anchor="middle" font-family="'JetBrains Mono', Menlo, Consolas, monospace" font-size="9" fill="#1f2933">04</text>
<rect x="1450.0" y="516.0" width="16" height="22" fill="#fbd9b3" stroke="#d97706" stroke-width="0.8" rx="2" ry="2"/>
<text x="1458.0" y="530.0" text-anchor="middle" font-family="'JetBrains Mono', Menlo, Consolas, monospace" font-size="9" fill="#1f2933">0a</text>
<rect x="1467.0" y="516.0" width="16" height="22" fill="#fbd9b3" stroke="#d97706" stroke-width="0.8" rx="2" ry="2"/>
<text x="1475.0" y="530.0" text-anchor="middle" font-family="'JetBrains Mono', Menlo, Consolas, monospace" font-size="9" fill="#1f2933">02</text>
<rect x="1484.0" y="516.0" width="16" height="22" fill="#fbd9b3" stroke="#d97706" stroke-width="0.8" rx="2" ry="2"/>
<text x="1492.0" y="530.0" text-anchor="middle" font-family="'JetBrains Mono', Menlo, Consolas, monospace" font-size="9" fill="#1f2933">69</text>
<rect x="1501.0" y="516.0" width="16" height="22" fill="#fbd9b3" stroke="#d97706" stroke-width="0.8" rx="2" ry="2"/>
<text x="1509.0" y="530.0" text-anchor="middle" font-family="'JetBrains Mono', Menlo, Consolas, monospace" font-size="9" fill="#1f2933">6f</text>
<path d="M329.0 506.0 L329.0 502.0 L530.0 502.0 L530.0 506.0" fill="none" stroke="#3e4c59" stroke-width="1.2" stroke-linecap="round"/>
<text x="429.5" y="496.0" text-anchor="middle" font-family="Inter, 'Helvetica Neue', Arial, sans-serif" font-size="10" fill="#3e4c59">resource attrs</text>
<path d="M295.0 470.0 L295.0 464.0 L530.0 464.0 L530.0 470.0" fill="none" stroke="#3e4c59" stroke-width="1.4" stroke-linecap="round"/>
<text x="412.5" y="458.0" text-anchor="middle" font-family="Inter, 'Helvetica Neue', Arial, sans-serif" font-size="11" fill="#3e4c59">Resource</text>
<path d="M601.0 506.0 L601.0 502.0 L649.0 502.0 L649.0 506.0" fill="none" stroke="#3e4c59" stroke-width="1.2" stroke-linecap="round"/>
<text x="625.0" y="496.0" text-anchor="middle" font-family="Inter, 'Helvetica Neue', Arial, sans-serif" font-size="10" fill="#3e4c59">scope name</text>
<path d="M652.0 506.0 L652.0 502.0 L819.0 502.0 L819.0 506.0" fill="none" stroke="#3e4c59" stroke-width="1.2" stroke-linecap="round"/>
<text x="735.5" y="496.0" text-anchor="middle" font-family="Inter, 'Helvetica Neue', Arial, sans-serif" font-size="10" fill="#3e4c59">scope attrs</text>
<path d="M567.0 470.0 L567.0 464.0 L819.0 464.0 L819.0 470.0" fill="none" stroke="#3e4c59" stroke-width="1.4" stroke-linecap="round"/>
<text x="693.0" y="458.0" text-anchor="middle" font-family="Inter, 'Helvetica Neue', Arial, sans-serif" font-size="11" fill="#3e4c59">Scope</text>
<path d="M856.0 506.0 L856.0 502.0 L1040.0 502.0 L1040.0 506.0" fill="none" stroke="#3e4c59" stroke-width="1.2" stroke-linecap="round"/>
<text x="948.0" y="496.0" text-anchor="middle" font-family="Inter, 'Helvetica Neue', Arial, sans-serif" font-size="10" fill="#3e4c59">log fields</text>
<path d="M1043.0 506.0 L1043.0 502.0 L1516.0 502.0 L1516.0 506.0" fill="none" stroke="#3e4c59" stroke-width="1.2" stroke-linecap="round"/>
<text x="1279.5" y="496.0" text-anchor="middle" font-family="Inter, 'Helvetica Neue', Arial, sans-serif" font-size="10" fill="#3e4c59">log attrs</text>
<path d="M822.0 470.0 L822.0 464.0 L1516.0 464.0 L1516.0 470.0" fill="none" stroke="#3e4c59" stroke-width="1.4" stroke-linecap="round"/>
<text x="1169.0" y="458.0" text-anchor="middle" font-family="Inter, 'Helvetica Neue', Arial, sans-serif" font-size="11" fill="#3e4c59">LogRecord</text>
<path d="M533.0 439.0 L533.0 432.0 L1516.0 432.0 L1516.0 439.0" fill="none" stroke="#3e4c59" stroke-width="1.5" stroke-linecap="round"/>
<text x="1024.5" y="426.0" text-anchor="middle" font-family="Inter, 'Helvetica Neue', Arial, sans-serif" font-size="12" fill="#3e4c59">ScopeLogs</text>
<path d="M261.0 408.0 L261.0 400.0 L1516.0 400.0 L1516.0 408.0" fill="none" stroke="#3e4c59" stroke-width="1.5999999999999999" stroke-linecap="round"/>
<text x="888.5" y="394.0" text-anchor="middle" font-family="Inter, 'Helvetica Neue', Arial, sans-serif" font-size="13" fill="#3e4c59">ResourceLogs</text>
<g font-family="Inter, 'Helvetica Neue', Arial, sans-serif" font-size="12" fill="#1f2933">
<rect x="60" y="611.0" width="16" height="16" fill="#e4e7eb" stroke="#9aa5b1" stroke-width="0.8" rx="2" ry="2"/>
<text x="82" y="624.0">Message frame</text>
<rect x="210" y="611.0" width="16" height="16" fill="#cfe8d4" stroke="#5fa572" stroke-width="0.8" rx="2" ry="2"/>
<text x="232" y="624.0">Resource attrs</text>
<rect x="368" y="611.0" width="16" height="16" fill="#dfd3ea" stroke="#9a6fb0" stroke-width="0.8" rx="2" ry="2"/>
<text x="390" y="624.0">Scope name</text>
<rect x="494" y="611.0" width="16" height="16" fill="#c9b6dd" stroke="#7d4fa0" stroke-width="0.8" rx="2" ry="2"/>
<text x="516" y="624.0">Scope attrs</text>
<rect x="628" y="611.0" width="16" height="16" fill="#cfe0f7" stroke="#3f7ad6" stroke-width="0.8" rx="2" ry="2"/>
<text x="650" y="624.0">LogRecord fields</text>
<rect x="802" y="611.0" width="16" height="16" fill="#fbd9b3" stroke="#d97706" stroke-width="0.8" rx="2" ry="2"/>
<text x="824" y="624.0">Log attrs</text>
</g>
</svg>