<svg xmlns="http://www.w3.org/2000/svg" width="1600" height="850" viewBox="0 0 1600 850" font-family="Inter, 'Helvetica Neue', Arial, sans-serif"><rect width="1600" height="850" fill="#ffffff"/><defs><marker id="ah-pdata" viewBox="0 0 10 10" refX="9" refY="5" markerWidth="7" markerHeight="7" orient="auto-start-reverse" markerUnits="userSpaceOnUse"><path d="M0,0 L10,5 L0,10 z" fill="context-stroke"/></marker><marker id="ah-ctrl" viewBox="0 0 10 10" refX="9" refY="5" markerWidth="6" markerHeight="6" orient="auto-start-reverse" markerUnits="userSpaceOnUse"><path d="M0,1 L10,5 L0,9" fill="none" stroke="context-stroke" stroke-width="1.4"/></marker></defs><rect x="80" y="60" width="1440" height="2" fill="#4f7a8a"/><text x="80" y="42" font-size="34" font-weight="600" fill="#1f2933">OtapPdata</text><text x="1520" y="42" font-size="20" font-family="'JetBrains Mono', Menlo, Consolas, monospace" fill="#52606d" text-anchor="end">Context + payload</text><text x="80" y="90" font-size="20" font-style="italic" fill="#52606d">The value carried on every pdata edge.</text><rect x="80" y="130" width="1440" height="510" rx="14" ry="14" fill="white" stroke="#52606d" stroke-width="1.6"/><rect x="80" y="130" width="1440" height="6" rx="3" ry="3" fill="#4f7a8a"/><text x="102" y="166" font-size="26" font-weight="700" fill="#1f2933">OtapPdata</text><line x1="800.0" y1="182" x2="800.0" y2="628.0" stroke="#9aa5b1" stroke-width="1"/><rect x="120" y="234" width="648.0" height="78" rx="6" ry="6" fill="white" stroke="#4f7a8a" stroke-width="1.6"/><rect x="120" y="234" width="6" height="78" rx="3" ry="3" fill="#4f7a8a"/><text x="138" y="256" font-size="18" font-family="'JetBrains Mono', Menlo, Consolas, monospace" font-weight="700" fill="#1f2933">Frame</text><text x="754.0" y="256" text-anchor="end" font-size="16" font-style="italic" fill="#52606d">top</text><text x="138" y="278" font-size="16" font-family="'JetBrains Mono', Menlo, Consolas, monospace" font-weight="700" fill="#1f2933">node_id</text><text x="230" y="278" font-size="16" font-family="'JetBrains Mono', Menlo, Consolas, monospace" fill="#52606d">= 7</text><text x="138" y="296" font-size="16" font-family="'JetBrains Mono', Menlo, Consolas, monospace" font-weight="700" fill="#1f2933">interests</text><text x="230" y="296" font-size="16" font-family="'JetBrains Mono', Menlo, Consolas, monospace" fill="#52606d">Ack | Nack | Producer</text><circle cx="444.0" cy="334.0" r="2.4" fill="#52606d"/><circle cx="444.0" cy="342.0" r="2.4" fill="#52606d"/><circle cx="444.0" cy="350.0" r="2.4" fill="#52606d"/><rect x="120" y="372" width="648.0" height="78" rx="6" ry="6" fill="white" stroke="#52606d" stroke-width="1.6"/><rect x="120" y="372" width="6" height="78" rx="3" ry="3" fill="#52606d"/><text x="138" y="394" font-size="18" font-family="'JetBrains Mono', Menlo, Consolas, monospace" font-weight="700" fill="#1f2933">Frame</text><text x="754.0" y="394" text-anchor="end" font-size="16" font-style="italic" fill="#52606d">bottom</text><text x="138" y="416" font-size="16" font-family="'JetBrains Mono', Menlo, Consolas, monospace" font-weight="700" fill="#1f2933">node_id</text><text x="230" y="416" font-size="16" font-family="'JetBrains Mono', Menlo, Consolas, monospace" fill="#52606d">= 1</text><text x="138" y="434" font-size="16" font-family="'JetBrains Mono', Menlo, Consolas, monospace" font-weight="700" fill="#1f2933">interests</text><text x="230" y="434" font-size="16" font-family="'JetBrains Mono', Menlo, Consolas, monospace" fill="#52606d">Ack | Nack | Return</text><rect x="120" y="540" width="648.0" height="32" rx="6" ry="6" fill="#f4f6f8" stroke="#9aa5b1" stroke-width="1"/><text x="132" y="561.0" font-size="16" font-family="'JetBrains Mono', Menlo, Consolas, monospace" font-weight="700" fill="#1f2933">transport_headers</text><text x="756.0" y="561.0" text-anchor="end" font-size="16" font-family="'JetBrains Mono', Menlo, Consolas, monospace" fill="#52606d">Option&lt;TransportHeaders&gt;</text><rect x="120" y="580" width="648.0" height="32" rx="6" ry="6" fill="#f4f6f8" stroke="#9aa5b1" stroke-width="1"/><text x="132" y="601.0" font-size="16" font-family="'JetBrains Mono', Menlo, Consolas, monospace" font-weight="700" fill="#1f2933">flow_compute_ns</text><text x="756.0" y="601.0" text-anchor="end" font-size="16" font-family="'JetBrains Mono', Menlo, Consolas, monospace" fill="#52606d">Option&lt;NonZeroU64&gt;</text><rect x="832.0" y="234" width="648.0" height="169.0" rx="10" ry="10" fill="white" stroke="#4f7a8a" stroke-width="1.6"/><rect x="832.0" y="234" width="648.0" height="6" rx="3" ry="3" fill="#4f7a8a"/><text x="854.0" y="266" font-size="18" font-family="'JetBrains Mono', Menlo, Consolas, monospace" font-weight="700" fill="#1f2933">OtapArrowRecords</text><text x="854.0" y="336.5" font-size="26" font-weight="700" fill="#4f7a8a">OTAP records</text><text x="854.0" y="385.0" font-size="18" font-style="italic" fill="#52606d">reference-counted · zero-copy transit</text><rect x="1400.0" y="252" width="64" height="24" rx="5" ry="5" fill="#4f7a8a" stroke="#4f7a8a"/><text x="1432.0" y="269.0" text-anchor="middle" font-size="16" font-weight="700" font-family="'JetBrains Mono', Menlo, Consolas, monospace" fill="white">OTAP</text><rect x="1108.0" y="411.0" width="96" height="28" rx="14" ry="14" fill="white" stroke="#1f2933" stroke-width="1.4"/><text x="1156.0" y="430.0" text-anchor="middle" font-size="18" font-weight="700" font-family="'JetBrains Mono', Menlo, Consolas, monospace" fill="#1f2933">one of</text><line x1="1156.0" y1="403.0" x2="1156.0" y2="411.0" stroke="#1f2933" stroke-width="1.4"/><line x1="1156.0" y1="439.0" x2="1156.0" y2="447.0" stroke="#1f2933" stroke-width="1.4"/><rect x="832.0" y="447.0" width="648.0" height="169.0" rx="10" ry="10" fill="white" stroke="#b15a4f" stroke-width="1.6"/><rect x="832.0" y="447.0" width="648.0" height="6" rx="3" ry="3" fill="#b15a4f"/><text x="854.0" y="479.0" font-size="18" font-family="'JetBrains Mono', Menlo, Consolas, monospace" font-weight="700" fill="#1f2933">OtlpBytes</text><text x="854.0" y="549.5" font-size="26" font-weight="700" fill="#b15a4f">OTLP bytes</text><text x="854.0" y="598.0" font-size="18" font-style="italic" fill="#52606d">reference-counted · zero-copy transit</text><rect x="1400.0" y="465.0" width="64" height="24" rx="5" ry="5" fill="#b15a4f" stroke="#b15a4f"/><text x="1432.0" y="482.0" text-anchor="middle" font-size="16" font-weight="700" font-family="'JetBrains Mono', Menlo, Consolas, monospace" fill="white">OTLP</text><rect x="80" y="666" width="1440" height="154" rx="10" ry="10" fill="white" stroke="#9aa5b1" stroke-width="1"/><text x="102" y="692" font-size="18" font-weight="700" font-family="'JetBrains Mono', Menlo, Consolas, monospace" fill="#1f2933">Frame</text><text x="168" y="692" font-size="16" font-style="italic" fill="#52606d">all fields, exact source-code names</text><text x="102" y="718" font-size="16" font-family="'JetBrains Mono', Menlo, Consolas, monospace" font-weight="700" fill="#1f2933">node_id</text><text x="342" y="718" font-size="16" font-family="'JetBrains Mono', Menlo, Consolas, monospace" fill="#52606d">usize</text><text x="102" y="738" font-size="16" font-family="'JetBrains Mono', Menlo, Consolas, monospace" font-weight="700" fill="#1f2933">interests</text><text x="342" y="738" font-size="16" font-family="'JetBrains Mono', Menlo, Consolas, monospace" fill="#52606d">Interests</text><text x="102" y="758" font-size="16" font-family="'JetBrains Mono', Menlo, Consolas, monospace" font-weight="700" fill="#1f2933">route.calldata</text><text x="342" y="758" font-size="16" font-family="'JetBrains Mono', Menlo, Consolas, monospace" fill="#52606d">CallData = SmallVec&lt;[Context8u8; 3]&gt;</text><text x="102" y="778" font-size="16" font-family="'JetBrains Mono', Menlo, Consolas, monospace" font-weight="700" fill="#1f2933">route.entry_time_ns</text><text x="342" y="778" font-size="16" font-family="'JetBrains Mono', Menlo, Consolas, monospace" fill="#52606d">u64</text><text x="102" y="798" font-size="16" font-family="'JetBrains Mono', Menlo, Consolas, monospace" font-weight="700" fill="#1f2933">route.output_port_index</text><text x="342" y="798" font-size="16" font-family="'JetBrains Mono', Menlo, Consolas, monospace" fill="#52606d">u16</text><text x="944" y="702" font-size="16" font-style="italic" fill="#52606d">Interests — 8 bitflags</text><rect x="944" y="718" width="134" height="22" rx="4" ry="4" fill="white" stroke="#52606d" stroke-width="1"/><text x="1011.0" y="733.0" text-anchor="middle" font-size="14" font-family="'JetBrains Mono', Menlo, Consolas, monospace" fill="#1f2933">ACKS</text><text x="1011.0" y="752" text-anchor="middle" font-size="13" font-family="'JetBrains Mono', Menlo, Consolas, monospace" fill="#52606d">1&lt;&lt;0</text><rect x="1084" y="718" width="134" height="22" rx="4" ry="4" fill="white" stroke="#52606d" stroke-width="1"/><text x="1151.0" y="733.0" text-anchor="middle" font-size="14" font-family="'JetBrains Mono', Menlo, Consolas, monospace" fill="#1f2933">NACKS</text><text x="1151.0" y="752" text-anchor="middle" font-size="13" font-family="'JetBrains Mono', Menlo, Consolas, monospace" fill="#52606d">1&lt;&lt;1</text><rect x="1224" y="718" width="134" height="22" rx="4" ry="4" fill="white" stroke="#52606d" stroke-width="1"/><text x="1291.0" y="733.0" text-anchor="middle" font-size="14" font-family="'JetBrains Mono', Menlo, Consolas, monospace" fill="#1f2933">RETURN_DATA</text><text x="1291.0" y="752" text-anchor="middle" font-size="13" font-family="'JetBrains Mono', Menlo, Consolas, monospace" fill="#52606d">1&lt;&lt;2</text><rect x="1364" y="718" width="134" height="22" rx="4" ry="4" fill="white" stroke="#52606d" stroke-width="1"/><text x="1431.0" y="733.0" text-anchor="middle" font-size="14" font-family="'JetBrains Mono', Menlo, Consolas, monospace" fill="#1f2933">ENTRY_TIMESTAMP</text><text x="1431.0" y="752" text-anchor="middle" font-size="13" font-family="'JetBrains Mono', Menlo, Consolas, monospace" fill="#52606d">1&lt;&lt;3</text><rect x="944" y="766" width="134" height="22" rx="4" ry="4" fill="white" stroke="#52606d" stroke-width="1"/><text x="1011.0" y="781.0" text-anchor="middle" font-size="14" font-family="'JetBrains Mono', Menlo, Consolas, monospace" fill="#1f2933">CONSUMER_METRICS</text><text x="1011.0" y="800" text-anchor="middle" font-size="13" font-family="'JetBrains Mono', Menlo, Consolas, monospace" fill="#52606d">1&lt;&lt;4</text><rect x="1084" y="766" width="134" height="22" rx="4" ry="4" fill="white" stroke="#52606d" stroke-width="1"/><text x="1151.0" y="781.0" text-anchor="middle" font-size="14" font-family="'JetBrains Mono', Menlo, Consolas, monospace" fill="#1f2933">PRODUCER_METRICS</text><text x="1151.0" y="800" text-anchor="middle" font-size="13" font-family="'JetBrains Mono', Menlo, Consolas, monospace" fill="#52606d">1&lt;&lt;5</text><rect x="1224" y="766" width="134" height="22" rx="4" ry="4" fill="white" stroke="#52606d" stroke-width="1"/><text x="1291.0" y="781.0" text-anchor="middle" font-size="14" font-family="'JetBrains Mono', Menlo, Consolas, monospace" fill="#1f2933">SOURCE_TAGGING</text><text x="1291.0" y="800" text-anchor="middle" font-size="13" font-family="'JetBrains Mono', Menlo, Consolas, monospace" fill="#52606d">1&lt;&lt;6</text><rect x="1364" y="766" width="134" height="22" rx="4" ry="4" fill="white" stroke="#52606d" stroke-width="1"/><text x="1431.0" y="781.0" text-anchor="middle" font-size="14" font-family="'JetBrains Mono', Menlo, Consolas, monospace" fill="#1f2933">PROCESS_DURATION</text><text x="1431.0" y="800" text-anchor="middle" font-size="13" font-family="'JetBrains Mono', Menlo, Consolas, monospace" fill="#52606d">1&lt;&lt;7</text></svg>