<svg xmlns="http://www.w3.org/2000/svg" width="1600" height="850" viewBox="0 0 1600 850" font-family="Inter, 'Helvetica Neue', Arial, sans-serif"><rect width="1600" height="850" fill="#ffffff"/><defs><marker id="ah-pdata" viewBox="0 0 10 10" refX="9" refY="5" markerWidth="7" markerHeight="7" orient="auto-start-reverse" markerUnits="userSpaceOnUse"><path d="M0,0 L10,5 L0,10 z" fill="context-stroke"/></marker><marker id="ah-ctrl" viewBox="0 0 10 10" refX="9" refY="5" markerWidth="6" markerHeight="6" orient="auto-start-reverse" markerUnits="userSpaceOnUse"><path d="M0,1 L10,5 L0,9" fill="none" stroke="context-stroke" stroke-width="1.4"/></marker></defs><rect x="80" y="60" width="1440" height="2" fill="#4f7a8a"/><text x="80" y="42" font-size="34" font-weight="600" fill="#1f2933">Pipeline thread</text><text x="1520" y="42" font-size="20" font-family="'JetBrains Mono', Menlo, Consolas, monospace" fill="#52606d" text-anchor="end">RuntimePipeline</text><text x="80" y="90" font-size="20" font-style="italic" fill="#52606d">One pipeline. One OS thread. One tokio runtime.</text><rect x="284" y="175" width="1032" height="580" rx="14" ry="14" fill="white" stroke="#4f7a8a" stroke-width="2.0"/><rect x="284" y="175" width="1032" height="36" rx="14" ry="14" fill="#4f7a8a" fill-opacity="0.10"/><rect x="284" y="207" width="1032" height="4" fill="#4f7a8a"/><text x="304" y="199" font-size="18" font-weight="700" fill="#4f7a8a">RuntimePipeline</text><text x="800.0" y="199" text-anchor="middle" font-size="18" font-style="italic" fill="#4f7a8a">1 OS thread · single-threaded tokio runtime · LocalSet</text><rect x="312" y="235" width="320" height="70" rx="8" ry="8" fill="white" stroke="#52606d" stroke-width="1.6"/><rect x="312" y="235" width="320" height="5" rx="2.5" ry="2.5" fill="#52606d"/><text x="472.0" y="278.0" text-anchor="middle" font-size="18" font-weight="700" fill="#1f2933">RuntimeCtrlMsgManager</text><rect x="928" y="235" width="360" height="70" rx="8" ry="8" fill="white" stroke="#52606d" stroke-width="1.6"/><rect x="928" y="235" width="360" height="5" rx="2.5" ry="2.5" fill="#52606d"/><text x="1108.0" y="278.0" text-anchor="middle" font-size="18" font-weight="700" fill="#1f2933">PipelineCompletionMsgDispatcher</text><rect x="445.0" y="482.0" width="110" height="56" rx="8" ry="8" fill="white" stroke="#52606d" stroke-width="1.6"/><rect x="445.0" y="482.0" width="110" height="5" rx="2.5" ry="2.5" fill="#4f7a8a"/><text x="500.0" y="508.0" text-anchor="middle" font-size="18" font-weight="700" fill="#1f2933">receiver</text><rect x="645.0" y="482.0" width="110" height="56" rx="8" ry="8" fill="white" stroke="#52606d" stroke-width="1.6"/><rect x="645.0" y="482.0" width="110" height="5" rx="2.5" ry="2.5" fill="#4f7a8a"/><text x="700.0" y="508.0" text-anchor="middle" font-size="18" font-weight="700" fill="#1f2933">fanout</text><rect x="855.0" y="422.0" width="110" height="56" rx="8" ry="8" fill="white" stroke="#52606d" stroke-width="1.6"/><rect x="855.0" y="422.0" width="110" height="5" rx="2.5" ry="2.5" fill="#4f7a8a"/><text x="910.0" y="448.0" text-anchor="middle" font-size="18" font-weight="700" fill="#1f2933">processor</text><rect x="855.0" y="542.0" width="110" height="56" rx="8" ry="8" fill="white" stroke="#52606d" stroke-width="1.6"/><rect x="855.0" y="542.0" width="110" height="5" rx="2.5" ry="2.5" fill="#4f7a8a"/><text x="910.0" y="568.0" text-anchor="middle" font-size="18" font-weight="700" fill="#1f2933">processor</text><rect x="1045.0" y="422.0" width="110" height="56" rx="8" ry="8" fill="white" stroke="#52606d" stroke-width="1.6"/><rect x="1045.0" y="422.0" width="110" height="5" rx="2.5" ry="2.5" fill="#4f7a8a"/><text x="1100.0" y="448.0" text-anchor="middle" font-size="18" font-weight="700" fill="#1f2933">exporter</text><rect x="1045.0" y="542.0" width="110" height="56" rx="8" ry="8" fill="white" stroke="#52606d" stroke-width="1.6"/><rect x="1045.0" y="542.0" width="110" height="5" rx="2.5" ry="2.5" fill="#4f7a8a"/><text x="1100.0" y="568.0" text-anchor="middle" font-size="18" font-weight="700" fill="#1f2933">exporter</text><line x1="555.0" y1="506.0" x2="645.0" y2="506.0" stroke="#4f7a8a" stroke-width="3.0" stroke-linecap="round" marker-end="url(#ah-pdata)"/><line x1="645.0" y1="514.0" x2="555.0" y2="514.0" stroke="#52606d" stroke-width="1.4" marker-end="url(#ah-ctrl)"/><line x1="755.0" y1="506.0" x2="855.0" y2="446.0" stroke="#4f7a8a" stroke-width="3.0" stroke-linecap="round" marker-end="url(#ah-pdata)"/><line x1="855.0" y1="454.0" x2="755.0" y2="514.0" stroke="#52606d" stroke-width="1.4" marker-end="url(#ah-ctrl)"/><line x1="755.0" y1="506.0" x2="855.0" y2="566.0" stroke="#4f7a8a" stroke-width="3.0" stroke-linecap="round" marker-end="url(#ah-pdata)"/><line x1="855.0" y1="574.0" x2="755.0" y2="514.0" stroke="#52606d" stroke-width="1.4" marker-end="url(#ah-ctrl)"/><line x1="965.0" y1="446.0" x2="1045.0" y2="446.0" stroke="#4f7a8a" stroke-width="3.0" stroke-linecap="round" marker-end="url(#ah-pdata)"/><line x1="1045.0" y1="454.0" x2="965.0" y2="454.0" stroke="#52606d" stroke-width="1.4" marker-end="url(#ah-ctrl)"/><line x1="965.0" y1="566.0" x2="1045.0" y2="566.0" stroke="#4f7a8a" stroke-width="3.0" stroke-linecap="round" marker-end="url(#ah-pdata)"/><line x1="1045.0" y1="574.0" x2="965.0" y2="574.0" stroke="#52606d" stroke-width="1.4" marker-end="url(#ah-ctrl)"/><path d="M472.0,305 C472.0,345 500.0,442.0 500.0,482.0" fill="none" stroke="#52606d" stroke-width="1.4" marker-end="url(#ah-ctrl)"/><path d="M500.0,482.0 C500.0,442.0 1108.0,345 1108.0,305" fill="none" stroke="#52606d" stroke-width="1.4" marker-end="url(#ah-ctrl)"/><path d="M700.0,482.0 C700.0,442.0 1108.0,345 1108.0,305" fill="none" stroke="#52606d" stroke-width="1.4" marker-end="url(#ah-ctrl)"/><path d="M1100.0,422.0 C1100.0,382.0 1108.0,345 1108.0,305" fill="none" stroke="#52606d" stroke-width="1.4" marker-end="url(#ah-ctrl)"/><text x="472.0" y="229" text-anchor="middle" font-size="16" font-family="'JetBrains Mono', Menlo, Consolas, monospace" fill="#1f2933">NodeControlMsg ↕</text><text x="1108.0" y="229" text-anchor="middle" font-size="16" font-family="'JetBrains Mono', Menlo, Consolas, monospace" fill="#1f2933">PipelineCompletionMsg ↕</text><rect x="312" y="699" width="976" height="36" rx="6" ry="6" fill="#f4f6f8" stroke="#9aa5b1" stroke-width="1"/><text x="326" y="722.0" font-size="18" font-family="'JetBrains Mono', Menlo, Consolas, monospace" font-weight="600" fill="#1f2933">TopicSet</text><text x="1274" y="722.0" text-anchor="end" font-size="16" font-style="italic" fill="#52606d">per-pipeline view of the controller-owned TopicBroker</text><line x1="80" y1="246.0" x2="312" y2="246.0" stroke="#52606d" stroke-width="1.4" stroke-dasharray="4,3" marker-end="url(#ah-ctrl)"/><text x="84" y="242.0" text-anchor="start" font-size="12" font-family="'JetBrains Mono', Menlo, Consolas, monospace" fill="#1f2933">RuntimeCtrlMsgReceiver</text><circle cx="312" cy="246.0" r="2" fill="#52606d"/><line x1="312" y1="270.0" x2="80" y2="270.0" stroke="#52606d" stroke-width="1.4" stroke-dasharray="4,3" marker-end="url(#ah-ctrl)"/><text x="84" y="266.0" text-anchor="start" font-size="12" font-family="'JetBrains Mono', Menlo, Consolas, monospace" fill="#1f2933">note_instance_exit</text><circle cx="312" cy="270.0" r="2" fill="#52606d"/><line x1="80" y1="294.0" x2="312" y2="294.0" stroke="#52606d" stroke-width="1.4" stroke-dasharray="4,3" marker-end="url(#ah-ctrl)"/><text x="84" y="290.0" text-anchor="start" font-size="12" font-family="'JetBrains Mono', Menlo, Consolas, monospace" fill="#1f2933">memory_pressure rx</text><circle cx="312" cy="294.0" r="2" fill="#52606d"/><line x1="794.0" y1="735" x2="794.0" y2="795" stroke="#52606d" stroke-width="1.4" stroke-dasharray="4,3" marker-end="url(#ah-ctrl)"/><line x1="806.0" y1="795" x2="806.0" y2="735" stroke="#52606d" stroke-width="1.4" stroke-dasharray="4,3" marker-end="url(#ah-ctrl)"/><text x="814.0" y="793" font-size="12" font-family="'JetBrains Mono', Menlo, Consolas, monospace" fill="#1f2933">topics ↕</text><line x1="80" y1="501.0" x2="443.0" y2="501.0" stroke="#4f7a8a" stroke-width="2.4" stroke-linecap="round" marker-end="url(#ah-pdata)"/><line x1="80" y1="507.0" x2="443.0" y2="507.0" stroke="#4f7a8a" stroke-width="2.4" stroke-linecap="round" marker-end="url(#ah-pdata)"/><line x1="80" y1="513.0" x2="443.0" y2="513.0" stroke="#4f7a8a" stroke-width="2.4" stroke-linecap="round" marker-end="url(#ah-pdata)"/><line x1="80" y1="519.0" x2="443.0" y2="519.0" stroke="#4f7a8a" stroke-width="2.4" stroke-linecap="round" marker-end="url(#ah-pdata)"/><line x1="1157.0" y1="441.0" x2="1520" y2="441.0" stroke="#4f7a8a" stroke-width="2.4" stroke-linecap="round" marker-end="url(#ah-pdata)"/><line x1="1157.0" y1="447.0" x2="1520" y2="447.0" stroke="#4f7a8a" stroke-width="2.4" stroke-linecap="round" marker-end="url(#ah-pdata)"/><line x1="1157.0" y1="453.0" x2="1520" y2="453.0" stroke="#4f7a8a" stroke-width="2.4" stroke-linecap="round" marker-end="url(#ah-pdata)"/><line x1="1157.0" y1="459.0" x2="1520" y2="459.0" stroke="#4f7a8a" stroke-width="2.4" stroke-linecap="round" marker-end="url(#ah-pdata)"/><line x1="1157.0" y1="561.0" x2="1520" y2="561.0" stroke="#4f7a8a" stroke-width="2.4" stroke-linecap="round" marker-end="url(#ah-pdata)"/><line x1="1157.0" y1="567.0" x2="1520" y2="567.0" stroke="#4f7a8a" stroke-width="2.4" stroke-linecap="round" marker-end="url(#ah-pdata)"/><line x1="1157.0" y1="573.0" x2="1520" y2="573.0" stroke="#4f7a8a" stroke-width="2.4" stroke-linecap="round" marker-end="url(#ah-pdata)"/><line x1="1157.0" y1="579.0" x2="1520" y2="579.0" stroke="#4f7a8a" stroke-width="2.4" stroke-linecap="round" marker-end="url(#ah-pdata)"/></svg>