<svg xmlns="http://www.w3.org/2000/svg" width="1600" height="850" viewBox="0 0 1600 850" font-family="Inter, 'Helvetica Neue', Arial, sans-serif"><rect width="1600" height="850" fill="#ffffff"/><defs><marker id="ah-pdata" viewBox="0 0 10 10" refX="9" refY="5" markerWidth="7" markerHeight="7" orient="auto-start-reverse" markerUnits="userSpaceOnUse"><path d="M0,0 L10,5 L0,10 z" fill="context-stroke"/></marker><marker id="ah-ctrl" viewBox="0 0 10 10" refX="9" refY="5" markerWidth="6" markerHeight="6" orient="auto-start-reverse" markerUnits="userSpaceOnUse"><path d="M0,1 L10,5 L0,9" fill="none" stroke="context-stroke" stroke-width="1.4"/></marker></defs><rect x="80" y="60" width="1440" height="2" fill="#4f7a8a"/><text x="80" y="42" font-size="34" font-weight="600" fill="#1f2933">Memory pressure &amp; backpressure</text><text x="1520" y="42" font-size="20" font-family="'JetBrains Mono', Menlo, Consolas, monospace" fill="#52606d" text-anchor="end">MemoryPressureState + bounded per-node state</text><text x="80" y="90" font-size="20" font-style="italic" fill="#52606d">Every queue and slot is named, sized, and visible to the process-memory-limiter.</text><rect x="80" y="130" width="480" height="600" rx="14" ry="14" fill="white" stroke="#52606d" stroke-width="1.6"/><rect x="80" y="130" width="480" height="6" rx="3" ry="3" fill="#52606d"/><text x="102" y="164" font-size="26" font-weight="700" fill="#1f2933">Controller process</text><text x="544" y="158" text-anchor="end" font-size="18" font-family="'JetBrains Mono', Menlo, Consolas, monospace" fill="#52606d">ControllerRuntime</text><rect x="102" y="194" width="436" height="290" rx="10" ry="10" fill="white" stroke="#9aa5b1" stroke-width="1.4"/><text x="114" y="216" font-size="18" font-family="'JetBrains Mono', Menlo, Consolas, monospace" font-weight="700" fill="#1f2933">process-memory-limiter</text><text x="526" y="216" text-anchor="end" font-size="16" font-style="italic" fill="#52606d">thread-local accessory task</text><text x="114" y="242" font-size="18" font-weight="700" fill="#1f2933">MemoryPressureState</text><text x="526" y="242" text-anchor="end" font-size="16" font-style="italic" fill="#52606d">Arc&lt;…Inner&gt; — fixed</text><text x="120" y="260" font-size="16" font-family="'JetBrains Mono', Menlo, Consolas, monospace" font-weight="700" fill="#1f2933">level</text><text x="520" y="260" text-anchor="end" font-size="16" font-family="'JetBrains Mono', Menlo, Consolas, monospace" fill="#52606d">AtomicU8</text><text x="120" y="278" font-size="16" font-family="'JetBrains Mono', Menlo, Consolas, monospace" font-weight="700" fill="#1f2933">usage_bytes</text><text x="520" y="278" text-anchor="end" font-size="16" font-family="'JetBrains Mono', Menlo, Consolas, monospace" fill="#52606d">AtomicU64</text><text x="120" y="296" font-size="16" font-family="'JetBrains Mono', Menlo, Consolas, monospace" font-weight="700" fill="#1f2933">soft_limit_bytes</text><text x="520" y="296" text-anchor="end" font-size="16" font-family="'JetBrains Mono', Menlo, Consolas, monospace" fill="#52606d">AtomicU64</text><text x="120" y="314" font-size="16" font-family="'JetBrains Mono', Menlo, Consolas, monospace" font-weight="700" fill="#1f2933">hard_limit_bytes</text><text x="520" y="314" text-anchor="end" font-size="16" font-family="'JetBrains Mono', Menlo, Consolas, monospace" fill="#52606d">AtomicU64</text><text x="120" y="332" font-size="16" font-family="'JetBrains Mono', Menlo, Consolas, monospace" font-weight="700" fill="#1f2933">retry_after_secs</text><text x="520" y="332" text-anchor="end" font-size="16" font-family="'JetBrains Mono', Menlo, Consolas, monospace" fill="#52606d">AtomicU32</text><text x="120" y="350" font-size="16" font-family="'JetBrains Mono', Menlo, Consolas, monospace" font-weight="700" fill="#1f2933">mode</text><text x="520" y="350" text-anchor="end" font-size="16" font-family="'JetBrains Mono', Menlo, Consolas, monospace" fill="#52606d">AtomicU8</text><text x="120" y="368" font-size="16" font-family="'JetBrains Mono', Menlo, Consolas, monospace" font-weight="700" fill="#1f2933">fail_readiness_on_hard</text><text x="520" y="368" text-anchor="end" font-size="16" font-family="'JetBrains Mono', Menlo, Consolas, monospace" fill="#52606d">AtomicBool</text><rect x="114" y="398" width="132.0" height="26" rx="6" ry="6" fill="#3f8f5f" stroke="#3f8f5f"/><text x="180.0" y="416.0" text-anchor="middle" font-size="16" font-family="'JetBrains Mono', Menlo, Consolas, monospace" font-weight="700" fill="white">Normal</text><rect x="254.0" y="398" width="132.0" height="26" rx="6" ry="6" fill="#c9943a" stroke="#c9943a"/><text x="320.0" y="416.0" text-anchor="middle" font-size="16" font-family="'JetBrains Mono', Menlo, Consolas, monospace" font-weight="700" fill="white">Soft</text><rect x="394.0" y="398" width="132.0" height="26" rx="6" ry="6" fill="#b15a4f" stroke="#b15a4f"/><text x="460.0" y="416.0" text-anchor="middle" font-size="16" font-family="'JetBrains Mono', Menlo, Consolas, monospace" font-weight="700" fill="white">Hard</text><text x="114" y="440" font-size="16" font-style="italic" fill="#52606d">classified per tick from sampled usage</text><text x="102" y="506" font-size="18" font-weight="700" fill="#1f2933">MemoryLimiterPolicy</text><text x="538" y="506" text-anchor="end" font-size="16" font-style="italic" fill="#52606d">policies.resources.memory_limiter</text><text x="108" y="524" font-size="16" font-family="'JetBrains Mono', Menlo, Consolas, monospace" font-weight="700" fill="#1f2933">mode</text><text x="532" y="524" text-anchor="end" font-size="16" font-family="'JetBrains Mono', Menlo, Consolas, monospace" fill="#52606d">MemoryLimiterMode</text><text x="108" y="540" font-size="16" font-family="'JetBrains Mono', Menlo, Consolas, monospace" font-weight="700" fill="#1f2933">source</text><text x="532" y="540" text-anchor="end" font-size="16" font-family="'JetBrains Mono', Menlo, Consolas, monospace" fill="#52606d">MemoryLimiterSource</text><text x="108" y="556" font-size="16" font-family="'JetBrains Mono', Menlo, Consolas, monospace" font-weight="700" fill="#1f2933">check_interval</text><text x="532" y="556" text-anchor="end" font-size="16" font-family="'JetBrains Mono', Menlo, Consolas, monospace" fill="#52606d">Duration</text><text x="108" y="572" font-size="16" font-family="'JetBrains Mono', Menlo, Consolas, monospace" font-weight="700" fill="#1f2933">soft_limit / hard_limit</text><text x="532" y="572" text-anchor="end" font-size="16" font-family="'JetBrains Mono', Menlo, Consolas, monospace" fill="#52606d">Option&lt;u64&gt;</text><text x="108" y="588" font-size="16" font-family="'JetBrains Mono', Menlo, Consolas, monospace" font-weight="700" fill="#1f2933">hysteresis</text><text x="532" y="588" text-anchor="end" font-size="16" font-family="'JetBrains Mono', Menlo, Consolas, monospace" fill="#52606d">Option&lt;u64&gt;</text><text x="108" y="604" font-size="16" font-family="'JetBrains Mono', Menlo, Consolas, monospace" font-weight="700" fill="#1f2933">retry_after_secs</text><text x="532" y="604" text-anchor="end" font-size="16" font-family="'JetBrains Mono', Menlo, Consolas, monospace" fill="#52606d">u32</text><text x="108" y="620" font-size="16" font-family="'JetBrains Mono', Menlo, Consolas, monospace" font-weight="700" fill="#1f2933">fail_readiness_on_hard</text><text x="532" y="620" text-anchor="end" font-size="16" font-family="'JetBrains Mono', Menlo, Consolas, monospace" fill="#52606d">bool</text><text x="108" y="636" font-size="16" font-family="'JetBrains Mono', Menlo, Consolas, monospace" font-weight="700" fill="#1f2933">purge_on_hard</text><text x="532" y="636" text-anchor="end" font-size="16" font-family="'JetBrains Mono', Menlo, Consolas, monospace" fill="#52606d">bool</text><rect x="102" y="672" width="436" height="36" rx="14" ry="14" fill="#fbf3f2" stroke="#b15a4f" stroke-width="1.4"/><text x="114" y="695.0" font-size="18" font-family="'JetBrains Mono', Menlo, Consolas, monospace" font-weight="700" fill="#1f2933">memory_pressure watch</text><text x="526" y="695.0" text-anchor="end" font-size="16" font-style="italic" fill="#52606d">tokio::sync::watch</text><rect x="620" y="130" width="900" height="180" rx="10" ry="10" fill="white" stroke="#52606d" stroke-width="1.6"/><rect x="620" y="130" width="900" height="6" rx="3" ry="3" fill="#4f7a8a"/><text x="636" y="160" font-size="18" font-weight="700" fill="#1f2933">Engine Core 0</text><text x="1506" y="160" text-anchor="end" font-size="16" font-style="italic" fill="#52606d">one tokio single-threaded runtime per pipeline</text><rect x="680" y="245.0" width="132" height="50" rx="6" ry="6" fill="white" stroke="#52606d" stroke-width="1.4"/><rect x="680" y="245.0" width="132" height="4" rx="2" ry="2" fill="#52606d"/><text x="746.0" y="271.0" text-anchor="middle" font-size="16" font-family="'JetBrains Mono', Menlo, Consolas, monospace" font-weight="700" fill="#1f2933">otap_receiver</text><text x="746.0" y="286.0" text-anchor="middle" font-size="13" font-style="italic" fill="#52606d">receiver</text><rect x="676" y="175.0" width="140" height="60" rx="6" ry="6" fill="#fafbfc" stroke="#9aa5b1" stroke-width="1" stroke-dasharray="2,2"/><text x="684" y="189.0" font-size="12" font-family="'JetBrains Mono', Menlo, Consolas, monospace" fill="#1f2933">shared admission state</text><text x="684" y="202.0" font-size="12" font-family="'JetBrains Mono', Menlo, Consolas, monospace" fill="#1f2933">ack subscription registry</text><text x="684" y="215.0" font-size="12" font-family="'JetBrains Mono', Menlo, Consolas, monospace" fill="#1f2933">rejection counters</text><line x1="746.0" y1="235.0" x2="746.0" y2="245.0" stroke="#9aa5b1" stroke-width="1" stroke-dasharray="2,2"/><rect x="820" y="258.0" width="80.66666666666667" height="24" rx="12.0" ry="12.0" fill="#f4f6f8" stroke="#9aa5b1" stroke-width="1"/><line x1="829.0" y1="263.0" x2="829.0" y2="277.0" stroke="#52606d" stroke-width="1.2"/><line x1="860.3333333333334" y1="263.0" x2="860.3333333333334" y2="277.0" stroke="#52606d" stroke-width="1.2"/><line x1="891.6666666666666" y1="263.0" x2="891.6666666666666" y2="277.0" stroke="#52606d" stroke-width="1.2"/><text x="860.3333333333334" y="254.0" text-anchor="middle" font-size="12" font-style="italic" fill="#52606d">bounded</text><line x1="812" y1="270" x2="820" y2="270" stroke="#52606d" stroke-width="1.4"/><line x1="900.6666666666666" y1="270" x2="906.6666666666666" y2="270" stroke="#52606d" stroke-width="1.4" marker-end="url(#ah-pdata)"/><rect x="908.6666666666666" y="245.0" width="132" height="50" rx="6" ry="6" fill="white" stroke="#52606d" stroke-width="1.4"/><rect x="908.6666666666666" y="245.0" width="132" height="4" rx="2" ry="2" fill="#52606d"/><text x="974.6666666666666" y="271.0" text-anchor="middle" font-size="16" font-family="'JetBrains Mono', Menlo, Consolas, monospace" font-weight="700" fill="#1f2933">batch</text><text x="974.6666666666666" y="286.0" text-anchor="middle" font-size="13" font-style="italic" fill="#52606d">processor</text><rect x="904.6666666666666" y="175.0" width="140" height="60" rx="6" ry="6" fill="#fafbfc" stroke="#9aa5b1" stroke-width="1" stroke-dasharray="2,2"/><text x="912.6666666666666" y="189.0" font-size="12" font-family="'JetBrains Mono', Menlo, Consolas, monospace" fill="#1f2933">pending batch buffers</text><text x="912.6666666666666" y="202.0" font-size="12" font-family="'JetBrains Mono', Menlo, Consolas, monospace" fill="#1f2933">inbound  ack/nack slots</text><text x="912.6666666666666" y="215.0" font-size="12" font-family="'JetBrains Mono', Menlo, Consolas, monospace" fill="#1f2933">outbound ack/nack slots</text><line x1="974.6666666666666" y1="235.0" x2="974.6666666666666" y2="245.0" stroke="#9aa5b1" stroke-width="1" stroke-dasharray="2,2"/><rect x="1048.6666666666665" y="258.0" width="80.66666666666667" height="24" rx="12.0" ry="12.0" fill="#f4f6f8" stroke="#9aa5b1" stroke-width="1"/><line x1="1057.6666666666665" y1="263.0" x2="1057.6666666666665" y2="277.0" stroke="#52606d" stroke-width="1.2"/><line x1="1088.9999999999998" y1="263.0" x2="1088.9999999999998" y2="277.0" stroke="#52606d" stroke-width="1.2"/><line x1="1120.3333333333333" y1="263.0" x2="1120.3333333333333" y2="277.0" stroke="#52606d" stroke-width="1.2"/><text x="1088.9999999999998" y="254.0" text-anchor="middle" font-size="12" font-style="italic" fill="#52606d">bounded</text><line x1="1040.6666666666665" y1="270" x2="1048.6666666666665" y2="270" stroke="#52606d" stroke-width="1.4"/><line x1="1129.3333333333333" y1="270" x2="1135.3333333333333" y2="270" stroke="#52606d" stroke-width="1.4" marker-end="url(#ah-pdata)"/><rect x="1137.3333333333333" y="245.0" width="132" height="50" rx="6" ry="6" fill="white" stroke="#52606d" stroke-width="1.4"/><rect x="1137.3333333333333" y="245.0" width="132" height="4" rx="2" ry="2" fill="#52606d"/><text x="1203.3333333333333" y="271.0" text-anchor="middle" font-size="16" font-family="'JetBrains Mono', Menlo, Consolas, monospace" font-weight="700" fill="#1f2933">retry</text><text x="1203.3333333333333" y="286.0" text-anchor="middle" font-size="13" font-style="italic" fill="#52606d">processor</text><rect x="1133.3333333333333" y="175.0" width="140" height="60" rx="6" ry="6" fill="#fafbfc" stroke="#9aa5b1" stroke-width="1" stroke-dasharray="2,2"/><text x="1141.3333333333333" y="189.0" font-size="12" font-family="'JetBrains Mono', Menlo, Consolas, monospace" fill="#1f2933">local timer wheel</text><text x="1141.3333333333333" y="202.0" font-size="12" font-family="'JetBrains Mono', Menlo, Consolas, monospace" fill="#1f2933">(engine-held payload)</text><line x1="1203.3333333333333" y1="235.0" x2="1203.3333333333333" y2="245.0" stroke="#9aa5b1" stroke-width="1" stroke-dasharray="2,2"/><rect x="1277.3333333333333" y="258.0" width="80.66666666666667" height="24" rx="12.0" ry="12.0" fill="#f4f6f8" stroke="#9aa5b1" stroke-width="1"/><line x1="1286.3333333333333" y1="263.0" x2="1286.3333333333333" y2="277.0" stroke="#52606d" stroke-width="1.2"/><line x1="1317.6666666666665" y1="263.0" x2="1317.6666666666665" y2="277.0" stroke="#52606d" stroke-width="1.2"/><line x1="1349.0" y1="263.0" x2="1349.0" y2="277.0" stroke="#52606d" stroke-width="1.2"/><text x="1317.6666666666665" y="254.0" text-anchor="middle" font-size="12" font-style="italic" fill="#52606d">bounded</text><line x1="1269.3333333333333" y1="270" x2="1277.3333333333333" y2="270" stroke="#52606d" stroke-width="1.4"/><line x1="1358.0" y1="270" x2="1364.0" y2="270" stroke="#52606d" stroke-width="1.4" marker-end="url(#ah-pdata)"/><rect x="1366.0" y="245.0" width="132" height="50" rx="6" ry="6" fill="white" stroke="#52606d" stroke-width="1.4"/><rect x="1366.0" y="245.0" width="132" height="4" rx="2" ry="2" fill="#52606d"/><text x="1432.0" y="271.0" text-anchor="middle" font-size="16" font-family="'JetBrains Mono', Menlo, Consolas, monospace" font-weight="700" fill="#1f2933">otlp_grpc_exporter</text><text x="1432.0" y="286.0" text-anchor="middle" font-size="13" font-style="italic" fill="#52606d">exporter</text><rect x="1362.0" y="175.0" width="140" height="60" rx="6" ry="6" fill="#fafbfc" stroke="#9aa5b1" stroke-width="1" stroke-dasharray="2,2"/><text x="1370.0" y="189.0" font-size="12" font-family="'JetBrains Mono', Menlo, Consolas, monospace" fill="#1f2933">in-flight queue (max_in_flight)</text><text x="1370.0" y="202.0" font-size="12" font-family="'JetBrains Mono', Menlo, Consolas, monospace" fill="#1f2933">parked-message slot</text><text x="1370.0" y="215.0" font-size="12" font-family="'JetBrains Mono', Menlo, Consolas, monospace" fill="#1f2933">proto encoders + buffers</text><line x1="1432.0" y1="235.0" x2="1432.0" y2="245.0" stroke="#9aa5b1" stroke-width="1" stroke-dasharray="2,2"/><line x1="1490.0" y1="298" x2="688" y2="298" stroke="#52606d" stroke-width="1.0" stroke-dasharray="4,2" marker-end="url(#ah-ctrl)"/><text x="1089.0" y="294" text-anchor="middle" font-size="12" font-style="italic" fill="#52606d">ack / nack drains the slots</text><rect x="620" y="328" width="900" height="180" rx="10" ry="10" fill="white" stroke="#52606d" stroke-width="1.6"/><rect x="620" y="328" width="900" height="6" rx="3" ry="3" fill="#4f7a8a"/><text x="636" y="358" font-size="18" font-weight="700" fill="#1f2933">Engine Core 1</text><text x="1506" y="358" text-anchor="end" font-size="16" font-style="italic" fill="#52606d">one tokio single-threaded runtime per pipeline</text><rect x="680" y="443.0" width="132" height="50" rx="6" ry="6" fill="white" stroke="#52606d" stroke-width="1.4"/><rect x="680" y="443.0" width="132" height="4" rx="2" ry="2" fill="#52606d"/><text x="746.0" y="469.0" text-anchor="middle" font-size="16" font-family="'JetBrains Mono', Menlo, Consolas, monospace" font-weight="700" fill="#1f2933">otap_receiver</text><text x="746.0" y="484.0" text-anchor="middle" font-size="13" font-style="italic" fill="#52606d">receiver</text><rect x="676" y="373.0" width="140" height="60" rx="6" ry="6" fill="#fafbfc" stroke="#9aa5b1" stroke-width="1" stroke-dasharray="2,2"/><text x="684" y="387.0" font-size="12" font-family="'JetBrains Mono', Menlo, Consolas, monospace" fill="#1f2933">shared admission state</text><text x="684" y="400.0" font-size="12" font-family="'JetBrains Mono', Menlo, Consolas, monospace" fill="#1f2933">ack subscription registry</text><text x="684" y="413.0" font-size="12" font-family="'JetBrains Mono', Menlo, Consolas, monospace" fill="#1f2933">rejection counters</text><line x1="746.0" y1="433.0" x2="746.0" y2="443.0" stroke="#9aa5b1" stroke-width="1" stroke-dasharray="2,2"/><rect x="820" y="456.0" width="80.66666666666667" height="24" rx="12.0" ry="12.0" fill="#f4f6f8" stroke="#9aa5b1" stroke-width="1"/><line x1="829.0" y1="461.0" x2="829.0" y2="475.0" stroke="#52606d" stroke-width="1.2"/><line x1="860.3333333333334" y1="461.0" x2="860.3333333333334" y2="475.0" stroke="#52606d" stroke-width="1.2"/><line x1="891.6666666666666" y1="461.0" x2="891.6666666666666" y2="475.0" stroke="#52606d" stroke-width="1.2"/><text x="860.3333333333334" y="452.0" text-anchor="middle" font-size="12" font-style="italic" fill="#52606d">bounded</text><line x1="812" y1="468" x2="820" y2="468" stroke="#52606d" stroke-width="1.4"/><line x1="900.6666666666666" y1="468" x2="906.6666666666666" y2="468" stroke="#52606d" stroke-width="1.4" marker-end="url(#ah-pdata)"/><rect x="908.6666666666666" y="443.0" width="132" height="50" rx="6" ry="6" fill="white" stroke="#52606d" stroke-width="1.4"/><rect x="908.6666666666666" y="443.0" width="132" height="4" rx="2" ry="2" fill="#52606d"/><text x="974.6666666666666" y="469.0" text-anchor="middle" font-size="16" font-family="'JetBrains Mono', Menlo, Consolas, monospace" font-weight="700" fill="#1f2933">batch</text><text x="974.6666666666666" y="484.0" text-anchor="middle" font-size="13" font-style="italic" fill="#52606d">processor</text><rect x="904.6666666666666" y="373.0" width="140" height="60" rx="6" ry="6" fill="#fafbfc" stroke="#9aa5b1" stroke-width="1" stroke-dasharray="2,2"/><text x="912.6666666666666" y="387.0" font-size="12" font-family="'JetBrains Mono', Menlo, Consolas, monospace" fill="#1f2933">pending batch buffers</text><text x="912.6666666666666" y="400.0" font-size="12" font-family="'JetBrains Mono', Menlo, Consolas, monospace" fill="#1f2933">inbound  ack/nack slots</text><text x="912.6666666666666" y="413.0" font-size="12" font-family="'JetBrains Mono', Menlo, Consolas, monospace" fill="#1f2933">outbound ack/nack slots</text><line x1="974.6666666666666" y1="433.0" x2="974.6666666666666" y2="443.0" stroke="#9aa5b1" stroke-width="1" stroke-dasharray="2,2"/><rect x="1048.6666666666665" y="456.0" width="80.66666666666667" height="24" rx="12.0" ry="12.0" fill="#f4f6f8" stroke="#9aa5b1" stroke-width="1"/><line x1="1057.6666666666665" y1="461.0" x2="1057.6666666666665" y2="475.0" stroke="#52606d" stroke-width="1.2"/><line x1="1088.9999999999998" y1="461.0" x2="1088.9999999999998" y2="475.0" stroke="#52606d" stroke-width="1.2"/><line x1="1120.3333333333333" y1="461.0" x2="1120.3333333333333" y2="475.0" stroke="#52606d" stroke-width="1.2"/><text x="1088.9999999999998" y="452.0" text-anchor="middle" font-size="12" font-style="italic" fill="#52606d">bounded</text><line x1="1040.6666666666665" y1="468" x2="1048.6666666666665" y2="468" stroke="#52606d" stroke-width="1.4"/><line x1="1129.3333333333333" y1="468" x2="1135.3333333333333" y2="468" stroke="#52606d" stroke-width="1.4" marker-end="url(#ah-pdata)"/><rect x="1137.3333333333333" y="443.0" width="132" height="50" rx="6" ry="6" fill="white" stroke="#52606d" stroke-width="1.4"/><rect x="1137.3333333333333" y="443.0" width="132" height="4" rx="2" ry="2" fill="#52606d"/><text x="1203.3333333333333" y="469.0" text-anchor="middle" font-size="16" font-family="'JetBrains Mono', Menlo, Consolas, monospace" font-weight="700" fill="#1f2933">retry</text><text x="1203.3333333333333" y="484.0" text-anchor="middle" font-size="13" font-style="italic" fill="#52606d">processor</text><rect x="1133.3333333333333" y="373.0" width="140" height="60" rx="6" ry="6" fill="#fafbfc" stroke="#9aa5b1" stroke-width="1" stroke-dasharray="2,2"/><text x="1141.3333333333333" y="387.0" font-size="12" font-family="'JetBrains Mono', Menlo, Consolas, monospace" fill="#1f2933">local timer wheel</text><text x="1141.3333333333333" y="400.0" font-size="12" font-family="'JetBrains Mono', Menlo, Consolas, monospace" fill="#1f2933">(engine-held payload)</text><line x1="1203.3333333333333" y1="433.0" x2="1203.3333333333333" y2="443.0" stroke="#9aa5b1" stroke-width="1" stroke-dasharray="2,2"/><rect x="1277.3333333333333" y="456.0" width="80.66666666666667" height="24" rx="12.0" ry="12.0" fill="#f4f6f8" stroke="#9aa5b1" stroke-width="1"/><line x1="1286.3333333333333" y1="461.0" x2="1286.3333333333333" y2="475.0" stroke="#52606d" stroke-width="1.2"/><line x1="1317.6666666666665" y1="461.0" x2="1317.6666666666665" y2="475.0" stroke="#52606d" stroke-width="1.2"/><line x1="1349.0" y1="461.0" x2="1349.0" y2="475.0" stroke="#52606d" stroke-width="1.2"/><text x="1317.6666666666665" y="452.0" text-anchor="middle" font-size="12" font-style="italic" fill="#52606d">bounded</text><line x1="1269.3333333333333" y1="468" x2="1277.3333333333333" y2="468" stroke="#52606d" stroke-width="1.4"/><line x1="1358.0" y1="468" x2="1364.0" y2="468" stroke="#52606d" stroke-width="1.4" marker-end="url(#ah-pdata)"/><rect x="1366.0" y="443.0" width="132" height="50" rx="6" ry="6" fill="white" stroke="#52606d" stroke-width="1.4"/><rect x="1366.0" y="443.0" width="132" height="4" rx="2" ry="2" fill="#52606d"/><text x="1432.0" y="469.0" text-anchor="middle" font-size="16" font-family="'JetBrains Mono', Menlo, Consolas, monospace" font-weight="700" fill="#1f2933">otlp_grpc_exporter</text><text x="1432.0" y="484.0" text-anchor="middle" font-size="13" font-style="italic" fill="#52606d">exporter</text><rect x="1362.0" y="373.0" width="140" height="60" rx="6" ry="6" fill="#fafbfc" stroke="#9aa5b1" stroke-width="1" stroke-dasharray="2,2"/><text x="1370.0" y="387.0" font-size="12" font-family="'JetBrains Mono', Menlo, Consolas, monospace" fill="#1f2933">in-flight queue (max_in_flight)</text><text x="1370.0" y="400.0" font-size="12" font-family="'JetBrains Mono', Menlo, Consolas, monospace" fill="#1f2933">parked-message slot</text><text x="1370.0" y="413.0" font-size="12" font-family="'JetBrains Mono', Menlo, Consolas, monospace" fill="#1f2933">proto encoders + buffers</text><line x1="1432.0" y1="433.0" x2="1432.0" y2="443.0" stroke="#9aa5b1" stroke-width="1" stroke-dasharray="2,2"/><line x1="1490.0" y1="496" x2="688" y2="496" stroke="#52606d" stroke-width="1.0" stroke-dasharray="4,2" marker-end="url(#ah-ctrl)"/><text x="1089.0" y="492" text-anchor="middle" font-size="12" font-style="italic" fill="#52606d">ack / nack drains the slots</text><rect x="620" y="526" width="900" height="180" rx="10" ry="10" fill="white" stroke="#52606d" stroke-width="1.6"/><rect x="620" y="526" width="900" height="6" rx="3" ry="3" fill="#4f7a8a"/><text x="636" y="556" font-size="18" font-weight="700" fill="#1f2933">Engine Core N</text><text x="1506" y="556" text-anchor="end" font-size="16" font-style="italic" fill="#52606d">one tokio single-threaded runtime per pipeline</text><rect x="680" y="641.0" width="132" height="50" rx="6" ry="6" fill="white" stroke="#52606d" stroke-width="1.4"/><rect x="680" y="641.0" width="132" height="4" rx="2" ry="2" fill="#52606d"/><text x="746.0" y="667.0" text-anchor="middle" font-size="16" font-family="'JetBrains Mono', Menlo, Consolas, monospace" font-weight="700" fill="#1f2933">otap_receiver</text><text x="746.0" y="682.0" text-anchor="middle" font-size="13" font-style="italic" fill="#52606d">receiver</text><rect x="676" y="571.0" width="140" height="60" rx="6" ry="6" fill="#fafbfc" stroke="#9aa5b1" stroke-width="1" stroke-dasharray="2,2"/><text x="684" y="585.0" font-size="12" font-family="'JetBrains Mono', Menlo, Consolas, monospace" fill="#1f2933">shared admission state</text><text x="684" y="598.0" font-size="12" font-family="'JetBrains Mono', Menlo, Consolas, monospace" fill="#1f2933">ack subscription registry</text><text x="684" y="611.0" font-size="12" font-family="'JetBrains Mono', Menlo, Consolas, monospace" fill="#1f2933">rejection counters</text><line x1="746.0" y1="631.0" x2="746.0" y2="641.0" stroke="#9aa5b1" stroke-width="1" stroke-dasharray="2,2"/><rect x="820" y="654.0" width="80.66666666666667" height="24" rx="12.0" ry="12.0" fill="#f4f6f8" stroke="#9aa5b1" stroke-width="1"/><line x1="829.0" y1="659.0" x2="829.0" y2="673.0" stroke="#52606d" stroke-width="1.2"/><line x1="860.3333333333334" y1="659.0" x2="860.3333333333334" y2="673.0" stroke="#52606d" stroke-width="1.2"/><line x1="891.6666666666666" y1="659.0" x2="891.6666666666666" y2="673.0" stroke="#52606d" stroke-width="1.2"/><text x="860.3333333333334" y="650.0" text-anchor="middle" font-size="12" font-style="italic" fill="#52606d">bounded</text><line x1="812" y1="666" x2="820" y2="666" stroke="#52606d" stroke-width="1.4"/><line x1="900.6666666666666" y1="666" x2="906.6666666666666" y2="666" stroke="#52606d" stroke-width="1.4" marker-end="url(#ah-pdata)"/><rect x="908.6666666666666" y="641.0" width="132" height="50" rx="6" ry="6" fill="white" stroke="#52606d" stroke-width="1.4"/><rect x="908.6666666666666" y="641.0" width="132" height="4" rx="2" ry="2" fill="#52606d"/><text x="974.6666666666666" y="667.0" text-anchor="middle" font-size="16" font-family="'JetBrains Mono', Menlo, Consolas, monospace" font-weight="700" fill="#1f2933">batch</text><text x="974.6666666666666" y="682.0" text-anchor="middle" font-size="13" font-style="italic" fill="#52606d">processor</text><rect x="904.6666666666666" y="571.0" width="140" height="60" rx="6" ry="6" fill="#fafbfc" stroke="#9aa5b1" stroke-width="1" stroke-dasharray="2,2"/><text x="912.6666666666666" y="585.0" font-size="12" font-family="'JetBrains Mono', Menlo, Consolas, monospace" fill="#1f2933">pending batch buffers</text><text x="912.6666666666666" y="598.0" font-size="12" font-family="'JetBrains Mono', Menlo, Consolas, monospace" fill="#1f2933">inbound  ack/nack slots</text><text x="912.6666666666666" y="611.0" font-size="12" font-family="'JetBrains Mono', Menlo, Consolas, monospace" fill="#1f2933">outbound ack/nack slots</text><line x1="974.6666666666666" y1="631.0" x2="974.6666666666666" y2="641.0" stroke="#9aa5b1" stroke-width="1" stroke-dasharray="2,2"/><rect x="1048.6666666666665" y="654.0" width="80.66666666666667" height="24" rx="12.0" ry="12.0" fill="#f4f6f8" stroke="#9aa5b1" stroke-width="1"/><line x1="1057.6666666666665" y1="659.0" x2="1057.6666666666665" y2="673.0" stroke="#52606d" stroke-width="1.2"/><line x1="1088.9999999999998" y1="659.0" x2="1088.9999999999998" y2="673.0" stroke="#52606d" stroke-width="1.2"/><line x1="1120.3333333333333" y1="659.0" x2="1120.3333333333333" y2="673.0" stroke="#52606d" stroke-width="1.2"/><text x="1088.9999999999998" y="650.0" text-anchor="middle" font-size="12" font-style="italic" fill="#52606d">bounded</text><line x1="1040.6666666666665" y1="666" x2="1048.6666666666665" y2="666" stroke="#52606d" stroke-width="1.4"/><line x1="1129.3333333333333" y1="666" x2="1135.3333333333333" y2="666" stroke="#52606d" stroke-width="1.4" marker-end="url(#ah-pdata)"/><rect x="1137.3333333333333" y="641.0" width="132" height="50" rx="6" ry="6" fill="white" stroke="#52606d" stroke-width="1.4"/><rect x="1137.3333333333333" y="641.0" width="132" height="4" rx="2" ry="2" fill="#52606d"/><text x="1203.3333333333333" y="667.0" text-anchor="middle" font-size="16" font-family="'JetBrains Mono', Menlo, Consolas, monospace" font-weight="700" fill="#1f2933">retry</text><text x="1203.3333333333333" y="682.0" text-anchor="middle" font-size="13" font-style="italic" fill="#52606d">processor</text><rect x="1133.3333333333333" y="571.0" width="140" height="60" rx="6" ry="6" fill="#fafbfc" stroke="#9aa5b1" stroke-width="1" stroke-dasharray="2,2"/><text x="1141.3333333333333" y="585.0" font-size="12" font-family="'JetBrains Mono', Menlo, Consolas, monospace" fill="#1f2933">local timer wheel</text><text x="1141.3333333333333" y="598.0" font-size="12" font-family="'JetBrains Mono', Menlo, Consolas, monospace" fill="#1f2933">(engine-held payload)</text><line x1="1203.3333333333333" y1="631.0" x2="1203.3333333333333" y2="641.0" stroke="#9aa5b1" stroke-width="1" stroke-dasharray="2,2"/><rect x="1277.3333333333333" y="654.0" width="80.66666666666667" height="24" rx="12.0" ry="12.0" fill="#f4f6f8" stroke="#9aa5b1" stroke-width="1"/><line x1="1286.3333333333333" y1="659.0" x2="1286.3333333333333" y2="673.0" stroke="#52606d" stroke-width="1.2"/><line x1="1317.6666666666665" y1="659.0" x2="1317.6666666666665" y2="673.0" stroke="#52606d" stroke-width="1.2"/><line x1="1349.0" y1="659.0" x2="1349.0" y2="673.0" stroke="#52606d" stroke-width="1.2"/><text x="1317.6666666666665" y="650.0" text-anchor="middle" font-size="12" font-style="italic" fill="#52606d">bounded</text><line x1="1269.3333333333333" y1="666" x2="1277.3333333333333" y2="666" stroke="#52606d" stroke-width="1.4"/><line x1="1358.0" y1="666" x2="1364.0" y2="666" stroke="#52606d" stroke-width="1.4" marker-end="url(#ah-pdata)"/><rect x="1366.0" y="641.0" width="132" height="50" rx="6" ry="6" fill="white" stroke="#52606d" stroke-width="1.4"/><rect x="1366.0" y="641.0" width="132" height="4" rx="2" ry="2" fill="#52606d"/><text x="1432.0" y="667.0" text-anchor="middle" font-size="16" font-family="'JetBrains Mono', Menlo, Consolas, monospace" font-weight="700" fill="#1f2933">otlp_grpc_exporter</text><text x="1432.0" y="682.0" text-anchor="middle" font-size="13" font-style="italic" fill="#52606d">exporter</text><rect x="1362.0" y="571.0" width="140" height="60" rx="6" ry="6" fill="#fafbfc" stroke="#9aa5b1" stroke-width="1" stroke-dasharray="2,2"/><text x="1370.0" y="585.0" font-size="12" font-family="'JetBrains Mono', Menlo, Consolas, monospace" fill="#1f2933">in-flight queue (max_in_flight)</text><text x="1370.0" y="598.0" font-size="12" font-family="'JetBrains Mono', Menlo, Consolas, monospace" fill="#1f2933">parked-message slot</text><text x="1370.0" y="611.0" font-size="12" font-family="'JetBrains Mono', Menlo, Consolas, monospace" fill="#1f2933">proto encoders + buffers</text><line x1="1432.0" y1="631.0" x2="1432.0" y2="641.0" stroke="#9aa5b1" stroke-width="1" stroke-dasharray="2,2"/><line x1="1490.0" y1="694" x2="688" y2="694" stroke="#52606d" stroke-width="1.0" stroke-dasharray="4,2" marker-end="url(#ah-ctrl)"/><text x="1089.0" y="690" text-anchor="middle" font-size="12" font-style="italic" fill="#52606d">ack / nack drains the slots</text><path d="M538,690.0 L609.0,690.0 L609.0,270 L674,270" fill="none" stroke="#b15a4f" stroke-width="1.2" stroke-dasharray="5,3" marker-end="url(#ah-ctrl)" opacity="0.85"/><text x="615.0" y="682.0" font-size="16" font-family="'JetBrains Mono', Menlo, Consolas, monospace" fill="#b15a4f">memory_pressure watch → every core</text><path d="M538,690.0 L609.0,690.0 L609.0,468 L674,468" fill="none" stroke="#b15a4f" stroke-width="1.2" stroke-dasharray="5,3" marker-end="url(#ah-ctrl)" opacity="0.85"/><path d="M538,690.0 L609.0,690.0 L609.0,666 L674,666" fill="none" stroke="#b15a4f" stroke-width="1.2" stroke-dasharray="5,3" marker-end="url(#ah-ctrl)" opacity="0.85"/><rect x="80" y="760" width="1440" height="70" rx="10" ry="10" fill="#f4f6f8" stroke="#9aa5b1" stroke-width="1"/><circle cx="102.0" cy="795.0" r="13" fill="#4f7a8a"/><text x="102.0" y="800.0" text-anchor="middle" font-size="18" font-weight="700" fill="white">1</text><text x="126.0" y="792.0" font-size="18" font-weight="700" fill="#1f2933">All buffers are sized at construction.</text><text x="126.0" y="811.0" font-size="16" font-style="italic" fill="#52606d">no unbounded growth anywhere</text><circle cx="582.0" cy="795.0" r="13" fill="#4f7a8a"/><text x="582.0" y="800.0" text-anchor="middle" font-size="18" font-weight="700" fill="white">2</text><text x="606.0" y="792.0" font-size="18" font-weight="700" fill="#1f2933">Backpressure flows backwards via Ack/Nack.</text><text x="606.0" y="811.0" font-size="16" font-style="italic" fill="#52606d">drains the in-flight slots</text><circle cx="1062.0" cy="795.0" r="13" fill="#4f7a8a"/><text x="1062.0" y="800.0" text-anchor="middle" font-size="18" font-weight="700" fill="white">3</text><text x="1086.0" y="792.0" font-size="18" font-weight="700" fill="#1f2933">Hard pressure sheds at ingress.</text><text x="1086.0" y="811.0" font-size="16" font-style="italic" fill="#52606d">receivers reject with Retry-After</text></svg>