<svg xmlns="http://www.w3.org/2000/svg" width="1600" height="850" viewBox="0 0 1600 850" font-family="Inter, 'Helvetica Neue', Arial, sans-serif"><rect width="1600" height="850" fill="#ffffff"/><defs><marker id="ah-pdata" viewBox="0 0 10 10" refX="9" refY="5" markerWidth="7" markerHeight="7" orient="auto-start-reverse" markerUnits="userSpaceOnUse"><path d="M0,0 L10,5 L0,10 z" fill="context-stroke"/></marker><marker id="ah-ctrl" viewBox="0 0 10 10" refX="9" refY="5" markerWidth="6" markerHeight="6" orient="auto-start-reverse" markerUnits="userSpaceOnUse"><path d="M0,1 L10,5 L0,9" fill="none" stroke="context-stroke" stroke-width="1.4"/></marker></defs><rect x="80" y="60" width="1440" height="2" fill="#4f7a8a"/><text x="80" y="42" font-size="34" font-weight="600" fill="#1f2933">Memory and backpressure</text><text x="1520" y="42" font-size="20" font-family="'JetBrains Mono', Menlo, Consolas, monospace" fill="#52606d" text-anchor="end">MemoryPressureState + bounded per-node state</text><text x="80" y="90" font-size="20" font-style="italic" fill="#52606d">Every queue and slot is named, sized, and visible to the process-memory-limiter.</text><rect x="80" y="130" width="480" height="600" rx="14" ry="14" fill="white" stroke="#52606d" stroke-width="1.6"/><rect x="80" y="130" width="480" height="6" rx="3" ry="3" fill="#52606d"/><text x="102" y="164" font-size="26" font-weight="700" fill="#1f2933">Controller process</text><text x="544" y="158" text-anchor="end" font-size="18" font-family="'JetBrains Mono', Menlo, Consolas, monospace" fill="#52606d">ControllerRuntime</text><rect x="102" y="194" width="436" height="290" rx="10" ry="10" fill="white" stroke="#9aa5b1" stroke-width="1.4"/><text x="114" y="216" font-size="18" font-family="'JetBrains Mono', Menlo, Consolas, monospace" font-weight="700" fill="#1f2933">process-memory-limiter</text><text x="114" y="242" font-size="18" font-weight="700" fill="#1f2933">MemoryPressureState</text><text x="526" y="242" text-anchor="end" font-size="16" font-style="italic" fill="#52606d">Arc&lt;…Inner&gt; — fixed</text><text x="120" y="260" font-size="16" font-family="'JetBrains Mono', Menlo, Consolas, monospace" font-weight="700" fill="#1f2933">level</text><text x="520" y="260" text-anchor="end" font-size="16" font-family="'JetBrains Mono', Menlo, Consolas, monospace" fill="#52606d">AtomicU8</text><text x="120" y="278" font-size="16" font-family="'JetBrains Mono', Menlo, Consolas, monospace" font-weight="700" fill="#1f2933">usage_bytes</text><text x="520" y="278" text-anchor="end" font-size="16" font-family="'JetBrains Mono', Menlo, Consolas, monospace" fill="#52606d">AtomicU64</text><text x="120" y="296" font-size="16" font-family="'JetBrains Mono', Menlo, Consolas, monospace" font-weight="700" fill="#1f2933">soft_limit_bytes</text><text x="520" y="296" text-anchor="end" font-size="16" font-family="'JetBrains Mono', Menlo, Consolas, monospace" fill="#52606d">AtomicU64</text><text x="120" y="314" font-size="16" font-family="'JetBrains Mono', Menlo, Consolas, monospace" font-weight="700" fill="#1f2933">hard_limit_bytes</text><text x="520" y="314" text-anchor="end" font-size="16" font-family="'JetBrains Mono', Menlo, Consolas, monospace" fill="#52606d">AtomicU64</text><text x="120" y="332" font-size="16" font-family="'JetBrains Mono', Menlo, Consolas, monospace" font-weight="700" fill="#1f2933">retry_after_secs</text><text x="520" y="332" text-anchor="end" font-size="16" font-family="'JetBrains Mono', Menlo, Consolas, monospace" fill="#52606d">AtomicU32</text><text x="120" y="350" font-size="16" font-family="'JetBrains Mono', Menlo, Consolas, monospace" font-weight="700" fill="#1f2933">mode</text><text x="520" y="350" text-anchor="end" font-size="16" font-family="'JetBrains Mono', Menlo, Consolas, monospace" fill="#52606d">AtomicU8</text><text x="120" y="368" font-size="16" font-family="'JetBrains Mono', Menlo, Consolas, monospace" font-weight="700" fill="#1f2933">fail_readiness_on_hard</text><text x="520" y="368" text-anchor="end" font-size="16" font-family="'JetBrains Mono', Menlo, Consolas, monospace" fill="#52606d">AtomicBool</text><rect x="114" y="398" width="132.0" height="26" rx="6" ry="6" fill="#3f8f5f" stroke="#3f8f5f"/><text x="180.0" y="416.0" text-anchor="middle" font-size="16" font-family="'JetBrains Mono', Menlo, Consolas, monospace" font-weight="700" fill="white">Normal</text><rect x="254.0" y="398" width="132.0" height="26" rx="6" ry="6" fill="#c9943a" stroke="#c9943a"/><text x="320.0" y="416.0" text-anchor="middle" font-size="16" font-family="'JetBrains Mono', Menlo, Consolas, monospace" font-weight="700" fill="white">Soft</text><rect x="394.0" y="398" width="132.0" height="26" rx="6" ry="6" fill="#b15a4f" stroke="#b15a4f"/><text x="460.0" y="416.0" text-anchor="middle" font-size="16" font-family="'JetBrains Mono', Menlo, Consolas, monospace" font-weight="700" fill="white">Hard</text><text x="102" y="506" font-size="18" font-weight="700" fill="#1f2933">MemoryLimiterPolicy</text><text x="538" y="506" text-anchor="end" font-size="16" font-style="italic" fill="#52606d">policies.resources.memory_limiter</text><text x="108" y="524" font-size="16" font-family="'JetBrains Mono', Menlo, Consolas, monospace" font-weight="700" fill="#1f2933">mode</text><text x="532" y="524" text-anchor="end" font-size="16" font-family="'JetBrains Mono', Menlo, Consolas, monospace" fill="#52606d">MemoryLimiterMode</text><text x="108" y="540" font-size="16" font-family="'JetBrains Mono', Menlo, Consolas, monospace" font-weight="700" fill="#1f2933">source</text><text x="532" y="540" text-anchor="end" font-size="16" font-family="'JetBrains Mono', Menlo, Consolas, monospace" fill="#52606d">MemoryLimiterSource</text><text x="108" y="556" font-size="16" font-family="'JetBrains Mono', Menlo, Consolas, monospace" font-weight="700" fill="#1f2933">check_interval</text><text x="532" y="556" text-anchor="end" font-size="16" font-family="'JetBrains Mono', Menlo, Consolas, monospace" fill="#52606d">Duration</text><text x="108" y="572" font-size="16" font-family="'JetBrains Mono', Menlo, Consolas, monospace" font-weight="700" fill="#1f2933">soft_limit / hard_limit</text><text x="532" y="572" text-anchor="end" font-size="16" font-family="'JetBrains Mono', Menlo, Consolas, monospace" fill="#52606d">Option&lt;u64&gt;</text><text x="108" y="588" font-size="16" font-family="'JetBrains Mono', Menlo, Consolas, monospace" font-weight="700" fill="#1f2933">hysteresis</text><text x="532" y="588" text-anchor="end" font-size="16" font-family="'JetBrains Mono', Menlo, Consolas, monospace" fill="#52606d">Option&lt;u64&gt;</text><text x="108" y="604" font-size="16" font-family="'JetBrains Mono', Menlo, Consolas, monospace" font-weight="700" fill="#1f2933">retry_after_secs</text><text x="532" y="604" text-anchor="end" font-size="16" font-family="'JetBrains Mono', Menlo, Consolas, monospace" fill="#52606d">u32</text><text x="108" y="620" font-size="16" font-family="'JetBrains Mono', Menlo, Consolas, monospace" font-weight="700" fill="#1f2933">fail_readiness_on_hard</text><text x="532" y="620" text-anchor="end" font-size="16" font-family="'JetBrains Mono', Menlo, Consolas, monospace" fill="#52606d">bool</text><text x="108" y="636" font-size="16" font-family="'JetBrains Mono', Menlo, Consolas, monospace" font-weight="700" fill="#1f2933">purge_on_hard</text><text x="532" y="636" text-anchor="end" font-size="16" font-family="'JetBrains Mono', Menlo, Consolas, monospace" fill="#52606d">bool</text><rect x="102" y="672" width="436" height="36" rx="14" ry="14" fill="#fbf3f2" stroke="#b15a4f" stroke-width="1.4"/><text x="114" y="695.0" font-size="18" font-family="'JetBrains Mono', Menlo, Consolas, monospace" font-weight="700" fill="#1f2933">memory_pressure watch</text><text x="526" y="695.0" text-anchor="end" font-size="16" font-style="italic" fill="#52606d">tokio::sync::watch</text><rect x="620" y="130" width="900" height="175" rx="10" ry="10" fill="white" stroke="#52606d" stroke-width="1.6"/><rect x="620" y="130" width="900" height="6" rx="3" ry="3" fill="#4f7a8a"/><text x="636" y="160" font-size="18" font-weight="700" fill="#1f2933">Engine Core 0</text><rect x="710" y="234" width="132" height="50" rx="6" ry="6" fill="white" stroke="#52606d" stroke-width="1.4"/><rect x="710" y="234" width="132" height="4" rx="2" ry="2" fill="#52606d"/><text x="776.0" y="260.0" text-anchor="middle" font-size="16" font-family="'JetBrains Mono', Menlo, Consolas, monospace" font-weight="700" fill="#1f2933">receiver</text><text x="776.0" y="275.0" text-anchor="middle" font-size="13" font-style="italic" fill="#52606d">receiver</text><rect x="710.0" y="180" width="132.0" height="32" rx="4" ry="4" fill="#f4f6f8" stroke="#52606d" stroke-width="1"/><text x="776.0" y="200.0" text-anchor="middle" font-size="14" font-family="'JetBrains Mono', Menlo, Consolas, monospace" fill="#1f2933">pending</text><text x="776.0" y="176" text-anchor="middle" font-size="12" font-style="italic" fill="#52606d">slotmap</text><line x1="776.0" y1="212" x2="776.0" y2="234" stroke="#9aa5b1" stroke-width="1" stroke-dasharray="2,2"/><rect x="856" y="247.0" width="60" height="24" rx="12.0" ry="12.0" fill="#f4f6f8" stroke="#9aa5b1" stroke-width="1"/><line x1="865.0" y1="252.0" x2="865.0" y2="266.0" stroke="#52606d" stroke-width="1.2"/><line x1="886.0" y1="252.0" x2="886.0" y2="266.0" stroke="#52606d" stroke-width="1.2"/><line x1="907.0" y1="252.0" x2="907.0" y2="266.0" stroke="#52606d" stroke-width="1.2"/><text x="886.0" y="243.0" text-anchor="middle" font-size="12" font-style="italic" fill="#52606d">bounded</text><line x1="842" y1="259.0" x2="856" y2="259.0" stroke="#52606d" stroke-width="1.4"/><line x1="916" y1="259.0" x2="928" y2="259.0" stroke="#52606d" stroke-width="1.4" marker-end="url(#ah-pdata)"/><rect x="930" y="234" width="132" height="50" rx="6" ry="6" fill="white" stroke="#52606d" stroke-width="1.4"/><rect x="930" y="234" width="132" height="4" rx="2" ry="2" fill="#52606d"/><text x="996.0" y="260.0" text-anchor="middle" font-size="16" font-family="'JetBrains Mono', Menlo, Consolas, monospace" font-weight="700" fill="#1f2933">batch</text><text x="996.0" y="275.0" text-anchor="middle" font-size="13" font-style="italic" fill="#52606d">processor</text><rect x="930.0" y="180" width="62.0" height="32" rx="4" ry="4" fill="#f4f6f8" stroke="#52606d" stroke-width="1"/><text x="961.0" y="200.0" text-anchor="middle" font-size="14" font-family="'JetBrains Mono', Menlo, Consolas, monospace" fill="#1f2933">inbound</text><text x="961.0" y="176" text-anchor="middle" font-size="12" font-style="italic" fill="#52606d">slotmap</text><line x1="961.0" y1="212" x2="961.0" y2="234" stroke="#9aa5b1" stroke-width="1" stroke-dasharray="2,2"/><rect x="1000.0" y="180" width="62.0" height="32" rx="4" ry="4" fill="#f4f6f8" stroke="#52606d" stroke-width="1"/><text x="1031.0" y="200.0" text-anchor="middle" font-size="14" font-family="'JetBrains Mono', Menlo, Consolas, monospace" fill="#1f2933">outbound</text><text x="1031.0" y="176" text-anchor="middle" font-size="12" font-style="italic" fill="#52606d">slotmap</text><line x1="1031.0" y1="212" x2="1031.0" y2="234" stroke="#9aa5b1" stroke-width="1" stroke-dasharray="2,2"/><rect x="1076" y="247.0" width="60" height="24" rx="12.0" ry="12.0" fill="#f4f6f8" stroke="#9aa5b1" stroke-width="1"/><line x1="1085.0" y1="252.0" x2="1085.0" y2="266.0" stroke="#52606d" stroke-width="1.2"/><line x1="1106.0" y1="252.0" x2="1106.0" y2="266.0" stroke="#52606d" stroke-width="1.2"/><line x1="1127.0" y1="252.0" x2="1127.0" y2="266.0" stroke="#52606d" stroke-width="1.2"/><text x="1106.0" y="243.0" text-anchor="middle" font-size="12" font-style="italic" fill="#52606d">bounded</text><line x1="1062" y1="259.0" x2="1076" y2="259.0" stroke="#52606d" stroke-width="1.4"/><line x1="1136" y1="259.0" x2="1148" y2="259.0" stroke="#52606d" stroke-width="1.4" marker-end="url(#ah-pdata)"/><rect x="1150" y="234" width="132" height="50" rx="6" ry="6" fill="white" stroke="#52606d" stroke-width="1.4"/><rect x="1150" y="234" width="132" height="4" rx="2" ry="2" fill="#52606d"/><text x="1216.0" y="260.0" text-anchor="middle" font-size="16" font-family="'JetBrains Mono', Menlo, Consolas, monospace" font-weight="700" fill="#1f2933">retry</text><text x="1216.0" y="275.0" text-anchor="middle" font-size="13" font-style="italic" fill="#52606d">processor</text><rect x="1296" y="247.0" width="60" height="24" rx="12.0" ry="12.0" fill="#f4f6f8" stroke="#9aa5b1" stroke-width="1"/><line x1="1305.0" y1="252.0" x2="1305.0" y2="266.0" stroke="#52606d" stroke-width="1.2"/><line x1="1326.0" y1="252.0" x2="1326.0" y2="266.0" stroke="#52606d" stroke-width="1.2"/><line x1="1347.0" y1="252.0" x2="1347.0" y2="266.0" stroke="#52606d" stroke-width="1.2"/><text x="1326.0" y="243.0" text-anchor="middle" font-size="12" font-style="italic" fill="#52606d">bounded</text><line x1="1282" y1="259.0" x2="1296" y2="259.0" stroke="#52606d" stroke-width="1.4"/><line x1="1356" y1="259.0" x2="1368" y2="259.0" stroke="#52606d" stroke-width="1.4" marker-end="url(#ah-pdata)"/><rect x="1370" y="234" width="132" height="50" rx="6" ry="6" fill="white" stroke="#52606d" stroke-width="1.4"/><rect x="1370" y="234" width="132" height="4" rx="2" ry="2" fill="#52606d"/><text x="1436.0" y="260.0" text-anchor="middle" font-size="16" font-family="'JetBrains Mono', Menlo, Consolas, monospace" font-weight="700" fill="#1f2933">exporter</text><text x="1436.0" y="275.0" text-anchor="middle" font-size="13" font-style="italic" fill="#52606d">exporter</text><rect x="1370.0" y="180" width="132.0" height="32" rx="4" ry="4" fill="#f4f6f8" stroke="#52606d" stroke-width="1"/><text x="1436.0" y="200.0" text-anchor="middle" font-size="14" font-family="'JetBrains Mono', Menlo, Consolas, monospace" fill="#1f2933">inflight</text><text x="1436.0" y="176" text-anchor="middle" font-size="12" font-style="italic" fill="#52606d">slotmap</text><line x1="1436.0" y1="212" x2="1436.0" y2="234" stroke="#9aa5b1" stroke-width="1" stroke-dasharray="2,2"/><rect x="620" y="331" width="900" height="175" rx="10" ry="10" fill="white" stroke="#52606d" stroke-width="1.6"/><rect x="620" y="331" width="900" height="6" rx="3" ry="3" fill="#4f7a8a"/><text x="636" y="361" font-size="18" font-weight="700" fill="#1f2933">Engine Core 1</text><rect x="710" y="435" width="132" height="50" rx="6" ry="6" fill="white" stroke="#52606d" stroke-width="1.4"/><rect x="710" y="435" width="132" height="4" rx="2" ry="2" fill="#52606d"/><text x="776.0" y="461.0" text-anchor="middle" font-size="16" font-family="'JetBrains Mono', Menlo, Consolas, monospace" font-weight="700" fill="#1f2933">receiver</text><text x="776.0" y="476.0" text-anchor="middle" font-size="13" font-style="italic" fill="#52606d">receiver</text><rect x="710.0" y="381" width="132.0" height="32" rx="4" ry="4" fill="#f4f6f8" stroke="#52606d" stroke-width="1"/><text x="776.0" y="401.0" text-anchor="middle" font-size="14" font-family="'JetBrains Mono', Menlo, Consolas, monospace" fill="#1f2933">pending</text><text x="776.0" y="377" text-anchor="middle" font-size="12" font-style="italic" fill="#52606d">slotmap</text><line x1="776.0" y1="413" x2="776.0" y2="435" stroke="#9aa5b1" stroke-width="1" stroke-dasharray="2,2"/><rect x="856" y="448.0" width="60" height="24" rx="12.0" ry="12.0" fill="#f4f6f8" stroke="#9aa5b1" stroke-width="1"/><line x1="865.0" y1="453.0" x2="865.0" y2="467.0" stroke="#52606d" stroke-width="1.2"/><line x1="886.0" y1="453.0" x2="886.0" y2="467.0" stroke="#52606d" stroke-width="1.2"/><line x1="907.0" y1="453.0" x2="907.0" y2="467.0" stroke="#52606d" stroke-width="1.2"/><text x="886.0" y="444.0" text-anchor="middle" font-size="12" font-style="italic" fill="#52606d">bounded</text><line x1="842" y1="460.0" x2="856" y2="460.0" stroke="#52606d" stroke-width="1.4"/><line x1="916" y1="460.0" x2="928" y2="460.0" stroke="#52606d" stroke-width="1.4" marker-end="url(#ah-pdata)"/><rect x="930" y="435" width="132" height="50" rx="6" ry="6" fill="white" stroke="#52606d" stroke-width="1.4"/><rect x="930" y="435" width="132" height="4" rx="2" ry="2" fill="#52606d"/><text x="996.0" y="461.0" text-anchor="middle" font-size="16" font-family="'JetBrains Mono', Menlo, Consolas, monospace" font-weight="700" fill="#1f2933">batch</text><text x="996.0" y="476.0" text-anchor="middle" font-size="13" font-style="italic" fill="#52606d">processor</text><rect x="930.0" y="381" width="62.0" height="32" rx="4" ry="4" fill="#f4f6f8" stroke="#52606d" stroke-width="1"/><text x="961.0" y="401.0" text-anchor="middle" font-size="14" font-family="'JetBrains Mono', Menlo, Consolas, monospace" fill="#1f2933">inbound</text><text x="961.0" y="377" text-anchor="middle" font-size="12" font-style="italic" fill="#52606d">slotmap</text><line x1="961.0" y1="413" x2="961.0" y2="435" stroke="#9aa5b1" stroke-width="1" stroke-dasharray="2,2"/><rect x="1000.0" y="381" width="62.0" height="32" rx="4" ry="4" fill="#f4f6f8" stroke="#52606d" stroke-width="1"/><text x="1031.0" y="401.0" text-anchor="middle" font-size="14" font-family="'JetBrains Mono', Menlo, Consolas, monospace" fill="#1f2933">outbound</text><text x="1031.0" y="377" text-anchor="middle" font-size="12" font-style="italic" fill="#52606d">slotmap</text><line x1="1031.0" y1="413" x2="1031.0" y2="435" stroke="#9aa5b1" stroke-width="1" stroke-dasharray="2,2"/><rect x="1076" y="448.0" width="60" height="24" rx="12.0" ry="12.0" fill="#f4f6f8" stroke="#9aa5b1" stroke-width="1"/><line x1="1085.0" y1="453.0" x2="1085.0" y2="467.0" stroke="#52606d" stroke-width="1.2"/><line x1="1106.0" y1="453.0" x2="1106.0" y2="467.0" stroke="#52606d" stroke-width="1.2"/><line x1="1127.0" y1="453.0" x2="1127.0" y2="467.0" stroke="#52606d" stroke-width="1.2"/><text x="1106.0" y="444.0" text-anchor="middle" font-size="12" font-style="italic" fill="#52606d">bounded</text><line x1="1062" y1="460.0" x2="1076" y2="460.0" stroke="#52606d" stroke-width="1.4"/><line x1="1136" y1="460.0" x2="1148" y2="460.0" stroke="#52606d" stroke-width="1.4" marker-end="url(#ah-pdata)"/><rect x="1150" y="435" width="132" height="50" rx="6" ry="6" fill="white" stroke="#52606d" stroke-width="1.4"/><rect x="1150" y="435" width="132" height="4" rx="2" ry="2" fill="#52606d"/><text x="1216.0" y="461.0" text-anchor="middle" font-size="16" font-family="'JetBrains Mono', Menlo, Consolas, monospace" font-weight="700" fill="#1f2933">retry</text><text x="1216.0" y="476.0" text-anchor="middle" font-size="13" font-style="italic" fill="#52606d">processor</text><rect x="1296" y="448.0" width="60" height="24" rx="12.0" ry="12.0" fill="#f4f6f8" stroke="#9aa5b1" stroke-width="1"/><line x1="1305.0" y1="453.0" x2="1305.0" y2="467.0" stroke="#52606d" stroke-width="1.2"/><line x1="1326.0" y1="453.0" x2="1326.0" y2="467.0" stroke="#52606d" stroke-width="1.2"/><line x1="1347.0" y1="453.0" x2="1347.0" y2="467.0" stroke="#52606d" stroke-width="1.2"/><text x="1326.0" y="444.0" text-anchor="middle" font-size="12" font-style="italic" fill="#52606d">bounded</text><line x1="1282" y1="460.0" x2="1296" y2="460.0" stroke="#52606d" stroke-width="1.4"/><line x1="1356" y1="460.0" x2="1368" y2="460.0" stroke="#52606d" stroke-width="1.4" marker-end="url(#ah-pdata)"/><rect x="1370" y="435" width="132" height="50" rx="6" ry="6" fill="white" stroke="#52606d" stroke-width="1.4"/><rect x="1370" y="435" width="132" height="4" rx="2" ry="2" fill="#52606d"/><text x="1436.0" y="461.0" text-anchor="middle" font-size="16" font-family="'JetBrains Mono', Menlo, Consolas, monospace" font-weight="700" fill="#1f2933">exporter</text><text x="1436.0" y="476.0" text-anchor="middle" font-size="13" font-style="italic" fill="#52606d">exporter</text><rect x="1370.0" y="381" width="132.0" height="32" rx="4" ry="4" fill="#f4f6f8" stroke="#52606d" stroke-width="1"/><text x="1436.0" y="401.0" text-anchor="middle" font-size="14" font-family="'JetBrains Mono', Menlo, Consolas, monospace" fill="#1f2933">inflight</text><text x="1436.0" y="377" text-anchor="middle" font-size="12" font-style="italic" fill="#52606d">slotmap</text><line x1="1436.0" y1="413" x2="1436.0" y2="435" stroke="#9aa5b1" stroke-width="1" stroke-dasharray="2,2"/><rect x="620" y="532" width="900" height="175" rx="10" ry="10" fill="white" stroke="#52606d" stroke-width="1.6"/><rect x="620" y="532" width="900" height="6" rx="3" ry="3" fill="#4f7a8a"/><text x="636" y="562" font-size="18" font-weight="700" fill="#1f2933">Engine Core N</text><rect x="710" y="636" width="132" height="50" rx="6" ry="6" fill="white" stroke="#52606d" stroke-width="1.4"/><rect x="710" y="636" width="132" height="4" rx="2" ry="2" fill="#52606d"/><text x="776.0" y="662.0" text-anchor="middle" font-size="16" font-family="'JetBrains Mono', Menlo, Consolas, monospace" font-weight="700" fill="#1f2933">receiver</text><text x="776.0" y="677.0" text-anchor="middle" font-size="13" font-style="italic" fill="#52606d">receiver</text><rect x="710.0" y="582" width="132.0" height="32" rx="4" ry="4" fill="#f4f6f8" stroke="#52606d" stroke-width="1"/><text x="776.0" y="602.0" text-anchor="middle" font-size="14" font-family="'JetBrains Mono', Menlo, Consolas, monospace" fill="#1f2933">pending</text><text x="776.0" y="578" text-anchor="middle" font-size="12" font-style="italic" fill="#52606d">slotmap</text><line x1="776.0" y1="614" x2="776.0" y2="636" stroke="#9aa5b1" stroke-width="1" stroke-dasharray="2,2"/><rect x="856" y="649.0" width="60" height="24" rx="12.0" ry="12.0" fill="#f4f6f8" stroke="#9aa5b1" stroke-width="1"/><line x1="865.0" y1="654.0" x2="865.0" y2="668.0" stroke="#52606d" stroke-width="1.2"/><line x1="886.0" y1="654.0" x2="886.0" y2="668.0" stroke="#52606d" stroke-width="1.2"/><line x1="907.0" y1="654.0" x2="907.0" y2="668.0" stroke="#52606d" stroke-width="1.2"/><text x="886.0" y="645.0" text-anchor="middle" font-size="12" font-style="italic" fill="#52606d">bounded</text><line x1="842" y1="661.0" x2="856" y2="661.0" stroke="#52606d" stroke-width="1.4"/><line x1="916" y1="661.0" x2="928" y2="661.0" stroke="#52606d" stroke-width="1.4" marker-end="url(#ah-pdata)"/><rect x="930" y="636" width="132" height="50" rx="6" ry="6" fill="white" stroke="#52606d" stroke-width="1.4"/><rect x="930" y="636" width="132" height="4" rx="2" ry="2" fill="#52606d"/><text x="996.0" y="662.0" text-anchor="middle" font-size="16" font-family="'JetBrains Mono', Menlo, Consolas, monospace" font-weight="700" fill="#1f2933">batch</text><text x="996.0" y="677.0" text-anchor="middle" font-size="13" font-style="italic" fill="#52606d">processor</text><rect x="930.0" y="582" width="62.0" height="32" rx="4" ry="4" fill="#f4f6f8" stroke="#52606d" stroke-width="1"/><text x="961.0" y="602.0" text-anchor="middle" font-size="14" font-family="'JetBrains Mono', Menlo, Consolas, monospace" fill="#1f2933">inbound</text><text x="961.0" y="578" text-anchor="middle" font-size="12" font-style="italic" fill="#52606d">slotmap</text><line x1="961.0" y1="614" x2="961.0" y2="636" stroke="#9aa5b1" stroke-width="1" stroke-dasharray="2,2"/><rect x="1000.0" y="582" width="62.0" height="32" rx="4" ry="4" fill="#f4f6f8" stroke="#52606d" stroke-width="1"/><text x="1031.0" y="602.0" text-anchor="middle" font-size="14" font-family="'JetBrains Mono', Menlo, Consolas, monospace" fill="#1f2933">outbound</text><text x="1031.0" y="578" text-anchor="middle" font-size="12" font-style="italic" fill="#52606d">slotmap</text><line x1="1031.0" y1="614" x2="1031.0" y2="636" stroke="#9aa5b1" stroke-width="1" stroke-dasharray="2,2"/><rect x="1076" y="649.0" width="60" height="24" rx="12.0" ry="12.0" fill="#f4f6f8" stroke="#9aa5b1" stroke-width="1"/><line x1="1085.0" y1="654.0" x2="1085.0" y2="668.0" stroke="#52606d" stroke-width="1.2"/><line x1="1106.0" y1="654.0" x2="1106.0" y2="668.0" stroke="#52606d" stroke-width="1.2"/><line x1="1127.0" y1="654.0" x2="1127.0" y2="668.0" stroke="#52606d" stroke-width="1.2"/><text x="1106.0" y="645.0" text-anchor="middle" font-size="12" font-style="italic" fill="#52606d">bounded</text><line x1="1062" y1="661.0" x2="1076" y2="661.0" stroke="#52606d" stroke-width="1.4"/><line x1="1136" y1="661.0" x2="1148" y2="661.0" stroke="#52606d" stroke-width="1.4" marker-end="url(#ah-pdata)"/><rect x="1150" y="636" width="132" height="50" rx="6" ry="6" fill="white" stroke="#52606d" stroke-width="1.4"/><rect x="1150" y="636" width="132" height="4" rx="2" ry="2" fill="#52606d"/><text x="1216.0" y="662.0" text-anchor="middle" font-size="16" font-family="'JetBrains Mono', Menlo, Consolas, monospace" font-weight="700" fill="#1f2933">retry</text><text x="1216.0" y="677.0" text-anchor="middle" font-size="13" font-style="italic" fill="#52606d">processor</text><rect x="1296" y="649.0" width="60" height="24" rx="12.0" ry="12.0" fill="#f4f6f8" stroke="#9aa5b1" stroke-width="1"/><line x1="1305.0" y1="654.0" x2="1305.0" y2="668.0" stroke="#52606d" stroke-width="1.2"/><line x1="1326.0" y1="654.0" x2="1326.0" y2="668.0" stroke="#52606d" stroke-width="1.2"/><line x1="1347.0" y1="654.0" x2="1347.0" y2="668.0" stroke="#52606d" stroke-width="1.2"/><text x="1326.0" y="645.0" text-anchor="middle" font-size="12" font-style="italic" fill="#52606d">bounded</text><line x1="1282" y1="661.0" x2="1296" y2="661.0" stroke="#52606d" stroke-width="1.4"/><line x1="1356" y1="661.0" x2="1368" y2="661.0" stroke="#52606d" stroke-width="1.4" marker-end="url(#ah-pdata)"/><rect x="1370" y="636" width="132" height="50" rx="6" ry="6" fill="white" stroke="#52606d" stroke-width="1.4"/><rect x="1370" y="636" width="132" height="4" rx="2" ry="2" fill="#52606d"/><text x="1436.0" y="662.0" text-anchor="middle" font-size="16" font-family="'JetBrains Mono', Menlo, Consolas, monospace" font-weight="700" fill="#1f2933">exporter</text><text x="1436.0" y="677.0" text-anchor="middle" font-size="13" font-style="italic" fill="#52606d">exporter</text><rect x="1370.0" y="582" width="132.0" height="32" rx="4" ry="4" fill="#f4f6f8" stroke="#52606d" stroke-width="1"/><text x="1436.0" y="602.0" text-anchor="middle" font-size="14" font-family="'JetBrains Mono', Menlo, Consolas, monospace" fill="#1f2933">inflight</text><text x="1436.0" y="578" text-anchor="middle" font-size="12" font-style="italic" fill="#52606d">slotmap</text><line x1="1436.0" y1="614" x2="1436.0" y2="636" stroke="#9aa5b1" stroke-width="1" stroke-dasharray="2,2"/><path d="M538,690.0 L590.0,690.0 L590.0,259.0 L616,259.0" fill="none" stroke="#b15a4f" stroke-width="1.2" stroke-dasharray="5,3" marker-end="url(#ah-ctrl)" opacity="0.85"/><path d="M538,690.0 L590.0,690.0 L590.0,460.0 L616,460.0" fill="none" stroke="#b15a4f" stroke-width="1.2" stroke-dasharray="5,3" marker-end="url(#ah-ctrl)" opacity="0.85"/><path d="M538,690.0 L590.0,690.0 L590.0,661.0 L616,661.0" fill="none" stroke="#b15a4f" stroke-width="1.2" stroke-dasharray="5,3" marker-end="url(#ah-ctrl)" opacity="0.85"/><rect x="80" y="760" width="1440" height="70" rx="10" ry="10" fill="#f4f6f8" stroke="#9aa5b1" stroke-width="1"/><circle cx="102.0" cy="795.0" r="13" fill="#4f7a8a"/><text x="102.0" y="800.0" text-anchor="middle" font-size="18" font-weight="700" fill="white">1</text><text x="126.0" y="792.0" font-size="18" font-weight="700" fill="#1f2933">All buffers are sized at construction.</text><text x="126.0" y="811.0" font-size="16" font-style="italic" fill="#52606d">avoid unbounded growth</text><circle cx="582.0" cy="795.0" r="13" fill="#4f7a8a"/><text x="582.0" y="800.0" text-anchor="middle" font-size="18" font-weight="700" fill="white">2</text><text x="606.0" y="792.0" font-size="18" font-weight="700" fill="#1f2933">Backpressure flows backwards via Ack/Nack.</text><text x="606.0" y="811.0" font-size="16" font-style="italic" fill="#52606d">drains the in-flight slots</text><circle cx="1062.0" cy="795.0" r="13" fill="#4f7a8a"/><text x="1062.0" y="800.0" text-anchor="middle" font-size="18" font-weight="700" fill="white">3</text><text x="1086.0" y="792.0" font-size="18" font-weight="700" fill="#1f2933">Hard pressure sheds at ingress.</text><text x="1086.0" y="811.0" font-size="16" font-style="italic" fill="#52606d">receivers reject with Retry-After</text></svg>