<svg xmlns="http://www.w3.org/2000/svg" width="1600" height="850" viewBox="0 0 1600 850" font-family="Inter, 'Helvetica Neue', Arial, sans-serif"><rect width="1600" height="850" fill="#ffffff"/><defs><marker id="ah-pdata" viewBox="0 0 10 10" refX="9" refY="5" markerWidth="7" markerHeight="7" orient="auto-start-reverse" markerUnits="userSpaceOnUse"><path d="M0,0 L10,5 L0,10 z" fill="context-stroke"/></marker><marker id="ah-ctrl" viewBox="0 0 10 10" refX="9" refY="5" markerWidth="6" markerHeight="6" orient="auto-start-reverse" markerUnits="userSpaceOnUse"><path d="M0,1 L10,5 L0,9" fill="none" stroke="context-stroke" stroke-width="1.4"/></marker></defs><rect x="80" y="60" width="1440" height="2" fill="#4f7a8a"/><text x="80" y="42" font-size="34" font-weight="600" fill="#1f2933">Pipeline thread</text><text x="1520" y="42" font-size="20" font-family="'JetBrains Mono', Menlo, Consolas, monospace" fill="#52606d" text-anchor="end">RuntimePipeline</text><text x="80" y="90" font-size="20" font-style="italic" fill="#52606d">One pipeline. One OS thread. One tokio runtime.</text><rect x="304" y="130" width="1216" height="580" rx="14" ry="14" fill="white" stroke="#4f7a8a" stroke-width="2.0"/><rect x="304" y="130" width="1216" height="36" rx="14" ry="14" fill="#4f7a8a" fill-opacity="0.10"/><rect x="304" y="162" width="1216" height="4" fill="#4f7a8a"/><text x="324" y="154" font-size="18" font-weight="700" fill="#4f7a8a">RuntimePipeline</text><text x="912.0" y="154" text-anchor="middle" font-size="18" font-style="italic" fill="#4f7a8a">1 OS thread · single-threaded tokio runtime · LocalSet</text><rect x="332" y="190" width="320" height="70" rx="8" ry="8" fill="white" stroke="#52606d" stroke-width="1.6"/><rect x="332" y="190" width="320" height="5" rx="2.5" ry="2.5" fill="#52606d"/><text x="492.0" y="233.0" text-anchor="middle" font-size="18" font-weight="700" fill="#1f2933">RuntimeCtrlMsgManager</text><rect x="1132" y="190" width="360" height="70" rx="8" ry="8" fill="white" stroke="#52606d" stroke-width="1.6"/><rect x="1132" y="190" width="360" height="5" rx="2.5" ry="2.5" fill="#52606d"/><text x="1312.0" y="233.0" text-anchor="middle" font-size="18" font-weight="700" fill="#1f2933">PipelineCompletionMsgDispatcher</text><rect x="557.0" y="437.0" width="110" height="56" rx="8" ry="8" fill="white" stroke="#52606d" stroke-width="1.6"/><rect x="557.0" y="437.0" width="110" height="5" rx="2.5" ry="2.5" fill="#4f7a8a"/><text x="612.0" y="463.0" text-anchor="middle" font-size="18" font-weight="700" fill="#1f2933">receiver</text><rect x="757.0" y="437.0" width="110" height="56" rx="8" ry="8" fill="white" stroke="#52606d" stroke-width="1.6"/><rect x="757.0" y="437.0" width="110" height="5" rx="2.5" ry="2.5" fill="#4f7a8a"/><text x="812.0" y="463.0" text-anchor="middle" font-size="18" font-weight="700" fill="#1f2933">fanout</text><rect x="967.0" y="377.0" width="110" height="56" rx="8" ry="8" fill="white" stroke="#52606d" stroke-width="1.6"/><rect x="967.0" y="377.0" width="110" height="5" rx="2.5" ry="2.5" fill="#4f7a8a"/><text x="1022.0" y="403.0" text-anchor="middle" font-size="18" font-weight="700" fill="#1f2933">processor</text><rect x="967.0" y="497.0" width="110" height="56" rx="8" ry="8" fill="white" stroke="#52606d" stroke-width="1.6"/><rect x="967.0" y="497.0" width="110" height="5" rx="2.5" ry="2.5" fill="#4f7a8a"/><text x="1022.0" y="523.0" text-anchor="middle" font-size="18" font-weight="700" fill="#1f2933">processor</text><rect x="1157.0" y="377.0" width="110" height="56" rx="8" ry="8" fill="white" stroke="#52606d" stroke-width="1.6"/><rect x="1157.0" y="377.0" width="110" height="5" rx="2.5" ry="2.5" fill="#4f7a8a"/><text x="1212.0" y="403.0" text-anchor="middle" font-size="18" font-weight="700" fill="#1f2933">exporter</text><rect x="1157.0" y="497.0" width="110" height="56" rx="8" ry="8" fill="white" stroke="#52606d" stroke-width="1.6"/><rect x="1157.0" y="497.0" width="110" height="5" rx="2.5" ry="2.5" fill="#4f7a8a"/><text x="1212.0" y="523.0" text-anchor="middle" font-size="18" font-weight="700" fill="#1f2933">exporter</text><line x1="667.0" y1="461.0" x2="757.0" y2="461.0" stroke="#4f7a8a" stroke-width="3.0" stroke-linecap="round" marker-end="url(#ah-pdata)"/><line x1="757.0" y1="469.0" x2="667.0" y2="469.0" stroke="#52606d" stroke-width="1.4" marker-end="url(#ah-ctrl)"/><line x1="867.0" y1="461.0" x2="967.0" y2="401.0" stroke="#4f7a8a" stroke-width="3.0" stroke-linecap="round" marker-end="url(#ah-pdata)"/><line x1="967.0" y1="409.0" x2="867.0" y2="469.0" stroke="#52606d" stroke-width="1.4" marker-end="url(#ah-ctrl)"/><line x1="867.0" y1="461.0" x2="967.0" y2="521.0" stroke="#4f7a8a" stroke-width="3.0" stroke-linecap="round" marker-end="url(#ah-pdata)"/><line x1="967.0" y1="529.0" x2="867.0" y2="469.0" stroke="#52606d" stroke-width="1.4" marker-end="url(#ah-ctrl)"/><line x1="1077.0" y1="401.0" x2="1157.0" y2="401.0" stroke="#4f7a8a" stroke-width="3.0" stroke-linecap="round" marker-end="url(#ah-pdata)"/><line x1="1157.0" y1="409.0" x2="1077.0" y2="409.0" stroke="#52606d" stroke-width="1.4" marker-end="url(#ah-ctrl)"/><line x1="1077.0" y1="521.0" x2="1157.0" y2="521.0" stroke="#4f7a8a" stroke-width="3.0" stroke-linecap="round" marker-end="url(#ah-pdata)"/><line x1="1157.0" y1="529.0" x2="1077.0" y2="529.0" stroke="#52606d" stroke-width="1.4" marker-end="url(#ah-ctrl)"/><path d="M492.0,260 C492.0,300 612.0,397.0 612.0,437.0" fill="none" stroke="#52606d" stroke-width="1.4" marker-end="url(#ah-ctrl)"/><path d="M612.0,437.0 C612.0,397.0 1312.0,300 1312.0,260" fill="none" stroke="#52606d" stroke-width="1.4" marker-end="url(#ah-ctrl)"/><path d="M812.0,437.0 C812.0,397.0 1312.0,300 1312.0,260" fill="none" stroke="#52606d" stroke-width="1.4" marker-end="url(#ah-ctrl)"/><path d="M1212.0,377.0 C1212.0,337.0 1312.0,300 1312.0,260" fill="none" stroke="#52606d" stroke-width="1.4" marker-end="url(#ah-ctrl)"/><text x="492.0" y="184" text-anchor="middle" font-size="16" font-family="'JetBrains Mono', Menlo, Consolas, monospace" fill="#1f2933">NodeControlMsg ↕</text><text x="1312.0" y="184" text-anchor="middle" font-size="16" font-family="'JetBrains Mono', Menlo, Consolas, monospace" fill="#1f2933">PipelineCompletionMsg ↕</text><rect x="332" y="654" width="1160" height="36" rx="6" ry="6" fill="#f4f6f8" stroke="#9aa5b1" stroke-width="1"/><text x="346" y="677.0" font-size="18" font-family="'JetBrains Mono', Menlo, Consolas, monospace" font-weight="600" fill="#1f2933">TopicSet</text><text x="1478" y="677.0" text-anchor="end" font-size="16" font-style="italic" fill="#52606d">per-pipeline view of the controller-owned TopicBroker</text><line x1="104" y1="230" x2="304" y2="230" stroke="#52606d" stroke-width="1.4" stroke-dasharray="4,3" marker-end="url(#ah-ctrl)"/><text x="298" y="226" text-anchor="end" font-size="12" font-family="'JetBrains Mono', Menlo, Consolas, monospace" fill="#1f2933">RuntimeCtrlMsgReceiver</text><line x1="304" y1="260" x2="104" y2="260" stroke="#52606d" stroke-width="1.4" stroke-dasharray="4,3" marker-end="url(#ah-ctrl)"/><text x="298" y="256" text-anchor="end" font-size="12" font-family="'JetBrains Mono', Menlo, Consolas, monospace" fill="#1f2933">PipelineCompletionMsgSender</text><line x1="304" y1="290" x2="104" y2="290" stroke="#52606d" stroke-width="1.4" stroke-dasharray="4,3" marker-end="url(#ah-ctrl)"/><text x="298" y="286" text-anchor="end" font-size="12" font-family="'JetBrains Mono', Menlo, Consolas, monospace" fill="#1f2933">note_instance_exit</text><line x1="104" y1="320" x2="304" y2="320" stroke="#52606d" stroke-width="1.4" stroke-dasharray="4,3" marker-end="url(#ah-ctrl)"/><text x="298" y="316" text-anchor="end" font-size="12" font-family="'JetBrains Mono', Menlo, Consolas, monospace" fill="#1f2933">memory_pressure rx</text><line x1="304" y1="348" x2="104" y2="348" stroke="#52606d" stroke-width="1.4" stroke-dasharray="4,3" marker-end="url(#ah-ctrl)"/><line x1="104" y1="352" x2="304" y2="352" stroke="#52606d" stroke-width="1.4" stroke-dasharray="4,3" marker-end="url(#ah-ctrl)"/><text x="298" y="346" text-anchor="end" font-size="12" font-family="'JetBrains Mono', Menlo, Consolas, monospace" fill="#1f2933">topics</text><text x="298" y="390" text-anchor="end" font-size="12" font-style="italic" fill="#52606d">← to controller process</text></svg>