<svg xmlns="http://www.w3.org/2000/svg" viewBox="0 0 858 694" width="858" height="694">
<defs>
<marker id="ah-e74c3c" markerWidth="8" markerHeight="8" refX="8" refY="4" orient="auto"><polygon points="0 0, 8 4, 0 8" fill="#e74c3c"/></marker>
<marker id="ah-3498db" markerWidth="8" markerHeight="8" refX="8" refY="4" orient="auto"><polygon points="0 0, 8 4, 0 8" fill="#3498db"/></marker>
</defs>
<rect width="858" height="694" fill="#f8f9fa" rx="10"/>
<text x="429" y="34" text-anchor="middle" fill="#2c3e50" font-family="Consolas, 'Courier New', monospace" font-size="16" font-weight="bold">OTAP Metrics: Scope Attributes, Flat Metrics</text>
<text x="429" y="52" text-anchor="middle" fill="#7f8c8d" font-family="Consolas, 'Courier New', monospace" font-size="13">Encoding 1 — 1 dimension (outcome), 3 timeseries, M=1 metric</text>
<text x="429" y="682" text-anchor="middle" fill="#7f8c8d" font-family="Consolas, 'Courier New', monospace" font-size="11" font-style="italic">Total rows: K + 6M = 2 + 6 = 8  (K=2 scope attrs, M=1 metric × 3 flat variants)</text>
<rect x="30" y="70" width="609" height="28" rx="6" ry="6" fill="#2c3e50"/>
<rect x="30" y="92" width="609" height="6" fill="#2c3e50"/>
<text x="334" y="90" text-anchor="middle" fill="#ffffff" font-family="Consolas, 'Courier New', monospace" font-size="11" font-weight="bold">ScopeAttrs</text>
<text x="334" y="79" text-anchor="middle" fill="#7f8c8d" font-family="Consolas, 'Courier New', monospace" font-size="9" opacity="0.7">SCOPE_ATTRS</text>
<rect x="30" y="98" width="79" height="26" fill="#e8f4fd" stroke="#bdc3c7" stroke-width="0.5"/>
<text x="69" y="109" text-anchor="middle" fill="#2c3e50" font-family="Consolas, 'Courier New', monospace" font-size="11" font-weight="bold">parent_id</text>
<rect x="109" y="98" width="85" height="26" fill="#34495e" stroke="#bdc3c7" stroke-width="0.5"/>
<text x="151" y="109" text-anchor="middle" fill="#ecf0f1" font-family="Consolas, 'Courier New', monospace" font-size="11" font-weight="bold">key</text>
<rect x="194" y="98" width="60" height="26" fill="#34495e" stroke="#bdc3c7" stroke-width="0.5"/>
<text x="224" y="109" text-anchor="middle" fill="#ecf0f1" font-family="Consolas, 'Courier New', monospace" font-size="11" font-weight="bold">type</text>
<rect x="254" y="98" width="85" height="26" fill="#34495e" stroke="#bdc3c7" stroke-width="0.5"/>
<text x="296" y="109" text-anchor="middle" fill="#ecf0f1" font-family="Consolas, 'Courier New', monospace" font-size="11" font-weight="bold">str</text>
<rect x="339" y="98" width="60" height="26" fill="#34495e" stroke="#bdc3c7" stroke-width="0.5"/>
<text x="369" y="109" text-anchor="middle" fill="#ecf0f1" font-family="Consolas, 'Courier New', monospace" font-size="11" font-weight="bold">int</text>
<rect x="399" y="98" width="60" height="26" fill="#34495e" stroke="#bdc3c7" stroke-width="0.5"/>
<text x="429" y="109" text-anchor="middle" fill="#ecf0f1" font-family="Consolas, 'Courier New', monospace" font-size="11" font-weight="bold">double</text>
<rect x="459" y="98" width="60" height="26" fill="#34495e" stroke="#bdc3c7" stroke-width="0.5"/>
<text x="489" y="109" text-anchor="middle" fill="#ecf0f1" font-family="Consolas, 'Courier New', monospace" font-size="11" font-weight="bold">bool</text>
<rect x="519" y="98" width="60" height="26" fill="#34495e" stroke="#bdc3c7" stroke-width="0.5"/>
<text x="549" y="109" text-anchor="middle" fill="#ecf0f1" font-family="Consolas, 'Courier New', monospace" font-size="11" font-weight="bold">bytes</text>
<rect x="579" y="98" width="60" height="26" fill="#34495e" stroke="#bdc3c7" stroke-width="0.5"/>
<text x="609" y="109" text-anchor="middle" fill="#ecf0f1" font-family="Consolas, 'Courier New', monospace" font-size="11" font-weight="bold">ser</text>
<rect x="30" y="124" width="79" height="22" fill="#f0f4f8" stroke="#bdc3c7" stroke-width="0.5"/>
<text x="69" y="139" text-anchor="middle" fill="#7f8c8d" font-family="Consolas, 'Courier New', monospace" font-size="10" font-style="italic">uint16</text>
<rect x="109" y="124" width="85" height="22" fill="#f0f4f8" stroke="#bdc3c7" stroke-width="0.5"/>
<text x="151" y="139" text-anchor="middle" fill="#7f8c8d" font-family="Consolas, 'Courier New', monospace" font-size="10" font-style="italic">string/dict</text>
<rect x="194" y="124" width="60" height="22" fill="#f0f4f8" stroke="#bdc3c7" stroke-width="0.5"/>
<text x="224" y="139" text-anchor="middle" fill="#7f8c8d" font-family="Consolas, 'Courier New', monospace" font-size="10" font-style="italic">uint8</text>
<rect x="254" y="124" width="85" height="22" fill="#f0f4f8" stroke="#bdc3c7" stroke-width="0.5"/>
<text x="296" y="139" text-anchor="middle" fill="#7f8c8d" font-family="Consolas, 'Courier New', monospace" font-size="10" font-style="italic">string/dict</text>
<rect x="339" y="124" width="60" height="22" fill="#f0f4f8" stroke="#bdc3c7" stroke-width="0.5"/>
<text x="369" y="139" text-anchor="middle" fill="#7f8c8d" font-family="Consolas, 'Courier New', monospace" font-size="10" font-style="italic">int64</text>
<rect x="399" y="124" width="60" height="22" fill="#f0f4f8" stroke="#bdc3c7" stroke-width="0.5"/>
<text x="429" y="139" text-anchor="middle" fill="#7f8c8d" font-family="Consolas, 'Courier New', monospace" font-size="10" font-style="italic">float64</text>
<rect x="459" y="124" width="60" height="22" fill="#f0f4f8" stroke="#bdc3c7" stroke-width="0.5"/>
<text x="489" y="139" text-anchor="middle" fill="#7f8c8d" font-family="Consolas, 'Courier New', monospace" font-size="10" font-style="italic">bool</text>
<rect x="519" y="124" width="60" height="22" fill="#f0f4f8" stroke="#bdc3c7" stroke-width="0.5"/>
<text x="549" y="139" text-anchor="middle" fill="#7f8c8d" font-family="Consolas, 'Courier New', monospace" font-size="10" font-style="italic">binary</text>
<rect x="579" y="124" width="60" height="22" fill="#f0f4f8" stroke="#bdc3c7" stroke-width="0.5"/>
<text x="609" y="139" text-anchor="middle" fill="#7f8c8d" font-family="Consolas, 'Courier New', monospace" font-size="10" font-style="italic">binary</text>
<rect x="30" y="146" width="79" height="22" fill="#e8f4fd" stroke="#bdc3c7" stroke-width="0.5"/>
<text x="69" y="161" text-anchor="middle" fill="#2c3e50" font-family="Consolas, 'Courier New', monospace" font-size="12">0</text>
<rect x="109" y="146" width="85" height="22" fill="#ffffff" stroke="#bdc3c7" stroke-width="0.5"/>
<text x="151" y="161" text-anchor="middle" fill="#2c3e50" font-family="Consolas, 'Courier New', monospace" font-size="12">node_id</text>
<rect x="194" y="146" width="60" height="22" fill="#ffffff" stroke="#bdc3c7" stroke-width="0.5"/>
<text x="224" y="161" text-anchor="middle" fill="#2c3e50" font-family="Consolas, 'Courier New', monospace" font-size="12">Str</text>
<rect x="254" y="146" width="85" height="22" fill="#ffffff" stroke="#bdc3c7" stroke-width="0.5"/>
<text x="296" y="161" text-anchor="middle" fill="#2c3e50" font-family="Consolas, 'Courier New', monospace" font-size="12">node-7</text>
<rect x="339" y="146" width="60" height="22" fill="#ffffff" stroke="#bdc3c7" stroke-width="0.5"/>
<text x="369" y="161" text-anchor="middle" fill="#2c3e50" font-family="Consolas, 'Courier New', monospace" font-size="12"></text>
<rect x="399" y="146" width="60" height="22" fill="#ffffff" stroke="#bdc3c7" stroke-width="0.5"/>
<text x="429" y="161" text-anchor="middle" fill="#2c3e50" font-family="Consolas, 'Courier New', monospace" font-size="12"></text>
<rect x="459" y="146" width="60" height="22" fill="#ffffff" stroke="#bdc3c7" stroke-width="0.5"/>
<text x="489" y="161" text-anchor="middle" fill="#2c3e50" font-family="Consolas, 'Courier New', monospace" font-size="12"></text>
<rect x="519" y="146" width="60" height="22" fill="#ffffff" stroke="#bdc3c7" stroke-width="0.5"/>
<text x="549" y="161" text-anchor="middle" fill="#2c3e50" font-family="Consolas, 'Courier New', monospace" font-size="12"></text>
<rect x="579" y="146" width="60" height="22" fill="#ffffff" stroke="#bdc3c7" stroke-width="0.5"/>
<text x="609" y="161" text-anchor="middle" fill="#2c3e50" font-family="Consolas, 'Courier New', monospace" font-size="12"></text>
<rect x="30" y="168" width="79" height="22" fill="#e8f4fd" stroke="#bdc3c7" stroke-width="0.5"/>
<text x="69" y="183" text-anchor="middle" fill="#2c3e50" font-family="Consolas, 'Courier New', monospace" font-size="12">0</text>
<rect x="109" y="168" width="85" height="22" fill="#f0f4f8" stroke="#bdc3c7" stroke-width="0.5"/>
<text x="151" y="183" text-anchor="middle" fill="#2c3e50" font-family="Consolas, 'Courier New', monospace" font-size="12">pipeline</text>
<rect x="194" y="168" width="60" height="22" fill="#f0f4f8" stroke="#bdc3c7" stroke-width="0.5"/>
<text x="224" y="183" text-anchor="middle" fill="#2c3e50" font-family="Consolas, 'Courier New', monospace" font-size="12">Str</text>
<rect x="254" y="168" width="85" height="22" fill="#f0f4f8" stroke="#bdc3c7" stroke-width="0.5"/>
<text x="296" y="183" text-anchor="middle" fill="#2c3e50" font-family="Consolas, 'Courier New', monospace" font-size="12">ingest</text>
<rect x="339" y="168" width="60" height="22" fill="#f0f4f8" stroke="#bdc3c7" stroke-width="0.5"/>
<text x="369" y="183" text-anchor="middle" fill="#2c3e50" font-family="Consolas, 'Courier New', monospace" font-size="12"></text>
<rect x="399" y="168" width="60" height="22" fill="#f0f4f8" stroke="#bdc3c7" stroke-width="0.5"/>
<text x="429" y="183" text-anchor="middle" fill="#2c3e50" font-family="Consolas, 'Courier New', monospace" font-size="12"></text>
<rect x="459" y="168" width="60" height="22" fill="#f0f4f8" stroke="#bdc3c7" stroke-width="0.5"/>
<text x="489" y="183" text-anchor="middle" fill="#2c3e50" font-family="Consolas, 'Courier New', monospace" font-size="12"></text>
<rect x="519" y="168" width="60" height="22" fill="#f0f4f8" stroke="#bdc3c7" stroke-width="0.5"/>
<text x="549" y="183" text-anchor="middle" fill="#2c3e50" font-family="Consolas, 'Courier New', monospace" font-size="12"></text>
<rect x="579" y="168" width="60" height="22" fill="#f0f4f8" stroke="#bdc3c7" stroke-width="0.5"/>
<text x="609" y="183" text-anchor="middle" fill="#2c3e50" font-family="Consolas, 'Courier New', monospace" font-size="12"></text>
<rect x="30" y="70" width="609" height="120" rx="6" ry="6" fill="none" stroke="#bdc3c7" stroke-width="1.5"/>
<rect x="30" y="240" width="768" height="28" rx="6" ry="6" fill="#2c3e50"/>
<rect x="30" y="262" width="768" height="6" fill="#2c3e50"/>
<text x="414" y="260" text-anchor="middle" fill="#ffffff" font-family="Consolas, 'Courier New', monospace" font-size="11" font-weight="bold">UnivariateMetrics</text>
<text x="414" y="249" text-anchor="middle" fill="#7f8c8d" font-family="Consolas, 'Courier New', monospace" font-size="9" opacity="0.7">UNIVARIATE_METRICS</text>
<rect x="30" y="268" width="60" height="26" fill="#e8f4fd" stroke="#bdc3c7" stroke-width="0.5"/>
<text x="60" y="279" text-anchor="middle" fill="#2c3e50" font-family="Consolas, 'Courier New', monospace" font-size="11" font-weight="bold">id</text>
<rect x="90" y="268" width="93" height="26" fill="#34495e" stroke="#bdc3c7" stroke-width="0.5"/>
<text x="136" y="279" text-anchor="middle" fill="#ecf0f1" font-family="Consolas, 'Courier New', monospace" font-size="11" font-weight="bold">resource.id</text>
<rect x="183" y="268" width="72" height="26" fill="#34495e" stroke="#bdc3c7" stroke-width="0.5"/>
<text x="219" y="279" text-anchor="middle" fill="#ecf0f1" font-family="Consolas, 'Courier New', monospace" font-size="11" font-weight="bold">scope.id</text>
<rect x="255" y="268" width="86" height="26" fill="#34495e" stroke="#bdc3c7" stroke-width="0.5"/>
<text x="298" y="279" text-anchor="middle" fill="#ecf0f1" font-family="Consolas, 'Courier New', monospace" font-size="11" font-weight="bold">scope.name</text>
<rect x="341" y="268" width="93" height="26" fill="#34495e" stroke="#bdc3c7" stroke-width="0.5"/>
<text x="387" y="279" text-anchor="middle" fill="#ecf0f1" font-family="Consolas, 'Courier New', monospace" font-size="11" font-weight="bold">metric_type</text>
<rect x="434" y="268" width="128" height="26" fill="#34495e" stroke="#bdc3c7" stroke-width="0.5"/>
<text x="498" y="279" text-anchor="middle" fill="#ecf0f1" font-family="Consolas, 'Courier New', monospace" font-size="11" font-weight="bold">name</text>
<rect x="562" y="268" width="64" height="26" fill="#34495e" stroke="#bdc3c7" stroke-width="0.5"/>
<text x="594" y="279" text-anchor="middle" fill="#ecf0f1" font-family="Consolas, 'Courier New', monospace" font-size="11" font-weight="bold">unit</text>
<rect x="626" y="268" width="72" height="26" fill="#34495e" stroke="#bdc3c7" stroke-width="0.5"/>
<text x="662" y="279" text-anchor="middle" fill="#ecf0f1" font-family="Consolas, 'Courier New', monospace" font-size="11" font-weight="bold">agg_temp</text>
<rect x="698" y="268" width="100" height="26" fill="#34495e" stroke="#bdc3c7" stroke-width="0.5"/>
<text x="748" y="279" text-anchor="middle" fill="#ecf0f1" font-family="Consolas, 'Courier New', monospace" font-size="11" font-weight="bold">is_monotonic</text>
<rect x="30" y="294" width="60" height="22" fill="#f0f4f8" stroke="#bdc3c7" stroke-width="0.5"/>
<text x="60" y="309" text-anchor="middle" fill="#7f8c8d" font-family="Consolas, 'Courier New', monospace" font-size="10" font-style="italic">uint16</text>
<rect x="90" y="294" width="93" height="22" fill="#f0f4f8" stroke="#bdc3c7" stroke-width="0.5"/>
<text x="136" y="309" text-anchor="middle" fill="#7f8c8d" font-family="Consolas, 'Courier New', monospace" font-size="10" font-style="italic">uint16</text>
<rect x="183" y="294" width="72" height="22" fill="#f0f4f8" stroke="#bdc3c7" stroke-width="0.5"/>
<text x="219" y="309" text-anchor="middle" fill="#7f8c8d" font-family="Consolas, 'Courier New', monospace" font-size="10" font-style="italic">uint16</text>
<rect x="255" y="294" width="86" height="22" fill="#f0f4f8" stroke="#bdc3c7" stroke-width="0.5"/>
<text x="298" y="309" text-anchor="middle" fill="#7f8c8d" font-family="Consolas, 'Courier New', monospace" font-size="10" font-style="italic">str/dict</text>
<rect x="341" y="294" width="93" height="22" fill="#f0f4f8" stroke="#bdc3c7" stroke-width="0.5"/>
<text x="387" y="309" text-anchor="middle" fill="#7f8c8d" font-family="Consolas, 'Courier New', monospace" font-size="10" font-style="italic">uint8</text>
<rect x="434" y="294" width="128" height="22" fill="#f0f4f8" stroke="#bdc3c7" stroke-width="0.5"/>
<text x="498" y="309" text-anchor="middle" fill="#7f8c8d" font-family="Consolas, 'Courier New', monospace" font-size="10" font-style="italic">str/dict</text>
<rect x="562" y="294" width="64" height="22" fill="#f0f4f8" stroke="#bdc3c7" stroke-width="0.5"/>
<text x="594" y="309" text-anchor="middle" fill="#7f8c8d" font-family="Consolas, 'Courier New', monospace" font-size="10" font-style="italic">str/dict</text>
<rect x="626" y="294" width="72" height="22" fill="#f0f4f8" stroke="#bdc3c7" stroke-width="0.5"/>
<text x="662" y="309" text-anchor="middle" fill="#7f8c8d" font-family="Consolas, 'Courier New', monospace" font-size="10" font-style="italic">int32</text>
<rect x="698" y="294" width="100" height="22" fill="#f0f4f8" stroke="#bdc3c7" stroke-width="0.5"/>
<text x="748" y="309" text-anchor="middle" fill="#7f8c8d" font-family="Consolas, 'Courier New', monospace" font-size="10" font-style="italic">bool</text>
<rect x="30" y="316" width="60" height="22" fill="#e8f4fd" stroke="#bdc3c7" stroke-width="0.5"/>
<text x="60" y="331" text-anchor="middle" fill="#2c3e50" font-family="Consolas, 'Courier New', monospace" font-size="12">0</text>
<rect x="90" y="316" width="93" height="22" fill="#ffffff" stroke="#bdc3c7" stroke-width="0.5"/>
<text x="136" y="331" text-anchor="middle" fill="#2c3e50" font-family="Consolas, 'Courier New', monospace" font-size="12">0</text>
<rect x="183" y="316" width="72" height="22" fill="#ffffff" stroke="#bdc3c7" stroke-width="0.5"/>
<text x="219" y="331" text-anchor="middle" fill="#2c3e50" font-family="Consolas, 'Courier New', monospace" font-size="12">0</text>
<rect x="255" y="316" width="86" height="22" fill="#ffffff" stroke="#bdc3c7" stroke-width="0.5"/>
<text x="298" y="331" text-anchor="middle" fill="#2c3e50" font-family="Consolas, 'Courier New', monospace" font-size="12">otap</text>
<rect x="341" y="316" width="93" height="22" fill="#ffffff" stroke="#bdc3c7" stroke-width="0.5"/>
<text x="387" y="331" text-anchor="middle" fill="#2c3e50" font-family="Consolas, 'Courier New', monospace" font-size="12">Sum</text>
<rect x="434" y="316" width="128" height="22" fill="#ffffff" stroke="#bdc3c7" stroke-width="0.5"/>
<text x="498" y="331" text-anchor="middle" fill="#2c3e50" font-family="Consolas, 'Courier New', monospace" font-size="12">consumed_success</text>
<rect x="562" y="316" width="64" height="22" fill="#ffffff" stroke="#bdc3c7" stroke-width="0.5"/>
<text x="594" y="331" text-anchor="middle" fill="#2c3e50" font-family="Consolas, 'Courier New', monospace" font-size="12">{item}</text>
<rect x="626" y="316" width="72" height="22" fill="#ffffff" stroke="#bdc3c7" stroke-width="0.5"/>
<text x="662" y="331" text-anchor="middle" fill="#2c3e50" font-family="Consolas, 'Courier New', monospace" font-size="12">Cum</text>
<rect x="698" y="316" width="100" height="22" fill="#ffffff" stroke="#bdc3c7" stroke-width="0.5"/>
<text x="748" y="331" text-anchor="middle" fill="#2c3e50" font-family="Consolas, 'Courier New', monospace" font-size="12">True</text>
<rect x="30" y="338" width="60" height="22" fill="#e8f4fd" stroke="#bdc3c7" stroke-width="0.5"/>
<text x="60" y="353" text-anchor="middle" fill="#2c3e50" font-family="Consolas, 'Courier New', monospace" font-size="12">1</text>
<rect x="90" y="338" width="93" height="22" fill="#f0f4f8" stroke="#bdc3c7" stroke-width="0.5"/>
<text x="136" y="353" text-anchor="middle" fill="#2c3e50" font-family="Consolas, 'Courier New', monospace" font-size="12">0</text>
<rect x="183" y="338" width="72" height="22" fill="#f0f4f8" stroke="#bdc3c7" stroke-width="0.5"/>
<text x="219" y="353" text-anchor="middle" fill="#2c3e50" font-family="Consolas, 'Courier New', monospace" font-size="12">0</text>
<rect x="255" y="338" width="86" height="22" fill="#f0f4f8" stroke="#bdc3c7" stroke-width="0.5"/>
<text x="298" y="353" text-anchor="middle" fill="#2c3e50" font-family="Consolas, 'Courier New', monospace" font-size="12">otap</text>
<rect x="341" y="338" width="93" height="22" fill="#f0f4f8" stroke="#bdc3c7" stroke-width="0.5"/>
<text x="387" y="353" text-anchor="middle" fill="#2c3e50" font-family="Consolas, 'Courier New', monospace" font-size="12">Sum</text>
<rect x="434" y="338" width="128" height="22" fill="#f0f4f8" stroke="#bdc3c7" stroke-width="0.5"/>
<text x="498" y="353" text-anchor="middle" fill="#2c3e50" font-family="Consolas, 'Courier New', monospace" font-size="12">consumed_failed</text>
<rect x="562" y="338" width="64" height="22" fill="#f0f4f8" stroke="#bdc3c7" stroke-width="0.5"/>
<text x="594" y="353" text-anchor="middle" fill="#2c3e50" font-family="Consolas, 'Courier New', monospace" font-size="12">{item}</text>
<rect x="626" y="338" width="72" height="22" fill="#f0f4f8" stroke="#bdc3c7" stroke-width="0.5"/>
<text x="662" y="353" text-anchor="middle" fill="#2c3e50" font-family="Consolas, 'Courier New', monospace" font-size="12">Cum</text>
<rect x="698" y="338" width="100" height="22" fill="#f0f4f8" stroke="#bdc3c7" stroke-width="0.5"/>
<text x="748" y="353" text-anchor="middle" fill="#2c3e50" font-family="Consolas, 'Courier New', monospace" font-size="12">True</text>
<rect x="30" y="360" width="60" height="22" fill="#e8f4fd" stroke="#bdc3c7" stroke-width="0.5"/>
<text x="60" y="375" text-anchor="middle" fill="#2c3e50" font-family="Consolas, 'Courier New', monospace" font-size="12">2</text>
<rect x="90" y="360" width="93" height="22" fill="#ffffff" stroke="#bdc3c7" stroke-width="0.5"/>
<text x="136" y="375" text-anchor="middle" fill="#2c3e50" font-family="Consolas, 'Courier New', monospace" font-size="12">0</text>
<rect x="183" y="360" width="72" height="22" fill="#ffffff" stroke="#bdc3c7" stroke-width="0.5"/>
<text x="219" y="375" text-anchor="middle" fill="#2c3e50" font-family="Consolas, 'Courier New', monospace" font-size="12">0</text>
<rect x="255" y="360" width="86" height="22" fill="#ffffff" stroke="#bdc3c7" stroke-width="0.5"/>
<text x="298" y="375" text-anchor="middle" fill="#2c3e50" font-family="Consolas, 'Courier New', monospace" font-size="12">otap</text>
<rect x="341" y="360" width="93" height="22" fill="#ffffff" stroke="#bdc3c7" stroke-width="0.5"/>
<text x="387" y="375" text-anchor="middle" fill="#2c3e50" font-family="Consolas, 'Courier New', monospace" font-size="12">Sum</text>
<rect x="434" y="360" width="128" height="22" fill="#ffffff" stroke="#bdc3c7" stroke-width="0.5"/>
<text x="498" y="375" text-anchor="middle" fill="#2c3e50" font-family="Consolas, 'Courier New', monospace" font-size="12">consumed_refused</text>
<rect x="562" y="360" width="64" height="22" fill="#ffffff" stroke="#bdc3c7" stroke-width="0.5"/>
<text x="594" y="375" text-anchor="middle" fill="#2c3e50" font-family="Consolas, 'Courier New', monospace" font-size="12">{item}</text>
<rect x="626" y="360" width="72" height="22" fill="#ffffff" stroke="#bdc3c7" stroke-width="0.5"/>
<text x="662" y="375" text-anchor="middle" fill="#2c3e50" font-family="Consolas, 'Courier New', monospace" font-size="12">Cum</text>
<rect x="698" y="360" width="100" height="22" fill="#ffffff" stroke="#bdc3c7" stroke-width="0.5"/>
<text x="748" y="375" text-anchor="middle" fill="#2c3e50" font-family="Consolas, 'Courier New', monospace" font-size="12">True</text>
<rect x="30" y="240" width="768" height="142" rx="6" ry="6" fill="none" stroke="#bdc3c7" stroke-width="1.5"/>
<rect x="30" y="432" width="536" height="28" rx="6" ry="6" fill="#2c3e50"/>
<rect x="30" y="454" width="536" height="6" fill="#2c3e50"/>
<text x="298" y="452" text-anchor="middle" fill="#ffffff" font-family="Consolas, 'Courier New', monospace" font-size="11" font-weight="bold">NumberDataPoint</text>
<text x="298" y="441" text-anchor="middle" fill="#7f8c8d" font-family="Consolas, 'Courier New', monospace" font-size="9" opacity="0.7">NUMBER_DATA_POINTS</text>
<rect x="30" y="460" width="60" height="26" fill="#e8f4fd" stroke="#bdc3c7" stroke-width="0.5"/>
<text x="60" y="471" text-anchor="middle" fill="#2c3e50" font-family="Consolas, 'Courier New', monospace" font-size="11" font-weight="bold">id</text>
<rect x="90" y="460" width="79" height="26" fill="#e8f4fd" stroke="#bdc3c7" stroke-width="0.5"/>
<text x="129" y="471" text-anchor="middle" fill="#2c3e50" font-family="Consolas, 'Courier New', monospace" font-size="11" font-weight="bold">parent_id</text>
<rect x="169" y="460" width="86" height="26" fill="#34495e" stroke="#bdc3c7" stroke-width="0.5"/>
<text x="212" y="471" text-anchor="middle" fill="#ecf0f1" font-family="Consolas, 'Courier New', monospace" font-size="11" font-weight="bold">start_time</text>
<rect x="255" y="460" width="72" height="26" fill="#34495e" stroke="#bdc3c7" stroke-width="0.5"/>
<text x="291" y="471" text-anchor="middle" fill="#ecf0f1" font-family="Consolas, 'Courier New', monospace" font-size="11" font-weight="bold">time</text>
<rect x="327" y="460" width="79" height="26" fill="#34495e" stroke="#bdc3c7" stroke-width="0.5"/>
<text x="366" y="471" text-anchor="middle" fill="#ecf0f1" font-family="Consolas, 'Courier New', monospace" font-size="11" font-weight="bold">int_value</text>
<rect x="406" y="460" width="100" height="26" fill="#34495e" stroke="#bdc3c7" stroke-width="0.5"/>
<text x="456" y="471" text-anchor="middle" fill="#ecf0f1" font-family="Consolas, 'Courier New', monospace" font-size="11" font-weight="bold">double_value</text>
<rect x="506" y="460" width="60" height="26" fill="#34495e" stroke="#bdc3c7" stroke-width="0.5"/>
<text x="536" y="471" text-anchor="middle" fill="#ecf0f1" font-family="Consolas, 'Courier New', monospace" font-size="11" font-weight="bold">flags</text>
<rect x="30" y="486" width="60" height="22" fill="#f0f4f8" stroke="#bdc3c7" stroke-width="0.5"/>
<text x="60" y="501" text-anchor="middle" fill="#7f8c8d" font-family="Consolas, 'Courier New', monospace" font-size="10" font-style="italic">uint32</text>
<rect x="90" y="486" width="79" height="22" fill="#f0f4f8" stroke="#bdc3c7" stroke-width="0.5"/>
<text x="129" y="501" text-anchor="middle" fill="#7f8c8d" font-family="Consolas, 'Courier New', monospace" font-size="10" font-style="italic">uint16</text>
<rect x="169" y="486" width="86" height="22" fill="#f0f4f8" stroke="#bdc3c7" stroke-width="0.5"/>
<text x="212" y="501" text-anchor="middle" fill="#7f8c8d" font-family="Consolas, 'Courier New', monospace" font-size="10" font-style="italic">ts_ns</text>
<rect x="255" y="486" width="72" height="22" fill="#f0f4f8" stroke="#bdc3c7" stroke-width="0.5"/>
<text x="291" y="501" text-anchor="middle" fill="#7f8c8d" font-family="Consolas, 'Courier New', monospace" font-size="10" font-style="italic">ts_ns</text>
<rect x="327" y="486" width="79" height="22" fill="#f0f4f8" stroke="#bdc3c7" stroke-width="0.5"/>
<text x="366" y="501" text-anchor="middle" fill="#7f8c8d" font-family="Consolas, 'Courier New', monospace" font-size="10" font-style="italic">int64</text>
<rect x="406" y="486" width="100" height="22" fill="#f0f4f8" stroke="#bdc3c7" stroke-width="0.5"/>
<text x="456" y="501" text-anchor="middle" fill="#7f8c8d" font-family="Consolas, 'Courier New', monospace" font-size="10" font-style="italic">float64</text>
<rect x="506" y="486" width="60" height="22" fill="#f0f4f8" stroke="#bdc3c7" stroke-width="0.5"/>
<text x="536" y="501" text-anchor="middle" fill="#7f8c8d" font-family="Consolas, 'Courier New', monospace" font-size="10" font-style="italic">uint32</text>
<rect x="30" y="508" width="60" height="22" fill="#e8f4fd" stroke="#bdc3c7" stroke-width="0.5"/>
<text x="60" y="523" text-anchor="middle" fill="#2c3e50" font-family="Consolas, 'Courier New', monospace" font-size="12">0</text>
<rect x="90" y="508" width="79" height="22" fill="#e8f4fd" stroke="#bdc3c7" stroke-width="0.5"/>
<text x="129" y="523" text-anchor="middle" fill="#2c3e50" font-family="Consolas, 'Courier New', monospace" font-size="12">0</text>
<rect x="169" y="508" width="86" height="22" fill="#ffffff" stroke="#bdc3c7" stroke-width="0.5"/>
<text x="212" y="523" text-anchor="middle" fill="#2c3e50" font-family="Consolas, 'Courier New', monospace" font-size="12">10:00:00</text>
<rect x="255" y="508" width="72" height="22" fill="#ffffff" stroke="#bdc3c7" stroke-width="0.5"/>
<text x="291" y="523" text-anchor="middle" fill="#2c3e50" font-family="Consolas, 'Courier New', monospace" font-size="12">10:00:10</text>
<rect x="327" y="508" width="79" height="22" fill="#ffffff" stroke="#bdc3c7" stroke-width="0.5"/>
<text x="366" y="523" text-anchor="middle" fill="#2c3e50" font-family="Consolas, 'Courier New', monospace" font-size="12">142</text>
<rect x="406" y="508" width="100" height="22" fill="#ffffff" stroke="#bdc3c7" stroke-width="0.5"/>
<text x="456" y="523" text-anchor="middle" fill="#2c3e50" font-family="Consolas, 'Courier New', monospace" font-size="12"></text>
<rect x="506" y="508" width="60" height="22" fill="#ffffff" stroke="#bdc3c7" stroke-width="0.5"/>
<text x="536" y="523" text-anchor="middle" fill="#2c3e50" font-family="Consolas, 'Courier New', monospace" font-size="12">0</text>
<rect x="30" y="530" width="60" height="22" fill="#e8f4fd" stroke="#bdc3c7" stroke-width="0.5"/>
<text x="60" y="545" text-anchor="middle" fill="#2c3e50" font-family="Consolas, 'Courier New', monospace" font-size="12">1</text>
<rect x="90" y="530" width="79" height="22" fill="#e8f4fd" stroke="#bdc3c7" stroke-width="0.5"/>
<text x="129" y="545" text-anchor="middle" fill="#2c3e50" font-family="Consolas, 'Courier New', monospace" font-size="12">1</text>
<rect x="169" y="530" width="86" height="22" fill="#f0f4f8" stroke="#bdc3c7" stroke-width="0.5"/>
<text x="212" y="545" text-anchor="middle" fill="#2c3e50" font-family="Consolas, 'Courier New', monospace" font-size="12">10:00:00</text>
<rect x="255" y="530" width="72" height="22" fill="#f0f4f8" stroke="#bdc3c7" stroke-width="0.5"/>
<text x="291" y="545" text-anchor="middle" fill="#2c3e50" font-family="Consolas, 'Courier New', monospace" font-size="12">10:00:10</text>
<rect x="327" y="530" width="79" height="22" fill="#f0f4f8" stroke="#bdc3c7" stroke-width="0.5"/>
<text x="366" y="545" text-anchor="middle" fill="#2c3e50" font-family="Consolas, 'Courier New', monospace" font-size="12">3</text>
<rect x="406" y="530" width="100" height="22" fill="#f0f4f8" stroke="#bdc3c7" stroke-width="0.5"/>
<text x="456" y="545" text-anchor="middle" fill="#2c3e50" font-family="Consolas, 'Courier New', monospace" font-size="12"></text>
<rect x="506" y="530" width="60" height="22" fill="#f0f4f8" stroke="#bdc3c7" stroke-width="0.5"/>
<text x="536" y="545" text-anchor="middle" fill="#2c3e50" font-family="Consolas, 'Courier New', monospace" font-size="12">0</text>
<rect x="30" y="552" width="60" height="22" fill="#e8f4fd" stroke="#bdc3c7" stroke-width="0.5"/>
<text x="60" y="567" text-anchor="middle" fill="#2c3e50" font-family="Consolas, 'Courier New', monospace" font-size="12">2</text>
<rect x="90" y="552" width="79" height="22" fill="#e8f4fd" stroke="#bdc3c7" stroke-width="0.5"/>
<text x="129" y="567" text-anchor="middle" fill="#2c3e50" font-family="Consolas, 'Courier New', monospace" font-size="12">2</text>
<rect x="169" y="552" width="86" height="22" fill="#ffffff" stroke="#bdc3c7" stroke-width="0.5"/>
<text x="212" y="567" text-anchor="middle" fill="#2c3e50" font-family="Consolas, 'Courier New', monospace" font-size="12">10:00:00</text>
<rect x="255" y="552" width="72" height="22" fill="#ffffff" stroke="#bdc3c7" stroke-width="0.5"/>
<text x="291" y="567" text-anchor="middle" fill="#2c3e50" font-family="Consolas, 'Courier New', monospace" font-size="12">10:00:10</text>
<rect x="327" y="552" width="79" height="22" fill="#ffffff" stroke="#bdc3c7" stroke-width="0.5"/>
<text x="366" y="567" text-anchor="middle" fill="#2c3e50" font-family="Consolas, 'Courier New', monospace" font-size="12">0</text>
<rect x="406" y="552" width="100" height="22" fill="#ffffff" stroke="#bdc3c7" stroke-width="0.5"/>
<text x="456" y="567" text-anchor="middle" fill="#2c3e50" font-family="Consolas, 'Courier New', monospace" font-size="12"></text>
<rect x="506" y="552" width="60" height="22" fill="#ffffff" stroke="#bdc3c7" stroke-width="0.5"/>
<text x="536" y="567" text-anchor="middle" fill="#2c3e50" font-family="Consolas, 'Courier New', monospace" font-size="12">0</text>
<rect x="30" y="432" width="536" height="142" rx="6" ry="6" fill="none" stroke="#bdc3c7" stroke-width="1.5"/>
<path d="M 69,190 C 69,215.0 219,215.0 219,240" fill="none" stroke="#3498db" stroke-width="1.5" stroke-dasharray="6,3" marker-end="url(#ah-3498db)"/>
<text x="144.0" y="209.0" text-anchor="middle" fill="#3498db" font-family="Consolas, 'Courier New', monospace" font-size="10" font-weight="bold">parent_id → scope.id</text>
<path d="M 129,574 C 129,407.0 60,407.0 60,240" fill="none" stroke="#e74c3c" stroke-width="1.5" stroke-dasharray="6,3" marker-end="url(#ah-e74c3c)"/>
<text x="94.5" y="401.0" text-anchor="middle" fill="#e74c3c" font-family="Consolas, 'Courier New', monospace" font-size="10" font-weight="bold">parent_id → id</text>
</svg>