<svg xmlns="http://www.w3.org/2000/svg" width="1600" height="850" viewBox="0 0 1600 850" font-family="Inter, 'Helvetica Neue', Arial, sans-serif"><rect width="1600" height="850" fill="#ffffff"/><rect x="80" y="60" width="1440" height="2" fill="#4f7a8a"/><text x="80" y="42" font-size="34" font-weight="600" fill="#1f2933">Roadmap</text><text x="1520" y="42" font-size="20" font-family="'JetBrains Mono', Menlo, Consolas, monospace" fill="#52606d" text-anchor="end">what's next</text><text x="80" y="90" font-size="20" font-style="italic" fill="#52606d">Where OpenTelemetry Arrow is going.</text><g transform="translate(220 225.0)"><circle cx="0" cy="-10" r="7" fill="#4f7a8a"/><text x="28" y="0" font-size="34" fill="#1f2933">Naming</text></g><g transform="translate(220 295.0)"><circle cx="0" cy="-10" r="7" fill="#4f7a8a"/><text x="28" y="0" font-size="34" fill="#1f2933">Extensions</text></g><g transform="translate(220 365.0)"><circle cx="0" cy="-10" r="7" fill="#4f7a8a"/><text x="28" y="0" font-size="34" fill="#1f2933">Binary Distro</text></g><g transform="translate(220 435.0)"><circle cx="0" cy="-10" r="7" fill="#4f7a8a"/><text x="28" y="0" font-size="34" fill="#1f2933">Multi-tenant</text></g><g transform="translate(220 505.0)"><circle cx="0" cy="-10" r="7" fill="#4f7a8a"/><text x="28" y="0" font-size="34" fill="#1f2933">Plugins (Web Assembly)</text></g><g transform="translate(220 575.0)"><circle cx="0" cy="-10" r="7" fill="#4f7a8a"/><text x="28" y="0" font-size="34" fill="#1f2933">NUMA configuration</text></g><g transform="translate(220 645.0)"><circle cx="0" cy="-10" r="7" fill="#4f7a8a"/><text x="28" y="0" font-size="34" fill="#1f2933">OTel Profiles</text></g><g transform="translate(220 715.0)"><circle cx="0" cy="-10" r="7" fill="#4f7a8a"/><text x="28" y="0" font-size="34" fill="#1f2933">More query languages</text></g></svg>